<svg width="400" height="400" viewBox="-5.5 -5.5 11 11" xmlns="http://www.w3.org/2000/svg">
<!-- Cercle de centre K, rayon 3 -->
<circle cx="0" cy="0" r="3" fill="none" stroke="black" stroke-width="0.04"/>

<!-- Croix du centre K -->
<line x1="-0.19" y1="-0.19" x2="0.19" y2="0.19" stroke="black" stroke-width="0.05"/>
<line x1="-0.19" y1="0.19" x2="0.19" y2="-0.19" stroke="black" stroke-width="0.05"/>

<!-- Label K -->
<text x="0" y="-0.7" text-anchor="middle" dominant-baseline="central" fill="black" font-family="sans-serif" font-size="0.5">K</text>

<!-- Droite (KQ) -->
<line x1="-1.68" y1="-2.49" x2="1.68" y2="2.49" stroke="black" stroke-width="0.04"/>

<!-- Droite (XV) -->
<line x1="-2.99" y1="-0.26" x2="2.99" y2="0.26" stroke="black" stroke-width="0.04"/>

<!-- Droite (NS) -->
<line x1="-0.16" y1="-3" x2="-2.05" y2="2.19" stroke="black" stroke-width="0.04"/>

<!-- Labels des points -->
<text x="1.99" y="3.1" text-anchor="middle" dominant-baseline="central" fill="black" font-family="sans-serif" font-size="0.5">Q</text>
<text x="3.5" y="0.35" text-anchor="middle" dominant-baseline="central" fill="black" font-family="sans-serif" font-size="0.5">X</text>
<text x="-3.5" y="-0.26" text-anchor="middle" dominant-baseline="central" fill="black" font-family="sans-serif" font-size="0.5">V</text>
<text x="-0.16" y="-3.55" text-anchor="middle" dominant-baseline="central" fill="black" font-family="sans-serif" font-size="0.5">N</text>
<text x="-2.45" y="2.6" text-anchor="middle" dominant-baseline="central" fill="black" font-family="sans-serif" font-size="0.5">S</text>

<!-- // sur [KX] -->
<g transform="translate(1.49, 0.13) rotate(50)">
  <line x1="-0.08" y1="-0.22" x2="-0.08" y2="0.22" stroke="#D4537E" stroke-width="0.045"/>
  <line x1="0.08" y1="-0.22" x2="0.08" y2="0.22" stroke="#D4537E" stroke-width="0.045"/>
</g>

<!-- // sur [KV] -->
<g transform="translate(-1.49, -0.13) rotate(50)">
  <line x1="-0.08" y1="-0.22" x2="-0.08" y2="0.22" stroke="#D4537E" stroke-width="0.045"/>
  <line x1="0.08" y1="-0.22" x2="0.08" y2="0.22" stroke="#D4537E" stroke-width="0.045"/>
</g>

<!-- // sur [KQ] -->
<g transform="translate(0.84, 1.245) rotate(101)">
  <line x1="-0.08" y1="-0.22" x2="-0.08" y2="0.22" stroke="#D4537E" stroke-width="0.045"/>
  <line x1="0.08" y1="-0.22" x2="0.08" y2="0.22" stroke="#D4537E" stroke-width="0.045"/>
</g>
</svg>
