<svg xmlns="http://www.w3.org/2000/svg" width="480" height="82" style="display:block;margin:0.3rem auto;">
<line x1="43" y1="38" x2="451" y2="38" stroke="#444" stroke-width="1.5"/>
<polygon points="455,38 447,34 447,42" fill="#444"/>
<line x1="55.0" y1="30" x2="55.0" y2="46" stroke="#444" stroke-width="1.5"/>
<text x="55.0" y="60" text-anchor="middle" font-size="10" fill="#444">0</text>
<line x1="79.4" y1="34" x2="79.4" y2="42" stroke="#888" stroke-width="0.8"/>
<line x1="103.8" y1="34" x2="103.8" y2="42" stroke="#888" stroke-width="0.8"/>
<line x1="128.1" y1="34" x2="128.1" y2="42" stroke="#888" stroke-width="0.8"/>
<line x1="152.5" y1="30" x2="152.5" y2="46" stroke="#444" stroke-width="1.5"/>
<text x="152.5" y="60" text-anchor="middle" font-size="10" fill="#444">1</text>
<line x1="176.9" y1="34" x2="176.9" y2="42" stroke="#888" stroke-width="0.8"/>
<line x1="201.2" y1="34" x2="201.2" y2="42" stroke="#888" stroke-width="0.8"/>
<line x1="225.6" y1="34" x2="225.6" y2="42" stroke="#888" stroke-width="0.8"/>
<line x1="250.0" y1="30" x2="250.0" y2="46" stroke="#444" stroke-width="1.5"/>
<text x="250.0" y="60" text-anchor="middle" font-size="10" fill="#444">2</text>
<line x1="274.4" y1="34" x2="274.4" y2="42" stroke="#888" stroke-width="0.8"/>
<line x1="298.8" y1="34" x2="298.8" y2="42" stroke="#888" stroke-width="0.8"/>
<line x1="323.1" y1="34" x2="323.1" y2="42" stroke="#888" stroke-width="0.8"/>
<line x1="347.5" y1="30" x2="347.5" y2="46" stroke="#444" stroke-width="1.5"/>
<text x="347.5" y="60" text-anchor="middle" font-size="10" fill="#444">3</text>
<line x1="371.9" y1="34" x2="371.9" y2="42" stroke="#888" stroke-width="0.8"/>
<line x1="396.2" y1="34" x2="396.2" y2="42" stroke="#888" stroke-width="0.8"/>
<line x1="420.6" y1="34" x2="420.6" y2="42" stroke="#888" stroke-width="0.8"/>
<line x1="445.0" y1="30" x2="445.0" y2="46" stroke="#444" stroke-width="1.5"/>
<text x="445.0" y="60" text-anchor="middle" font-size="10" fill="#444">4</text>
<line x1="220.625" y1="33" x2="230.625" y2="43" stroke="#C5607A" stroke-width="2.2"/>
<line x1="220.625" y1="43" x2="230.625" y2="33" stroke="#C5607A" stroke-width="2.2"/>
<text x="225.6" y="26" text-anchor="middle" font-size="11" font-weight="bold" fill="#C5607A">E</text>
<text x="225.6" y="74" text-anchor="middle" font-size="10" font-weight="bold" fill="#C5607A">1,8</text>
</svg>