<?xml version="1.0" encoding="UTF-8"?>
<svg xmlns="http://www.w3.org/2000/svg" xmlns:xlink="http://www.w3.org/1999/xlink" width="91.572pt" height="91.572pt" viewBox="0 0 91.572 91.572" version="1.2">
<defs>
<clipPath id="clip1">
  <path d="M 47 0 L 91.144531 0 L 91.144531 91.144531 L 47 91.144531 Z M 47 0 "/>
</clipPath>
<clipPath id="clip2">
  <path d="M 0 0 L 91.144531 0 L 91.144531 44 L 0 44 Z M 0 0 "/>
</clipPath>
<clipPath id="clip3">
  <path d="M 0 0 L 44 0 L 44 91.144531 L 0 91.144531 Z M 0 0 "/>
</clipPath>
</defs>
<g id="surface1">
<path style=" stroke:none;fill-rule:nonzero;fill:rgb(73.527527%,81.469727%,43.528748%);fill-opacity:1;" d="M 8.328125 82.816406 L 8.328125 32.027344 L 59.117188 32.027344 L 59.117188 82.816406 Z M 8.328125 82.816406 "/>
<path style=" stroke:none;fill-rule:nonzero;fill:rgb(92.64679%,77.941895%,51.174927%);fill-opacity:1;" d="M 59.117188 32.027344 L 82.816406 8.328125 L 82.816406 59.117188 L 59.117188 82.816406 Z M 59.117188 32.027344 "/>
<path style=" stroke:none;fill-rule:nonzero;fill:rgb(87.057495%,55.291748%,43.821716%);fill-opacity:1;" d="M 8.328125 32.027344 L 32.03125 8.328125 L 82.816406 8.328125 L 59.117188 32.027344 Z M 8.328125 32.027344 "/>
<path style="fill:none;stroke-width:0.79701;stroke-linecap:butt;stroke-linejoin:miter;stroke:rgb(0%,0%,0%);stroke-opacity:1;stroke-miterlimit:10;" d="M -0.00195003 -0.000483325 L -0.00195003 51.025963 L 51.024496 51.025963 L 51.024496 -0.000483325 Z M -0.00195003 -0.000483325 " transform="matrix(0.995348,0,0,-0.995348,8.330066,82.815925)"/>
<g clip-path="url(#clip1)" clip-rule="nonzero">
<path style="fill:none;stroke-width:0.79701;stroke-linecap:butt;stroke-linejoin:miter;stroke:rgb(0%,0%,0%);stroke-opacity:1;stroke-miterlimit:10;" d="M 51.024496 51.025963 L 74.834483 74.83595 L 74.834483 23.809504 L 51.024496 -0.000483325 " transform="matrix(0.995348,0,0,-0.995348,8.330066,82.815925)"/>
</g>
<g clip-path="url(#clip2)" clip-rule="nonzero">
<path style="fill:none;stroke-width:0.79701;stroke-linecap:butt;stroke-linejoin:miter;stroke:rgb(0%,0%,0%);stroke-opacity:1;stroke-miterlimit:10;" d="M -0.00195003 51.025963 L 23.811961 74.83595 L 74.834483 74.83595 " transform="matrix(0.995348,0,0,-0.995348,8.330066,82.815925)"/>
</g>
<g clip-path="url(#clip3)" clip-rule="nonzero">
<path style="fill:none;stroke-width:0.79701;stroke-linecap:butt;stroke-linejoin:miter;stroke:rgb(0%,0%,0%);stroke-opacity:1;stroke-dasharray:2.98883,2.98883;stroke-miterlimit:10;" d="M -0.00195003 -0.000483325 L 23.811961 23.809504 L 23.811961 74.83595 " transform="matrix(0.995348,0,0,-0.995348,8.330066,82.815925)"/>
</g>
<path style="fill:none;stroke-width:0.79701;stroke-linecap:butt;stroke-linejoin:miter;stroke:rgb(0%,0%,0%);stroke-opacity:1;stroke-dasharray:2.98883,2.98883;stroke-miterlimit:10;" d="M 23.811961 23.809504 L 74.834483 23.809504 " transform="matrix(0.995348,0,0,-0.995348,8.330066,82.815925)"/>
</g>
</svg>
