<svg xmlns="http://www.w3.org/2000/svg" viewBox="0 0 400 200" width="400" height="200">
<text x="100" y="18" text-anchor="middle" font-family="Arial,sans-serif" font-size="11" fill="#8b1f30" font-weight="bold" font-style="normal">Empilement de cubes</text>
<text x="300" y="18" text-anchor="middle" font-family="Arial,sans-serif" font-size="11" fill="#8b1f30" font-weight="bold" font-style="normal">Pavé droit 4×2×2</text>
<polygon points="100.0,144.0 114.0,136.0 100.0,128.0 86.0,136.0" fill="#F4C49A" stroke="#8b1f30" stroke-width="1"/>
<polygon points="100.0,160.0 86.0,152.0 86.0,136.0 100.0,144.0" fill="#C5875A" stroke="#8b1f30" stroke-width="1"/>
<polygon points="114.0,152.0 100.0,144.0 100.0,128.0 114.0,136.0" fill="#D9A882" stroke="#8b1f30" stroke-width="1"/>
<polygon points="100.0,128.0 114.0,120.0 100.0,112.0 86.0,120.0" fill="#F4C49A" stroke="#8b1f30" stroke-width="1"/>
<polygon points="100.0,144.0 86.0,136.0 86.0,120.0 100.0,128.0" fill="#C5875A" stroke="#8b1f30" stroke-width="1"/>
<polygon points="114.0,136.0 100.0,128.0 100.0,112.0 114.0,120.0" fill="#D9A882" stroke="#8b1f30" stroke-width="1"/>
<polygon points="86.0,136.0 100.0,128.0 86.0,120.0 72.0,128.0" fill="#F4C49A" stroke="#8b1f30" stroke-width="1"/>
<polygon points="86.0,152.0 72.0,144.0 72.0,128.0 86.0,136.0" fill="#C5875A" stroke="#8b1f30" stroke-width="1"/>
<polygon points="100.0,144.0 86.0,136.0 86.0,120.0 100.0,128.0" fill="#D9A882" stroke="#8b1f30" stroke-width="1"/>
<polygon points="86.0,120.0 100.0,112.0 86.0,104.0 72.0,112.0" fill="#F4C49A" stroke="#8b1f30" stroke-width="1"/>
<polygon points="86.0,136.0 72.0,128.0 72.0,112.0 86.0,120.0" fill="#C5875A" stroke="#8b1f30" stroke-width="1"/>
<polygon points="100.0,128.0 86.0,120.0 86.0,104.0 100.0,112.0" fill="#D9A882" stroke="#8b1f30" stroke-width="1"/>
<polygon points="114.0,136.0 128.0,128.0 114.0,120.0 100.0,128.0" fill="#F4C49A" stroke="#8b1f30" stroke-width="1"/>
<polygon points="114.0,152.0 100.0,144.0 100.0,128.0 114.0,136.0" fill="#C5875A" stroke="#8b1f30" stroke-width="1"/>
<polygon points="128.0,144.0 114.0,136.0 114.0,120.0 128.0,128.0" fill="#D9A882" stroke="#8b1f30" stroke-width="1"/>
<polygon points="114.0,120.0 128.0,112.0 114.0,104.0 100.0,112.0" fill="#F4C49A" stroke="#8b1f30" stroke-width="1"/>
<polygon points="114.0,136.0 100.0,128.0 100.0,112.0 114.0,120.0" fill="#C5875A" stroke="#8b1f30" stroke-width="1"/>
<polygon points="128.0,128.0 114.0,120.0 114.0,104.0 128.0,112.0" fill="#D9A882" stroke="#8b1f30" stroke-width="1"/>
<polygon points="100.0,128.0 114.0,120.0 100.0,112.0 86.0,120.0" fill="#F4C49A" stroke="#8b1f30" stroke-width="1"/>
<polygon points="100.0,144.0 86.0,136.0 86.0,120.0 100.0,128.0" fill="#C5875A" stroke="#8b1f30" stroke-width="1"/>
<polygon points="114.0,136.0 100.0,128.0 100.0,112.0 114.0,120.0" fill="#D9A882" stroke="#8b1f30" stroke-width="1"/>
<polygon points="100.0,112.0 114.0,104.0 100.0,96.0 86.0,104.0" fill="#F4C49A" stroke="#8b1f30" stroke-width="1"/>
<polygon points="100.0,128.0 86.0,120.0 86.0,104.0 100.0,112.0" fill="#C5875A" stroke="#8b1f30" stroke-width="1"/>
<polygon points="114.0,120.0 100.0,112.0 100.0,96.0 114.0,104.0" fill="#D9A882" stroke="#8b1f30" stroke-width="1"/>
<polygon points="128.0,128.0 142.0,120.0 128.0,112.0 114.0,120.0" fill="#F4C49A" stroke="#8b1f30" stroke-width="1"/>
<polygon points="128.0,144.0 114.0,136.0 114.0,120.0 128.0,128.0" fill="#C5875A" stroke="#8b1f30" stroke-width="1"/>
<polygon points="142.0,136.0 128.0,128.0 128.0,112.0 142.0,120.0" fill="#D9A882" stroke="#8b1f30" stroke-width="1"/>
<polygon points="128.0,112.0 142.0,104.0 128.0,96.0 114.0,104.0" fill="#F4C49A" stroke="#8b1f30" stroke-width="1"/>
<polygon points="128.0,128.0 114.0,120.0 114.0,104.0 128.0,112.0" fill="#C5875A" stroke="#8b1f30" stroke-width="1"/>
<polygon points="142.0,120.0 128.0,112.0 128.0,96.0 142.0,104.0" fill="#D9A882" stroke="#8b1f30" stroke-width="1"/>
<polygon points="114.0,120.0 128.0,112.0 114.0,104.0 100.0,112.0" fill="#F4C49A" stroke="#8b1f30" stroke-width="1"/>
<polygon points="114.0,136.0 100.0,128.0 100.0,112.0 114.0,120.0" fill="#C5875A" stroke="#8b1f30" stroke-width="1"/>
<polygon points="128.0,128.0 114.0,120.0 114.0,104.0 128.0,112.0" fill="#D9A882" stroke="#8b1f30" stroke-width="1"/>
<polygon points="114.0,104.0 128.0,96.0 114.0,88.0 100.0,96.0" fill="#F4C49A" stroke="#8b1f30" stroke-width="1"/>
<polygon points="114.0,120.0 100.0,112.0 100.0,96.0 114.0,104.0" fill="#C5875A" stroke="#8b1f30" stroke-width="1"/>
<polygon points="128.0,112.0 114.0,104.0 114.0,88.0 128.0,96.0" fill="#D9A882" stroke="#8b1f30" stroke-width="1"/>
<polygon points="142.0,120.0 156.0,112.0 142.0,104.0 128.0,112.0" fill="#F4C49A" stroke="#8b1f30" stroke-width="1"/>
<polygon points="142.0,136.0 128.0,128.0 128.0,112.0 142.0,120.0" fill="#C5875A" stroke="#8b1f30" stroke-width="1"/>
<polygon points="156.0,128.0 142.0,120.0 142.0,104.0 156.0,112.0" fill="#D9A882" stroke="#8b1f30" stroke-width="1"/>
<polygon points="142.0,104.0 156.0,96.0 142.0,88.0 128.0,96.0" fill="#F4C49A" stroke="#8b1f30" stroke-width="1"/>
<polygon points="142.0,120.0 128.0,112.0 128.0,96.0 142.0,104.0" fill="#C5875A" stroke="#8b1f30" stroke-width="1"/>
<polygon points="156.0,112.0 142.0,104.0 142.0,88.0 156.0,96.0" fill="#D9A882" stroke="#8b1f30" stroke-width="1"/>
<polygon points="128.0,112.0 142.0,104.0 128.0,96.0 114.0,104.0" fill="#F4C49A" stroke="#8b1f30" stroke-width="1"/>
<polygon points="128.0,128.0 114.0,120.0 114.0,104.0 128.0,112.0" fill="#C5875A" stroke="#8b1f30" stroke-width="1"/>
<polygon points="142.0,120.0 128.0,112.0 128.0,96.0 142.0,104.0" fill="#D9A882" stroke="#8b1f30" stroke-width="1"/>
<polygon points="128.0,96.0 142.0,88.0 128.0,80.0 114.0,88.0" fill="#F4C49A" stroke="#8b1f30" stroke-width="1"/>
<polygon points="128.0,112.0 114.0,104.0 114.0,88.0 128.0,96.0" fill="#C5875A" stroke="#8b1f30" stroke-width="1"/>
<polygon points="142.0,104.0 128.0,96.0 128.0,80.0 142.0,88.0" fill="#D9A882" stroke="#8b1f30" stroke-width="1"/>
<polygon points="235,160 347,160 347,104 235,104" fill="#F4C49A" stroke="#8b1f30" stroke-width="1.5" opacity="0.85"/>
<polygon points="347,160 419,120 419,64 347,104" fill="#D98050" stroke="#8b1f30" stroke-width="1.5" opacity="0.85"/>
<polygon points="235,104 347,104 419,64 307,64" fill="#F0A070" stroke="#8b1f30" stroke-width="1.5" opacity="0.85"/>
<line x1="235.0" y1="160.0" x2="307.0" y2="120.0" stroke="#8b1f30" stroke-width="1" stroke-dasharray="4,3"/>
<line x1="307.0" y1="120.0" x2="419.0" y2="120.0" stroke="#8b1f30" stroke-width="1" stroke-dasharray="4,3"/>
<line x1="307.0" y1="120.0" x2="307.0" y2="64.0" stroke="#8b1f30" stroke-width="1" stroke-dasharray="4,3"/>
<line x1="235.0" y1="160.0" x2="235.0" y2="104.0" stroke="#8b1f30" stroke-width="1.5"/>
<line x1="347.0" y1="160.0" x2="347.0" y2="104.0" stroke="#8b1f30" stroke-width="1.5"/>
<line x1="347.0" y1="104.0" x2="419.0" y2="64.0" stroke="#8b1f30" stroke-width="1.5"/>
<line x1="235.0" y1="104.0" x2="307.0" y2="64.0" stroke="#8b1f30" stroke-width="1.5"/>
<line x1="307.0" y1="64.0" x2="419.0" y2="64.0" stroke="#8b1f30" stroke-width="1.5"/>
<line x1="347.0" y1="160.0" x2="419.0" y2="120.0" stroke="#8b1f30" stroke-width="1.5"/>
<text x="200" y="195" text-anchor="middle" font-family="Arial,sans-serif" font-size="10" fill="#6B5D62" font-weight="normal" font-style="italic">Les deux solides ont le même volume (16 cubes)</text>
</svg>