<svg xmlns="http://www.w3.org/2000/svg" width="500" height="500" viewBox="-50 -50 400 400">
<rect x="0" y="270" width="30" height="30" fill="none" stroke="black" stroke-width="0.5"/>
<text x="15.0" y="285.0" text-anchor="middle" dominant-baseline="central" font-family="sans-serif" font-size="8" fill="black">0</text>
<rect x="30" y="270" width="30" height="30" fill="none" stroke="black" stroke-width="0.5"/>
<text x="45.0" y="285.0" text-anchor="middle" dominant-baseline="central" font-family="sans-serif" font-size="8" fill="black">1</text>
<rect x="60" y="270" width="30" height="30" fill="none" stroke="black" stroke-width="0.5"/>
<text x="75.0" y="285.0" text-anchor="middle" dominant-baseline="central" font-family="sans-serif" font-size="8" fill="black">2</text>
<rect x="90" y="270" width="30" height="30" fill="none" stroke="black" stroke-width="0.5"/>
<text x="105.0" y="285.0" text-anchor="middle" dominant-baseline="central" font-family="sans-serif" font-size="8" fill="black">3</text>
<rect x="120" y="270" width="30" height="30" fill="none" stroke="black" stroke-width="0.5"/>
<text x="135.0" y="285.0" text-anchor="middle" dominant-baseline="central" font-family="sans-serif" font-size="8" fill="black">4</text>
<rect x="150" y="270" width="30" height="30" fill="none" stroke="black" stroke-width="0.5"/>
<text x="165.0" y="285.0" text-anchor="middle" dominant-baseline="central" font-family="sans-serif" font-size="8" fill="black">5</text>
<rect x="180" y="270" width="30" height="30" fill="none" stroke="black" stroke-width="0.5"/>
<text x="195.0" y="285.0" text-anchor="middle" dominant-baseline="central" font-family="sans-serif" font-size="8" fill="black">6</text>
<rect x="210" y="270" width="30" height="30" fill="none" stroke="black" stroke-width="0.5"/>
<text x="225.0" y="285.0" text-anchor="middle" dominant-baseline="central" font-family="sans-serif" font-size="8" fill="black">7</text>
<rect x="240" y="270" width="30" height="30" fill="none" stroke="black" stroke-width="0.5"/>
<text x="255.0" y="285.0" text-anchor="middle" dominant-baseline="central" font-family="sans-serif" font-size="8" fill="black">8</text>
<rect x="270" y="270" width="30" height="30" fill="none" stroke="black" stroke-width="0.5"/>
<text x="285.0" y="285.0" text-anchor="middle" dominant-baseline="central" font-family="sans-serif" font-size="8" fill="black">9</text>
<rect x="0" y="240" width="30" height="30" fill="none" stroke="black" stroke-width="0.5"/>
<text x="15.0" y="255.0" text-anchor="middle" dominant-baseline="central" font-family="sans-serif" font-size="8" fill="black">10</text>
<rect x="30" y="240" width="30" height="30" fill="none" stroke="black" stroke-width="0.5"/>
<text x="45.0" y="255.0" text-anchor="middle" dominant-baseline="central" font-family="sans-serif" font-size="8" fill="black">11</text>
<rect x="60" y="240" width="30" height="30" fill="none" stroke="black" stroke-width="0.5"/>
<text x="75.0" y="255.0" text-anchor="middle" dominant-baseline="central" font-family="sans-serif" font-size="8" fill="black">12</text>
<rect x="90" y="240" width="30" height="30" fill="none" stroke="black" stroke-width="0.5"/>
<text x="105.0" y="255.0" text-anchor="middle" dominant-baseline="central" font-family="sans-serif" font-size="8" fill="black">13</text>
<rect x="120" y="240" width="30" height="30" fill="none" stroke="black" stroke-width="0.5"/>
<text x="135.0" y="255.0" text-anchor="middle" dominant-baseline="central" font-family="sans-serif" font-size="8" fill="black">14</text>
<rect x="150" y="240" width="30" height="30" fill="none" stroke="black" stroke-width="0.5"/>
<text x="165.0" y="255.0" text-anchor="middle" dominant-baseline="central" font-family="sans-serif" font-size="8" fill="black">15</text>
<rect x="180" y="240" width="30" height="30" fill="red" fill-opacity="0.6" stroke="black" stroke-width="0.5"/>
<text x="195.0" y="255.0" text-anchor="middle" dominant-baseline="central" font-family="sans-serif" font-size="8" fill="black">16</text>
<rect x="210" y="240" width="30" height="30" fill="none" stroke="black" stroke-width="0.5"/>
<text x="225.0" y="255.0" text-anchor="middle" dominant-baseline="central" font-family="sans-serif" font-size="8" fill="black">17</text>
<rect x="240" y="240" width="30" height="30" fill="none" stroke="black" stroke-width="0.5"/>
<text x="255.0" y="255.0" text-anchor="middle" dominant-baseline="central" font-family="sans-serif" font-size="8" fill="black">18</text>
<rect x="270" y="240" width="30" height="30" fill="none" stroke="black" stroke-width="0.5"/>
<text x="285.0" y="255.0" text-anchor="middle" dominant-baseline="central" font-family="sans-serif" font-size="8" fill="black">19</text>
<rect x="0" y="210" width="30" height="30" fill="none" stroke="black" stroke-width="0.5"/>
<text x="15.0" y="225.0" text-anchor="middle" dominant-baseline="central" font-family="sans-serif" font-size="8" fill="black">20</text>
<rect x="30" y="210" width="30" height="30" fill="none" stroke="black" stroke-width="0.5"/>
<text x="45.0" y="225.0" text-anchor="middle" dominant-baseline="central" font-family="sans-serif" font-size="8" fill="black">21</text>
<rect x="60" y="210" width="30" height="30" fill="none" stroke="black" stroke-width="0.5"/>
<text x="75.0" y="225.0" text-anchor="middle" dominant-baseline="central" font-family="sans-serif" font-size="8" fill="black">22</text>
<rect x="90" y="210" width="30" height="30" fill="none" stroke="black" stroke-width="0.5"/>
<text x="105.0" y="225.0" text-anchor="middle" dominant-baseline="central" font-family="sans-serif" font-size="8" fill="black">23</text>
<rect x="120" y="210" width="30" height="30" fill="none" stroke="black" stroke-width="0.5"/>
<text x="135.0" y="225.0" text-anchor="middle" dominant-baseline="central" font-family="sans-serif" font-size="8" fill="black">24</text>
<rect x="150" y="210" width="30" height="30" fill="none" stroke="black" stroke-width="0.5"/>
<text x="165.0" y="225.0" text-anchor="middle" dominant-baseline="central" font-family="sans-serif" font-size="8" fill="black">25</text>
<rect x="180" y="210" width="30" height="30" fill="none" stroke="black" stroke-width="0.5"/>
<text x="195.0" y="225.0" text-anchor="middle" dominant-baseline="central" font-family="sans-serif" font-size="8" fill="black">26</text>
<rect x="210" y="210" width="30" height="30" fill="none" stroke="black" stroke-width="0.5"/>
<text x="225.0" y="225.0" text-anchor="middle" dominant-baseline="central" font-family="sans-serif" font-size="8" fill="black">27</text>
<rect x="240" y="210" width="30" height="30" fill="none" stroke="black" stroke-width="0.5"/>
<text x="255.0" y="225.0" text-anchor="middle" dominant-baseline="central" font-family="sans-serif" font-size="8" fill="black">28</text>
<rect x="270" y="210" width="30" height="30" fill="none" stroke="black" stroke-width="0.5"/>
<text x="285.0" y="225.0" text-anchor="middle" dominant-baseline="central" font-family="sans-serif" font-size="8" fill="black">29</text>
<rect x="0" y="180" width="30" height="30" fill="none" stroke="black" stroke-width="0.5"/>
<text x="15.0" y="195.0" text-anchor="middle" dominant-baseline="central" font-family="sans-serif" font-size="8" fill="black">30</text>
<rect x="30" y="180" width="30" height="30" fill="none" stroke="black" stroke-width="0.5"/>
<text x="45.0" y="195.0" text-anchor="middle" dominant-baseline="central" font-family="sans-serif" font-size="8" fill="black">31</text>
<rect x="60" y="180" width="30" height="30" fill="none" stroke="black" stroke-width="0.5"/>
<text x="75.0" y="195.0" text-anchor="middle" dominant-baseline="central" font-family="sans-serif" font-size="8" fill="black">32</text>
<rect x="90" y="180" width="30" height="30" fill="none" stroke="black" stroke-width="0.5"/>
<text x="105.0" y="195.0" text-anchor="middle" dominant-baseline="central" font-family="sans-serif" font-size="8" fill="black">33</text>
<rect x="120" y="180" width="30" height="30" fill="none" stroke="black" stroke-width="0.5"/>
<text x="135.0" y="195.0" text-anchor="middle" dominant-baseline="central" font-family="sans-serif" font-size="8" fill="black">34</text>
<rect x="150" y="180" width="30" height="30" fill="none" stroke="black" stroke-width="0.5"/>
<text x="165.0" y="195.0" text-anchor="middle" dominant-baseline="central" font-family="sans-serif" font-size="8" fill="black">35</text>
<rect x="180" y="180" width="30" height="30" fill="none" stroke="black" stroke-width="0.5"/>
<text x="195.0" y="195.0" text-anchor="middle" dominant-baseline="central" font-family="sans-serif" font-size="8" fill="black">36</text>
<rect x="210" y="180" width="30" height="30" fill="none" stroke="black" stroke-width="0.5"/>
<text x="225.0" y="195.0" text-anchor="middle" dominant-baseline="central" font-family="sans-serif" font-size="8" fill="black">37</text>
<rect x="240" y="180" width="30" height="30" fill="none" stroke="black" stroke-width="0.5"/>
<text x="255.0" y="195.0" text-anchor="middle" dominant-baseline="central" font-family="sans-serif" font-size="8" fill="black">38</text>
<rect x="270" y="180" width="30" height="30" fill="none" stroke="black" stroke-width="0.5"/>
<text x="285.0" y="195.0" text-anchor="middle" dominant-baseline="central" font-family="sans-serif" font-size="8" fill="black">39</text>
<rect x="0" y="150" width="30" height="30" fill="none" stroke="black" stroke-width="0.5"/>
<text x="15.0" y="165.0" text-anchor="middle" dominant-baseline="central" font-family="sans-serif" font-size="8" fill="black">40</text>
<rect x="30" y="150" width="30" height="30" fill="none" stroke="black" stroke-width="0.5"/>
<text x="45.0" y="165.0" text-anchor="middle" dominant-baseline="central" font-family="sans-serif" font-size="8" fill="black">41</text>
<rect x="60" y="150" width="30" height="30" fill="none" stroke="black" stroke-width="0.5"/>
<text x="75.0" y="165.0" text-anchor="middle" dominant-baseline="central" font-family="sans-serif" font-size="8" fill="black">42</text>
<rect x="90" y="150" width="30" height="30" fill="none" stroke="black" stroke-width="0.5"/>
<text x="105.0" y="165.0" text-anchor="middle" dominant-baseline="central" font-family="sans-serif" font-size="8" fill="black">43</text>
<rect x="120" y="150" width="30" height="30" fill="none" stroke="black" stroke-width="0.5"/>
<text x="135.0" y="165.0" text-anchor="middle" dominant-baseline="central" font-family="sans-serif" font-size="8" fill="black">44</text>
<rect x="150" y="150" width="30" height="30" fill="none" stroke="black" stroke-width="0.5"/>
<text x="165.0" y="165.0" text-anchor="middle" dominant-baseline="central" font-family="sans-serif" font-size="8" fill="black">45</text>
<rect x="180" y="150" width="30" height="30" fill="none" stroke="black" stroke-width="0.5"/>
<text x="195.0" y="165.0" text-anchor="middle" dominant-baseline="central" font-family="sans-serif" font-size="8" fill="black">46</text>
<rect x="210" y="150" width="30" height="30" fill="none" stroke="black" stroke-width="0.5"/>
<text x="225.0" y="165.0" text-anchor="middle" dominant-baseline="central" font-family="sans-serif" font-size="8" fill="black">47</text>
<rect x="240" y="150" width="30" height="30" fill="none" stroke="black" stroke-width="0.5"/>
<text x="255.0" y="165.0" text-anchor="middle" dominant-baseline="central" font-family="sans-serif" font-size="8" fill="black">48</text>
<rect x="270" y="150" width="30" height="30" fill="none" stroke="black" stroke-width="0.5"/>
<text x="285.0" y="165.0" text-anchor="middle" dominant-baseline="central" font-family="sans-serif" font-size="8" fill="black">49</text>
<rect x="0" y="120" width="30" height="30" fill="none" stroke="black" stroke-width="0.5"/>
<text x="15.0" y="135.0" text-anchor="middle" dominant-baseline="central" font-family="sans-serif" font-size="8" fill="black">50</text>
<rect x="30" y="120" width="30" height="30" fill="none" stroke="black" stroke-width="0.5"/>
<text x="45.0" y="135.0" text-anchor="middle" dominant-baseline="central" font-family="sans-serif" font-size="8" fill="black">51</text>
<rect x="60" y="120" width="30" height="30" fill="none" stroke="black" stroke-width="0.5"/>
<text x="75.0" y="135.0" text-anchor="middle" dominant-baseline="central" font-family="sans-serif" font-size="8" fill="black">52</text>
<rect x="90" y="120" width="30" height="30" fill="none" stroke="black" stroke-width="0.5"/>
<text x="105.0" y="135.0" text-anchor="middle" dominant-baseline="central" font-family="sans-serif" font-size="8" fill="black">53</text>
<rect x="120" y="120" width="30" height="30" fill="none" stroke="black" stroke-width="0.5"/>
<text x="135.0" y="135.0" text-anchor="middle" dominant-baseline="central" font-family="sans-serif" font-size="8" fill="black">54</text>
<rect x="150" y="120" width="30" height="30" fill="none" stroke="black" stroke-width="0.5"/>
<text x="165.0" y="135.0" text-anchor="middle" dominant-baseline="central" font-family="sans-serif" font-size="8" fill="black">55</text>
<rect x="180" y="120" width="30" height="30" fill="none" stroke="black" stroke-width="0.5"/>
<text x="195.0" y="135.0" text-anchor="middle" dominant-baseline="central" font-family="sans-serif" font-size="8" fill="black">56</text>
<rect x="210" y="120" width="30" height="30" fill="none" stroke="black" stroke-width="0.5"/>
<text x="225.0" y="135.0" text-anchor="middle" dominant-baseline="central" font-family="sans-serif" font-size="8" fill="black">57</text>
<rect x="240" y="120" width="30" height="30" fill="none" stroke="black" stroke-width="0.5"/>
<text x="255.0" y="135.0" text-anchor="middle" dominant-baseline="central" font-family="sans-serif" font-size="8" fill="black">58</text>
<rect x="270" y="120" width="30" height="30" fill="none" stroke="black" stroke-width="0.5"/>
<text x="285.0" y="135.0" text-anchor="middle" dominant-baseline="central" font-family="sans-serif" font-size="8" fill="black">59</text>
<rect x="0" y="90" width="30" height="30" fill="none" stroke="black" stroke-width="0.5"/>
<text x="15.0" y="105.0" text-anchor="middle" dominant-baseline="central" font-family="sans-serif" font-size="8" fill="black">60</text>
<rect x="30" y="90" width="30" height="30" fill="none" stroke="black" stroke-width="0.5"/>
<text x="45.0" y="105.0" text-anchor="middle" dominant-baseline="central" font-family="sans-serif" font-size="8" fill="black">61</text>
<rect x="60" y="90" width="30" height="30" fill="none" stroke="black" stroke-width="0.5"/>
<text x="75.0" y="105.0" text-anchor="middle" dominant-baseline="central" font-family="sans-serif" font-size="8" fill="black">62</text>
<rect x="90" y="90" width="30" height="30" fill="none" stroke="black" stroke-width="0.5"/>
<text x="105.0" y="105.0" text-anchor="middle" dominant-baseline="central" font-family="sans-serif" font-size="8" fill="black">63</text>
<rect x="120" y="90" width="30" height="30" fill="none" stroke="black" stroke-width="0.5"/>
<text x="135.0" y="105.0" text-anchor="middle" dominant-baseline="central" font-family="sans-serif" font-size="8" fill="black">64</text>
<rect x="150" y="90" width="30" height="30" fill="none" stroke="black" stroke-width="0.5"/>
<text x="165.0" y="105.0" text-anchor="middle" dominant-baseline="central" font-family="sans-serif" font-size="8" fill="black">65</text>
<rect x="180" y="90" width="30" height="30" fill="none" stroke="black" stroke-width="0.5"/>
<text x="195.0" y="105.0" text-anchor="middle" dominant-baseline="central" font-family="sans-serif" font-size="8" fill="black">66</text>
<rect x="210" y="90" width="30" height="30" fill="none" stroke="black" stroke-width="0.5"/>
<text x="225.0" y="105.0" text-anchor="middle" dominant-baseline="central" font-family="sans-serif" font-size="8" fill="black">67</text>
<rect x="240" y="90" width="30" height="30" fill="none" stroke="black" stroke-width="0.5"/>
<text x="255.0" y="105.0" text-anchor="middle" dominant-baseline="central" font-family="sans-serif" font-size="8" fill="black">68</text>
<rect x="270" y="90" width="30" height="30" fill="none" stroke="black" stroke-width="0.5"/>
<text x="285.0" y="105.0" text-anchor="middle" dominant-baseline="central" font-family="sans-serif" font-size="8" fill="black">69</text>
<rect x="0" y="60" width="30" height="30" fill="none" stroke="black" stroke-width="0.5"/>
<text x="15.0" y="75.0" text-anchor="middle" dominant-baseline="central" font-family="sans-serif" font-size="8" fill="black">70</text>
<rect x="30" y="60" width="30" height="30" fill="none" stroke="black" stroke-width="0.5"/>
<text x="45.0" y="75.0" text-anchor="middle" dominant-baseline="central" font-family="sans-serif" font-size="8" fill="black">71</text>
<rect x="60" y="60" width="30" height="30" fill="none" stroke="black" stroke-width="0.5"/>
<text x="75.0" y="75.0" text-anchor="middle" dominant-baseline="central" font-family="sans-serif" font-size="8" fill="black">72</text>
<rect x="90" y="60" width="30" height="30" fill="none" stroke="black" stroke-width="0.5"/>
<text x="105.0" y="75.0" text-anchor="middle" dominant-baseline="central" font-family="sans-serif" font-size="8" fill="black">73</text>
<rect x="120" y="60" width="30" height="30" fill="none" stroke="black" stroke-width="0.5"/>
<text x="135.0" y="75.0" text-anchor="middle" dominant-baseline="central" font-family="sans-serif" font-size="8" fill="black">74</text>
<rect x="150" y="60" width="30" height="30" fill="none" stroke="black" stroke-width="0.5"/>
<text x="165.0" y="75.0" text-anchor="middle" dominant-baseline="central" font-family="sans-serif" font-size="8" fill="black">75</text>
<rect x="180" y="60" width="30" height="30" fill="none" stroke="black" stroke-width="0.5"/>
<text x="195.0" y="75.0" text-anchor="middle" dominant-baseline="central" font-family="sans-serif" font-size="8" fill="black">76</text>
<rect x="210" y="60" width="30" height="30" fill="none" stroke="black" stroke-width="0.5"/>
<text x="225.0" y="75.0" text-anchor="middle" dominant-baseline="central" font-family="sans-serif" font-size="8" fill="black">77</text>
<rect x="240" y="60" width="30" height="30" fill="none" stroke="black" stroke-width="0.5"/>
<text x="255.0" y="75.0" text-anchor="middle" dominant-baseline="central" font-family="sans-serif" font-size="8" fill="black">78</text>
<rect x="270" y="60" width="30" height="30" fill="none" stroke="black" stroke-width="0.5"/>
<text x="285.0" y="75.0" text-anchor="middle" dominant-baseline="central" font-family="sans-serif" font-size="8" fill="black">79</text>
<rect x="0" y="30" width="30" height="30" fill="none" stroke="black" stroke-width="0.5"/>
<text x="15.0" y="45.0" text-anchor="middle" dominant-baseline="central" font-family="sans-serif" font-size="8" fill="black">80</text>
<rect x="30" y="30" width="30" height="30" fill="none" stroke="black" stroke-width="0.5"/>
<text x="45.0" y="45.0" text-anchor="middle" dominant-baseline="central" font-family="sans-serif" font-size="8" fill="black">81</text>
<rect x="60" y="30" width="30" height="30" fill="none" stroke="black" stroke-width="0.5"/>
<text x="75.0" y="45.0" text-anchor="middle" dominant-baseline="central" font-family="sans-serif" font-size="8" fill="black">82</text>
<rect x="90" y="30" width="30" height="30" fill="none" stroke="black" stroke-width="0.5"/>
<text x="105.0" y="45.0" text-anchor="middle" dominant-baseline="central" font-family="sans-serif" font-size="8" fill="black">83</text>
<rect x="120" y="30" width="30" height="30" fill="none" stroke="black" stroke-width="0.5"/>
<text x="135.0" y="45.0" text-anchor="middle" dominant-baseline="central" font-family="sans-serif" font-size="8" fill="black">84</text>
<rect x="150" y="30" width="30" height="30" fill="none" stroke="black" stroke-width="0.5"/>
<text x="165.0" y="45.0" text-anchor="middle" dominant-baseline="central" font-family="sans-serif" font-size="8" fill="black">85</text>
<rect x="180" y="30" width="30" height="30" fill="none" stroke="black" stroke-width="0.5"/>
<text x="195.0" y="45.0" text-anchor="middle" dominant-baseline="central" font-family="sans-serif" font-size="8" fill="black">86</text>
<rect x="210" y="30" width="30" height="30" fill="none" stroke="black" stroke-width="0.5"/>
<text x="225.0" y="45.0" text-anchor="middle" dominant-baseline="central" font-family="sans-serif" font-size="8" fill="black">87</text>
<rect x="240" y="30" width="30" height="30" fill="#008002" fill-opacity="0.6" stroke="black" stroke-width="0.5"/>
<text x="255.0" y="45.0" text-anchor="middle" dominant-baseline="central" font-family="sans-serif" font-size="8" fill="black">88</text>
<rect x="270" y="30" width="30" height="30" fill="none" stroke="black" stroke-width="0.5"/>
<text x="285.0" y="45.0" text-anchor="middle" dominant-baseline="central" font-family="sans-serif" font-size="8" fill="black">89</text>
<rect x="0" y="0" width="30" height="30" fill="none" stroke="black" stroke-width="0.5"/>
<text x="15.0" y="15.0" text-anchor="middle" dominant-baseline="central" font-family="sans-serif" font-size="8" fill="black">90</text>
<rect x="30" y="0" width="30" height="30" fill="none" stroke="black" stroke-width="0.5"/>
<text x="45.0" y="15.0" text-anchor="middle" dominant-baseline="central" font-family="sans-serif" font-size="8" fill="black">91</text>
<rect x="60" y="0" width="30" height="30" fill="none" stroke="black" stroke-width="0.5"/>
<text x="75.0" y="15.0" text-anchor="middle" dominant-baseline="central" font-family="sans-serif" font-size="8" fill="black">92</text>
<rect x="90" y="0" width="30" height="30" fill="none" stroke="black" stroke-width="0.5"/>
<text x="105.0" y="15.0" text-anchor="middle" dominant-baseline="central" font-family="sans-serif" font-size="8" fill="black">93</text>
<rect x="120" y="0" width="30" height="30" fill="none" stroke="black" stroke-width="0.5"/>
<text x="135.0" y="15.0" text-anchor="middle" dominant-baseline="central" font-family="sans-serif" font-size="8" fill="black">94</text>
<rect x="150" y="0" width="30" height="30" fill="none" stroke="black" stroke-width="0.5"/>
<text x="165.0" y="15.0" text-anchor="middle" dominant-baseline="central" font-family="sans-serif" font-size="8" fill="black">95</text>
<rect x="180" y="0" width="30" height="30" fill="none" stroke="black" stroke-width="0.5"/>
<text x="195.0" y="15.0" text-anchor="middle" dominant-baseline="central" font-family="sans-serif" font-size="8" fill="black">96</text>
<rect x="210" y="0" width="30" height="30" fill="none" stroke="black" stroke-width="0.5"/>
<text x="225.0" y="15.0" text-anchor="middle" dominant-baseline="central" font-family="sans-serif" font-size="8" fill="black">97</text>
<rect x="240" y="0" width="30" height="30" fill="none" stroke="black" stroke-width="0.5"/>
<text x="255.0" y="15.0" text-anchor="middle" dominant-baseline="central" font-family="sans-serif" font-size="8" fill="black">98</text>
<rect x="270" y="0" width="30" height="30" fill="blue" fill-opacity="0.6" stroke="black" stroke-width="0.5"/>
<text x="285.0" y="15.0" text-anchor="middle" dominant-baseline="central" font-family="sans-serif" font-size="8" fill="black">99</text>
<line x1="-50" y1="-80" x2="350" y2="320" stroke="#008002" stroke-width="2"/>
<text x="310" y="280" font-family="sans-serif" font-size="12" fill="#008002" font-style="italic">(d₁)</text>
<line x1="-50" y1="350" x2="350" y2="-50" stroke="red" stroke-width="2"/>
<text x="-48" y="342" font-family="sans-serif" font-size="12" fill="red" font-style="italic">(d₂)</text>
<line x1="-50" y1="90.0" x2="350" y2="90.0" stroke="blue" stroke-width="2"/>
<text x="130.0" y="84.0" font-family="sans-serif" font-size="12" fill="blue" font-style="italic">(d₃)</text>
</svg>