<svg xmlns="http://www.w3.org/2000/svg" width="400" height="400" viewBox="-25 -25 302 302">
<line x1="-3" y1="249" x2="3" y2="255" stroke="black" stroke-width="0.7" opacity="0.8"/>
<line x1="-3" y1="255" x2="3" y2="249" stroke="black" stroke-width="0.7" opacity="0.8"/>
<text x="-5" y="246" text-anchor="middle" font-family="sans-serif" font-size="7" fill="black">0</text>
<line x1="39" y1="249" x2="45" y2="255" stroke="black" stroke-width="0.7" opacity="0.8"/>
<line x1="39" y1="255" x2="45" y2="249" stroke="black" stroke-width="0.7" opacity="0.8"/>
<text x="37" y="246" text-anchor="middle" font-family="sans-serif" font-size="7" fill="black">1</text>
<line x1="81" y1="249" x2="87" y2="255" stroke="black" stroke-width="0.7" opacity="0.8"/>
<line x1="81" y1="255" x2="87" y2="249" stroke="black" stroke-width="0.7" opacity="0.8"/>
<text x="79" y="246" text-anchor="middle" font-family="sans-serif" font-size="7" fill="black">2</text>
<line x1="123" y1="249" x2="129" y2="255" stroke="black" stroke-width="0.7" opacity="0.8"/>
<line x1="123" y1="255" x2="129" y2="249" stroke="black" stroke-width="0.7" opacity="0.8"/>
<text x="121" y="246" text-anchor="middle" font-family="sans-serif" font-size="7" fill="black">3</text>
<line x1="165" y1="249" x2="171" y2="255" stroke="black" stroke-width="0.7" opacity="0.8"/>
<line x1="165" y1="255" x2="171" y2="249" stroke="black" stroke-width="0.7" opacity="0.8"/>
<text x="163" y="246" text-anchor="middle" font-family="sans-serif" font-size="7" fill="black">4</text>
<line x1="207" y1="249" x2="213" y2="255" stroke="black" stroke-width="0.7" opacity="0.8"/>
<line x1="207" y1="255" x2="213" y2="249" stroke="black" stroke-width="0.7" opacity="0.8"/>
<text x="205" y="246" text-anchor="middle" font-family="sans-serif" font-size="7" fill="black">5</text>
<line x1="249" y1="249" x2="255" y2="255" stroke="black" stroke-width="0.7" opacity="0.8"/>
<line x1="249" y1="255" x2="255" y2="249" stroke="black" stroke-width="0.7" opacity="0.8"/>
<text x="247" y="246" text-anchor="middle" font-family="sans-serif" font-size="7" fill="black">6</text>
<line x1="-3" y1="207" x2="3" y2="213" stroke="black" stroke-width="0.7" opacity="0.8"/>
<line x1="-3" y1="213" x2="3" y2="207" stroke="black" stroke-width="0.7" opacity="0.8"/>
<text x="-5" y="204" text-anchor="middle" font-family="sans-serif" font-size="7" fill="black">7</text>
<line x1="39" y1="207" x2="45" y2="213" stroke="black" stroke-width="0.7" opacity="0.8"/>
<line x1="39" y1="213" x2="45" y2="207" stroke="black" stroke-width="0.7" opacity="0.8"/>
<text x="37" y="204" text-anchor="middle" font-family="sans-serif" font-size="7" fill="black">8</text>
<line x1="81" y1="207" x2="87" y2="213" stroke="black" stroke-width="0.7" opacity="0.8"/>
<line x1="81" y1="213" x2="87" y2="207" stroke="black" stroke-width="0.7" opacity="0.8"/>
<text x="79" y="204" text-anchor="middle" font-family="sans-serif" font-size="7" fill="black">9</text>
<line x1="123" y1="207" x2="129" y2="213" stroke="black" stroke-width="0.7" opacity="0.8"/>
<line x1="123" y1="213" x2="129" y2="207" stroke="black" stroke-width="0.7" opacity="0.8"/>
<text x="121" y="204" text-anchor="middle" font-family="sans-serif" font-size="7" fill="black">10</text>
<line x1="165" y1="207" x2="171" y2="213" stroke="black" stroke-width="0.7" opacity="0.8"/>
<line x1="165" y1="213" x2="171" y2="207" stroke="black" stroke-width="0.7" opacity="0.8"/>
<text x="163" y="204" text-anchor="middle" font-family="sans-serif" font-size="7" fill="black">11</text>
<line x1="207" y1="207" x2="213" y2="213" stroke="black" stroke-width="0.7" opacity="0.8"/>
<line x1="207" y1="213" x2="213" y2="207" stroke="black" stroke-width="0.7" opacity="0.8"/>
<text x="205" y="204" text-anchor="middle" font-family="sans-serif" font-size="7" fill="black">12</text>
<line x1="249" y1="207" x2="255" y2="213" stroke="black" stroke-width="0.7" opacity="0.8"/>
<line x1="249" y1="213" x2="255" y2="207" stroke="black" stroke-width="0.7" opacity="0.8"/>
<text x="247" y="204" text-anchor="middle" font-family="sans-serif" font-size="7" fill="black">13</text>
<line x1="-3" y1="165" x2="3" y2="171" stroke="black" stroke-width="0.7" opacity="0.8"/>
<line x1="-3" y1="171" x2="3" y2="165" stroke="black" stroke-width="0.7" opacity="0.8"/>
<text x="-5" y="162" text-anchor="middle" font-family="sans-serif" font-size="7" fill="black">14</text>
<line x1="39" y1="165" x2="45" y2="171" stroke="black" stroke-width="0.7" opacity="0.8"/>
<line x1="39" y1="171" x2="45" y2="165" stroke="black" stroke-width="0.7" opacity="0.8"/>
<text x="37" y="162" text-anchor="middle" font-family="sans-serif" font-size="7" fill="black">15</text>
<line x1="81" y1="165" x2="87" y2="171" stroke="black" stroke-width="0.7" opacity="0.8"/>
<line x1="81" y1="171" x2="87" y2="165" stroke="black" stroke-width="0.7" opacity="0.8"/>
<text x="79" y="162" text-anchor="middle" font-family="sans-serif" font-size="7" fill="black">16</text>
<line x1="123" y1="165" x2="129" y2="171" stroke="black" stroke-width="0.7" opacity="0.8"/>
<line x1="123" y1="171" x2="129" y2="165" stroke="black" stroke-width="0.7" opacity="0.8"/>
<text x="121" y="162" text-anchor="middle" font-family="sans-serif" font-size="7" fill="black">17</text>
<line x1="165" y1="165" x2="171" y2="171" stroke="black" stroke-width="0.7" opacity="0.8"/>
<line x1="165" y1="171" x2="171" y2="165" stroke="black" stroke-width="0.7" opacity="0.8"/>
<text x="163" y="162" text-anchor="middle" font-family="sans-serif" font-size="7" fill="black">18</text>
<line x1="207" y1="165" x2="213" y2="171" stroke="black" stroke-width="0.7" opacity="0.8"/>
<line x1="207" y1="171" x2="213" y2="165" stroke="black" stroke-width="0.7" opacity="0.8"/>
<text x="205" y="162" text-anchor="middle" font-family="sans-serif" font-size="7" fill="black">19</text>
<line x1="249" y1="165" x2="255" y2="171" stroke="black" stroke-width="0.7" opacity="0.8"/>
<line x1="249" y1="171" x2="255" y2="165" stroke="black" stroke-width="0.7" opacity="0.8"/>
<text x="247" y="162" text-anchor="middle" font-family="sans-serif" font-size="7" fill="black">20</text>
<line x1="-3" y1="123" x2="3" y2="129" stroke="black" stroke-width="0.7" opacity="0.8"/>
<line x1="-3" y1="129" x2="3" y2="123" stroke="black" stroke-width="0.7" opacity="0.8"/>
<text x="-5" y="120" text-anchor="middle" font-family="sans-serif" font-size="7" fill="black">21</text>
<line x1="39" y1="123" x2="45" y2="129" stroke="black" stroke-width="0.7" opacity="0.8"/>
<line x1="39" y1="129" x2="45" y2="123" stroke="black" stroke-width="0.7" opacity="0.8"/>
<text x="37" y="120" text-anchor="middle" font-family="sans-serif" font-size="7" fill="black">22</text>
<line x1="81" y1="123" x2="87" y2="129" stroke="black" stroke-width="0.7" opacity="0.8"/>
<line x1="81" y1="129" x2="87" y2="123" stroke="black" stroke-width="0.7" opacity="0.8"/>
<text x="79" y="120" text-anchor="middle" font-family="sans-serif" font-size="7" fill="black">23</text>
<line x1="123" y1="123" x2="129" y2="129" stroke="black" stroke-width="0.7" opacity="0.8"/>
<line x1="123" y1="129" x2="129" y2="123" stroke="black" stroke-width="0.7" opacity="0.8"/>
<text x="121" y="120" text-anchor="middle" font-family="sans-serif" font-size="7" fill="black">24</text>
<line x1="165" y1="123" x2="171" y2="129" stroke="black" stroke-width="0.7" opacity="0.8"/>
<line x1="165" y1="129" x2="171" y2="123" stroke="black" stroke-width="0.7" opacity="0.8"/>
<text x="163" y="120" text-anchor="middle" font-family="sans-serif" font-size="7" fill="black">25</text>
<line x1="207" y1="123" x2="213" y2="129" stroke="black" stroke-width="0.7" opacity="0.8"/>
<line x1="207" y1="129" x2="213" y2="123" stroke="black" stroke-width="0.7" opacity="0.8"/>
<text x="205" y="120" text-anchor="middle" font-family="sans-serif" font-size="7" fill="black">26</text>
<line x1="249" y1="123" x2="255" y2="129" stroke="black" stroke-width="0.7" opacity="0.8"/>
<line x1="249" y1="129" x2="255" y2="123" stroke="black" stroke-width="0.7" opacity="0.8"/>
<text x="247" y="120" text-anchor="middle" font-family="sans-serif" font-size="7" fill="black">27</text>
<line x1="-3" y1="81" x2="3" y2="87" stroke="black" stroke-width="0.7" opacity="0.8"/>
<line x1="-3" y1="87" x2="3" y2="81" stroke="black" stroke-width="0.7" opacity="0.8"/>
<text x="-5" y="78" text-anchor="middle" font-family="sans-serif" font-size="7" fill="black">28</text>
<line x1="39" y1="81" x2="45" y2="87" stroke="black" stroke-width="0.7" opacity="0.8"/>
<line x1="39" y1="87" x2="45" y2="81" stroke="black" stroke-width="0.7" opacity="0.8"/>
<text x="37" y="78" text-anchor="middle" font-family="sans-serif" font-size="7" fill="black">29</text>
<line x1="81" y1="81" x2="87" y2="87" stroke="black" stroke-width="0.7" opacity="0.8"/>
<line x1="81" y1="87" x2="87" y2="81" stroke="black" stroke-width="0.7" opacity="0.8"/>
<text x="79" y="78" text-anchor="middle" font-family="sans-serif" font-size="7" fill="black">30</text>
<line x1="123" y1="81" x2="129" y2="87" stroke="black" stroke-width="0.7" opacity="0.8"/>
<line x1="123" y1="87" x2="129" y2="81" stroke="black" stroke-width="0.7" opacity="0.8"/>
<text x="121" y="78" text-anchor="middle" font-family="sans-serif" font-size="7" fill="black">31</text>
<line x1="165" y1="81" x2="171" y2="87" stroke="black" stroke-width="0.7" opacity="0.8"/>
<line x1="165" y1="87" x2="171" y2="81" stroke="black" stroke-width="0.7" opacity="0.8"/>
<text x="163" y="78" text-anchor="middle" font-family="sans-serif" font-size="7" fill="black">32</text>
<line x1="207" y1="81" x2="213" y2="87" stroke="black" stroke-width="0.7" opacity="0.8"/>
<line x1="207" y1="87" x2="213" y2="81" stroke="black" stroke-width="0.7" opacity="0.8"/>
<text x="205" y="78" text-anchor="middle" font-family="sans-serif" font-size="7" fill="black">33</text>
<line x1="249" y1="81" x2="255" y2="87" stroke="black" stroke-width="0.7" opacity="0.8"/>
<line x1="249" y1="87" x2="255" y2="81" stroke="black" stroke-width="0.7" opacity="0.8"/>
<text x="247" y="78" text-anchor="middle" font-family="sans-serif" font-size="7" fill="black">34</text>
<line x1="-3" y1="39" x2="3" y2="45" stroke="black" stroke-width="0.7" opacity="0.8"/>
<line x1="-3" y1="45" x2="3" y2="39" stroke="black" stroke-width="0.7" opacity="0.8"/>
<text x="-5" y="36" text-anchor="middle" font-family="sans-serif" font-size="7" fill="black">35</text>
<line x1="39" y1="39" x2="45" y2="45" stroke="black" stroke-width="0.7" opacity="0.8"/>
<line x1="39" y1="45" x2="45" y2="39" stroke="black" stroke-width="0.7" opacity="0.8"/>
<text x="37" y="36" text-anchor="middle" font-family="sans-serif" font-size="7" fill="black">36</text>
<line x1="81" y1="39" x2="87" y2="45" stroke="black" stroke-width="0.7" opacity="0.8"/>
<line x1="81" y1="45" x2="87" y2="39" stroke="black" stroke-width="0.7" opacity="0.8"/>
<text x="79" y="36" text-anchor="middle" font-family="sans-serif" font-size="7" fill="black">37</text>
<line x1="123" y1="39" x2="129" y2="45" stroke="black" stroke-width="0.7" opacity="0.8"/>
<line x1="123" y1="45" x2="129" y2="39" stroke="black" stroke-width="0.7" opacity="0.8"/>
<text x="121" y="36" text-anchor="middle" font-family="sans-serif" font-size="7" fill="black">38</text>
<line x1="165" y1="39" x2="171" y2="45" stroke="black" stroke-width="0.7" opacity="0.8"/>
<line x1="165" y1="45" x2="171" y2="39" stroke="black" stroke-width="0.7" opacity="0.8"/>
<text x="163" y="36" text-anchor="middle" font-family="sans-serif" font-size="7" fill="black">39</text>
<line x1="207" y1="39" x2="213" y2="45" stroke="black" stroke-width="0.7" opacity="0.8"/>
<line x1="207" y1="45" x2="213" y2="39" stroke="black" stroke-width="0.7" opacity="0.8"/>
<text x="205" y="36" text-anchor="middle" font-family="sans-serif" font-size="7" fill="black">40</text>
<line x1="249" y1="39" x2="255" y2="45" stroke="black" stroke-width="0.7" opacity="0.8"/>
<line x1="249" y1="45" x2="255" y2="39" stroke="black" stroke-width="0.7" opacity="0.8"/>
<text x="247" y="36" text-anchor="middle" font-family="sans-serif" font-size="7" fill="black">41</text>
<line x1="-3" y1="-3" x2="3" y2="3" stroke="black" stroke-width="0.7" opacity="0.8"/>
<line x1="-3" y1="3" x2="3" y2="-3" stroke="black" stroke-width="0.7" opacity="0.8"/>
<text x="-5" y="-6" text-anchor="middle" font-family="sans-serif" font-size="7" fill="black">42</text>
<line x1="39" y1="-3" x2="45" y2="3" stroke="black" stroke-width="0.7" opacity="0.8"/>
<line x1="39" y1="3" x2="45" y2="-3" stroke="black" stroke-width="0.7" opacity="0.8"/>
<text x="37" y="-6" text-anchor="middle" font-family="sans-serif" font-size="7" fill="black">43</text>
<line x1="81" y1="-3" x2="87" y2="3" stroke="black" stroke-width="0.7" opacity="0.8"/>
<line x1="81" y1="3" x2="87" y2="-3" stroke="black" stroke-width="0.7" opacity="0.8"/>
<text x="79" y="-6" text-anchor="middle" font-family="sans-serif" font-size="7" fill="black">44</text>
<line x1="123" y1="-3" x2="129" y2="3" stroke="black" stroke-width="0.7" opacity="0.8"/>
<line x1="123" y1="3" x2="129" y2="-3" stroke="black" stroke-width="0.7" opacity="0.8"/>
<text x="121" y="-6" text-anchor="middle" font-family="sans-serif" font-size="7" fill="black">45</text>
<line x1="165" y1="-3" x2="171" y2="3" stroke="black" stroke-width="0.7" opacity="0.8"/>
<line x1="165" y1="3" x2="171" y2="-3" stroke="black" stroke-width="0.7" opacity="0.8"/>
<text x="163" y="-6" text-anchor="middle" font-family="sans-serif" font-size="7" fill="black">46</text>
<line x1="207" y1="-3" x2="213" y2="3" stroke="black" stroke-width="0.7" opacity="0.8"/>
<line x1="207" y1="3" x2="213" y2="-3" stroke="black" stroke-width="0.7" opacity="0.8"/>
<text x="205" y="-6" text-anchor="middle" font-family="sans-serif" font-size="7" fill="black">47</text>
<line x1="249" y1="-3" x2="255" y2="3" stroke="black" stroke-width="0.7" opacity="0.8"/>
<line x1="249" y1="3" x2="255" y2="-3" stroke="black" stroke-width="0.7" opacity="0.8"/>
<text x="247" y="-6" text-anchor="middle" font-family="sans-serif" font-size="7" fill="black">48</text>
<line x1="247" y1="121" x2="257" y2="131" stroke="black" stroke-width="1.8"/>
<line x1="247" y1="131" x2="257" y2="121" stroke="black" stroke-width="1.8"/>
<line x1="-25" y1="-25" x2="277" y2="277" stroke="blue" stroke-width="2"/>
<text x="-22" y="-11" font-family="sans-serif" font-size="11" fill="blue" font-style="italic">(d)</text>
</svg>