<svg xmlns="http://www.w3.org/2000/svg" width="600" height="600" viewBox="0 0 456 444">
<polygon points="36.4,107.8 78.4,107.8 108.1,78.1 108.1,36.1 78.4,6.4 36.4,6.4 6.7,36.1 6.7,78.1" fill="none" stroke="black" stroke-width="0.8"/>
<polygon points="78.4,107.8 36.4,107.8 6.7,137.5 6.7,179.5 36.4,209.2 78.4,209.2 108.1,179.5 108.1,137.5" fill="none" stroke="black" stroke-width="0.8"/>
<polygon points="137.8,107.8 179.8,107.8 209.5,78.1 209.5,36.1 179.8,6.4 137.8,6.4 108.1,36.1 108.1,78.1" fill="none" stroke="black" stroke-width="0.8"/>
<polygon points="179.8,107.8 137.8,107.8 108.1,137.5 108.1,179.5 137.8,209.2 179.8,209.2 209.5,179.5 209.5,137.5" fill="none" stroke="black" stroke-width="0.8"/>
<polygon points="108.1,78.1 78.4,107.8 108.1,137.5 137.8,107.8" fill="none" stroke="black" stroke-width="0.8"/>
<polygon points="209.5,78.1 179.8,107.8 209.5,137.5 239.2,107.8" fill="none" stroke="black" stroke-width="0.8"/>
<polygon points="108.1,179.5 78.4,209.2 108.1,238.9 137.8,209.2" fill="none" stroke="black" stroke-width="0.8"/>
<polygon points="209.5,179.5 179.8,209.2 209.5,238.9 239.2,209.2" fill="none" stroke="black" stroke-width="0.8"/>
<polygon points="239.2,107.8 281.2,107.8 310.9,78.1 310.9,36.1 281.2,6.4 239.2,6.4 209.5,36.1 209.5,78.1" fill="none" stroke="black" stroke-width="0.8"/>
<polygon points="281.2,107.8 239.2,107.8 209.5,137.5 209.5,179.5 239.2,209.2 281.2,209.2 310.9,179.5 310.9,137.5" fill="none" stroke="black" stroke-width="0.8"/>
<polygon points="340.6,107.8 382.6,107.8 412.3,78.1 412.3,36.1 382.6,6.4 340.6,6.4 310.9,36.1 310.9,78.1" fill="none" stroke="black" stroke-width="0.8"/>
<polygon points="382.6,107.8 340.6,107.8 310.9,137.5 310.9,179.5 340.6,209.2 382.6,209.2 412.3,179.5 412.3,137.5" fill="none" stroke="black" stroke-width="0.8"/>
<polygon points="310.9,78.1 281.2,107.8 310.9,137.5 340.6,107.8" fill="none" stroke="black" stroke-width="0.8"/>
<polygon points="412.3,78.1 382.6,107.8 412.3,137.5 442.0,107.8" fill="none" stroke="black" stroke-width="0.8"/>
<polygon points="310.9,179.5 281.2,209.2 310.9,238.9 340.6,209.2" fill="none" stroke="black" stroke-width="0.8"/>
<polygon points="412.3,179.5 382.6,209.2 412.3,238.9 442.0,209.2" fill="none" stroke="black" stroke-width="0.8"/>
<polygon points="36.4,310.6 78.4,310.6 108.1,280.9 108.1,238.9 78.4,209.2 36.4,209.2 6.7,238.9 6.7,280.9" fill="none" stroke="black" stroke-width="0.8"/>
<polygon points="78.4,310.6 36.4,310.6 6.7,340.3 6.7,382.3 36.4,412.0 78.4,412.0 108.1,382.3 108.1,340.3" fill="none" stroke="black" stroke-width="0.8"/>
<polygon points="137.8,310.6 179.8,310.6 209.5,280.9 209.5,238.9 179.8,209.2 137.8,209.2 108.1,238.9 108.1,280.9" fill="none" stroke="black" stroke-width="0.8"/>
<polygon points="179.8,310.6 137.8,310.6 108.1,340.3 108.1,382.3 137.8,412.0 179.8,412.0 209.5,382.3 209.5,340.3" fill="none" stroke="black" stroke-width="0.8"/>
<polygon points="108.1,280.9 78.4,310.6 108.1,340.3 137.8,310.6" fill="none" stroke="black" stroke-width="0.8"/>
<polygon points="209.5,280.9 179.8,310.6 209.5,340.3 239.2,310.6" fill="none" stroke="black" stroke-width="0.8"/>
<polygon points="108.1,382.3 78.4,412.0 108.1,441.7 137.8,412.0" fill="none" stroke="black" stroke-width="0.8"/>
<polygon points="209.5,382.3 179.8,412.0 209.5,441.7 239.2,412.0" fill="none" stroke="black" stroke-width="0.8"/>
<polygon points="239.2,310.6 281.2,310.6 310.9,280.9 310.9,238.9 281.2,209.2 239.2,209.2 209.5,238.9 209.5,280.9" fill="none" stroke="black" stroke-width="0.8"/>
<polygon points="281.2,310.6 239.2,310.6 209.5,340.3 209.5,382.3 239.2,412.0 281.2,412.0 310.9,382.3 310.9,340.3" fill="none" stroke="black" stroke-width="0.8"/>
<polygon points="340.6,310.6 382.6,310.6 412.3,280.9 412.3,238.9 382.6,209.2 340.6,209.2 310.9,238.9 310.9,280.9" fill="none" stroke="black" stroke-width="0.8"/>
<polygon points="382.6,310.6 340.6,310.6 310.9,340.3 310.9,382.3 340.6,412.0 382.6,412.0 412.3,382.3 412.3,340.3" fill="none" stroke="black" stroke-width="0.8"/>
<polygon points="310.9,280.9 281.2,310.6 310.9,340.3 340.6,310.6" fill="none" stroke="black" stroke-width="0.8"/>
<polygon points="412.3,280.9 382.6,310.6 412.3,340.3 442.0,310.6" fill="none" stroke="black" stroke-width="0.8"/>
<polygon points="310.9,382.3 281.2,412.0 310.9,441.7 340.6,412.0" fill="none" stroke="black" stroke-width="0.8"/>
<polygon points="412.3,382.3 382.6,412.0 412.3,441.7 442.0,412.0" fill="none" stroke="black" stroke-width="0.8"/>
<text x="57.4" y="57.1" text-anchor="middle" dominant-baseline="central" font-family="sans-serif" font-size="11" fill="black">1</text>
<text x="57.4" y="158.5" text-anchor="middle" dominant-baseline="central" font-family="sans-serif" font-size="11" fill="black">2</text>
<text x="158.8" y="57.1" text-anchor="middle" dominant-baseline="central" font-family="sans-serif" font-size="11" fill="black">3</text>
<text x="158.8" y="158.5" text-anchor="middle" dominant-baseline="central" font-family="sans-serif" font-size="11" fill="black">4</text>
<text x="108.1" y="107.8" text-anchor="middle" dominant-baseline="central" font-family="sans-serif" font-size="11" fill="black">5</text>
<text x="209.5" y="107.8" text-anchor="middle" dominant-baseline="central" font-family="sans-serif" font-size="11" fill="black">6</text>
<text x="108.1" y="209.2" text-anchor="middle" dominant-baseline="central" font-family="sans-serif" font-size="11" fill="black">7</text>
<text x="209.5" y="209.2" text-anchor="middle" dominant-baseline="central" font-family="sans-serif" font-size="11" fill="black">8</text>
<text x="260.2" y="57.1" text-anchor="middle" dominant-baseline="central" font-family="sans-serif" font-size="11" fill="black">9</text>
<text x="260.2" y="158.5" text-anchor="middle" dominant-baseline="central" font-family="sans-serif" font-size="11" fill="black">10</text>
<text x="361.6" y="57.1" text-anchor="middle" dominant-baseline="central" font-family="sans-serif" font-size="11" fill="black">11</text>
<text x="361.6" y="158.5" text-anchor="middle" dominant-baseline="central" font-family="sans-serif" font-size="11" fill="black">12</text>
<text x="310.9" y="107.8" text-anchor="middle" dominant-baseline="central" font-family="sans-serif" font-size="11" fill="black">13</text>
<text x="412.3" y="107.8" text-anchor="middle" dominant-baseline="central" font-family="sans-serif" font-size="11" fill="black">14</text>
<text x="310.9" y="209.2" text-anchor="middle" dominant-baseline="central" font-family="sans-serif" font-size="11" fill="black">15</text>
<text x="412.3" y="209.2" text-anchor="middle" dominant-baseline="central" font-family="sans-serif" font-size="11" fill="black">16</text>
<text x="57.4" y="259.9" text-anchor="middle" dominant-baseline="central" font-family="sans-serif" font-size="11" fill="black">17</text>
<text x="57.4" y="361.3" text-anchor="middle" dominant-baseline="central" font-family="sans-serif" font-size="11" fill="black">18</text>
<text x="158.8" y="259.9" text-anchor="middle" dominant-baseline="central" font-family="sans-serif" font-size="11" fill="black">19</text>
<text x="158.8" y="361.3" text-anchor="middle" dominant-baseline="central" font-family="sans-serif" font-size="11" fill="black">20</text>
<text x="108.1" y="310.6" text-anchor="middle" dominant-baseline="central" font-family="sans-serif" font-size="11" fill="black">21</text>
<text x="209.5" y="310.6" text-anchor="middle" dominant-baseline="central" font-family="sans-serif" font-size="11" fill="black">22</text>
<text x="108.1" y="412.0" text-anchor="middle" dominant-baseline="central" font-family="sans-serif" font-size="11" fill="black">23</text>
<text x="209.5" y="412.0" text-anchor="middle" dominant-baseline="central" font-family="sans-serif" font-size="11" fill="black">24</text>
<text x="260.2" y="259.9" text-anchor="middle" dominant-baseline="central" font-family="sans-serif" font-size="11" fill="black">25</text>
<text x="260.2" y="361.3" text-anchor="middle" dominant-baseline="central" font-family="sans-serif" font-size="11" fill="black">26</text>
<text x="361.6" y="259.9" text-anchor="middle" dominant-baseline="central" font-family="sans-serif" font-size="11" fill="black">27</text>
<text x="361.6" y="361.3" text-anchor="middle" dominant-baseline="central" font-family="sans-serif" font-size="11" fill="black">28</text>
<text x="310.9" y="310.6" text-anchor="middle" dominant-baseline="central" font-family="sans-serif" font-size="11" fill="black">29</text>
<text x="412.3" y="310.6" text-anchor="middle" dominant-baseline="central" font-family="sans-serif" font-size="11" fill="black">30</text>
<text x="310.9" y="412.0" text-anchor="middle" dominant-baseline="central" font-family="sans-serif" font-size="11" fill="black">31</text>
<text x="412.3" y="412.0" text-anchor="middle" dominant-baseline="central" font-family="sans-serif" font-size="11" fill="black">32</text>
<line x1="0.0" y1="-0.3" x2="456.4" y2="456.1" stroke="red" stroke-width="2"/>
<text x="15.4" y="28.0" font-family="sans-serif" font-size="12" fill="red" font-style="italic">(d)</text>
</svg>