<svg xmlns="http://www.w3.org/2000/svg" viewBox="0 0 540 380" width="540" height="380">
<defs><marker id="arr_ax" markerWidth="8" markerHeight="8" refX="6" refY="3" orient="auto"><path d="M0,0 L0,6 L8,3 z" fill="#2D2226"/></marker><marker id="arr_ay" markerWidth="8" markerHeight="8" refX="6" refY="3" orient="auto"><path d="M0,0 L0,6 L8,3 z" fill="#2D2226"/></marker></defs>
<line x1="94.0" y1="388.0" x2="94.0" y2="-8.0" stroke="#2D2226" stroke-width="0.5" opacity="0.3"/>
<line x1="138.0" y1="388.0" x2="138.0" y2="-8.0" stroke="#2D2226" stroke-width="0.5" opacity="0.3"/>
<line x1="182.0" y1="388.0" x2="182.0" y2="-8.0" stroke="#2D2226" stroke-width="0.5" opacity="0.3"/>
<line x1="226.0" y1="388.0" x2="226.0" y2="-8.0" stroke="#2D2226" stroke-width="0.5" opacity="0.3"/>
<line x1="314.0" y1="388.0" x2="314.0" y2="-8.0" stroke="#2D2226" stroke-width="0.5" opacity="0.3"/>
<line x1="358.0" y1="388.0" x2="358.0" y2="-8.0" stroke="#2D2226" stroke-width="0.5" opacity="0.3"/>
<line x1="402.0" y1="388.0" x2="402.0" y2="-8.0" stroke="#2D2226" stroke-width="0.5" opacity="0.3"/>
<line x1="446.0" y1="388.0" x2="446.0" y2="-8.0" stroke="#2D2226" stroke-width="0.5" opacity="0.3"/>
<line x1="50.0" y1="322.0" x2="490.0" y2="322.0" stroke="#2D2226" stroke-width="0.5" opacity="0.3"/>
<line x1="50.0" y1="278.0" x2="490.0" y2="278.0" stroke="#2D2226" stroke-width="0.5" opacity="0.3"/>
<line x1="50.0" y1="234.0" x2="490.0" y2="234.0" stroke="#2D2226" stroke-width="0.5" opacity="0.3"/>
<line x1="50.0" y1="146.0" x2="490.0" y2="146.0" stroke="#2D2226" stroke-width="0.5" opacity="0.3"/>
<line x1="50.0" y1="102.0" x2="490.0" y2="102.0" stroke="#2D2226" stroke-width="0.5" opacity="0.3"/>
<line x1="50.0" y1="58.0" x2="490.0" y2="58.0" stroke="#2D2226" stroke-width="0.5" opacity="0.3"/>
<line x1="50.0" y1="190.0" x2="498.8" y2="190.0" stroke="#2D2226" stroke-width="1.8" marker-end="url(#arr_ax)"/>
<line x1="270.0" y1="388.0" x2="270.0" y2="5.2" stroke="#2D2226" stroke-width="1.8" marker-end="url(#arr_ay)"/>
<line x1="94.0" y1="185.0" x2="94.0" y2="195.0" stroke="#2D2226" stroke-width="1.5"/>
<text x="94.0" y="207.0" text-anchor="middle" font-family="serif" font-size="12" fill="#2D2226">-4</text>
<line x1="138.0" y1="185.0" x2="138.0" y2="195.0" stroke="#2D2226" stroke-width="1.5"/>
<text x="138.0" y="207.0" text-anchor="middle" font-family="serif" font-size="12" fill="#2D2226">-3</text>
<line x1="182.0" y1="185.0" x2="182.0" y2="195.0" stroke="#2D2226" stroke-width="1.5"/>
<text x="182.0" y="207.0" text-anchor="middle" font-family="serif" font-size="12" fill="#2D2226">-2</text>
<line x1="226.0" y1="185.0" x2="226.0" y2="195.0" stroke="#2D2226" stroke-width="1.5"/>
<text x="226.0" y="207.0" text-anchor="middle" font-family="serif" font-size="12" fill="#2D2226">-1</text>
<line x1="314.0" y1="185.0" x2="314.0" y2="195.0" stroke="#2D2226" stroke-width="1.5"/>
<text x="314.0" y="207.0" text-anchor="middle" font-family="serif" font-size="12" fill="#2D2226">1</text>
<line x1="358.0" y1="185.0" x2="358.0" y2="195.0" stroke="#2D2226" stroke-width="1.5"/>
<text x="358.0" y="207.0" text-anchor="middle" font-family="serif" font-size="12" fill="#2D2226">2</text>
<line x1="402.0" y1="185.0" x2="402.0" y2="195.0" stroke="#2D2226" stroke-width="1.5"/>
<text x="402.0" y="207.0" text-anchor="middle" font-family="serif" font-size="12" fill="#2D2226">3</text>
<line x1="446.0" y1="185.0" x2="446.0" y2="195.0" stroke="#2D2226" stroke-width="1.5"/>
<text x="446.0" y="207.0" text-anchor="middle" font-family="serif" font-size="12" fill="#2D2226">4</text>
<line x1="265.0" y1="322.0" x2="275.0" y2="322.0" stroke="#2D2226" stroke-width="1.5"/>
<text x="256.0" y="326.0" text-anchor="middle" font-family="serif" font-size="12" fill="#2D2226">-3</text>
<line x1="265.0" y1="278.0" x2="275.0" y2="278.0" stroke="#2D2226" stroke-width="1.5"/>
<text x="256.0" y="282.0" text-anchor="middle" font-family="serif" font-size="12" fill="#2D2226">-2</text>
<line x1="265.0" y1="234.0" x2="275.0" y2="234.0" stroke="#2D2226" stroke-width="1.5"/>
<text x="256.0" y="238.0" text-anchor="middle" font-family="serif" font-size="12" fill="#2D2226">-1</text>
<line x1="265.0" y1="146.0" x2="275.0" y2="146.0" stroke="#2D2226" stroke-width="1.5"/>
<text x="256.0" y="150.0" text-anchor="middle" font-family="serif" font-size="12" fill="#2D2226">1</text>
<line x1="265.0" y1="102.0" x2="275.0" y2="102.0" stroke="#2D2226" stroke-width="1.5"/>
<text x="256.0" y="106.0" text-anchor="middle" font-family="serif" font-size="12" fill="#2D2226">2</text>
<line x1="265.0" y1="58.0" x2="275.0" y2="58.0" stroke="#2D2226" stroke-width="1.5"/>
<text x="256.0" y="62.0" text-anchor="middle" font-family="serif" font-size="12" fill="#2D2226">3</text>
<path d="M 50.00,168.00 C 108.67,156.27 123.33,152.60 138.00,150.40 C 152.67,148.20 167.33,145.27 182.00,146.00 C 196.67,146.73 211.33,145.27 226.00,154.80 C 240.67,164.33 255.33,179.73 270.00,203.20 C 284.67,226.67 299.33,277.27 314.00,295.60 C 328.67,313.93 343.33,319.80 358.00,313.20 C 372.67,306.60 387.33,269.20 402.00,256.00 C 416.67,242.80 431.33,236.20 446.00,234.00 C 460.67,231.80 482.67,241.33 490.00,242.80" fill="none" stroke="#cf90a2" stroke-width="2.8" stroke-linecap="round"/>
<line x1="182.0" y1="190.0" x2="182.0" y2="146.0" stroke="#EB7F73" stroke-width="2.2" stroke-dasharray="6,4"/>
<line x1="182.0" y1="146.0" x2="270.0" y2="146.0" stroke="#EB7F73" stroke-width="2.2" stroke-dasharray="6,4"/>
<line x1="402.0" y1="190.0" x2="402.0" y2="234.0" stroke="#EB7F73" stroke-width="2.2" stroke-dasharray="6,4"/>
<line x1="402.0" y1="234.0" x2="270.0" y2="234.0" stroke="#EB7F73" stroke-width="2.2" stroke-dasharray="6,4"/>
</svg>
