<svg xmlns="http://www.w3.org/2000/svg" width="600" height="600" viewBox="0 0 457 452">
<polygon points="36.7,108.5 78.7,108.5 108.4,78.8 108.4,36.8 78.7,7.1 36.7,7.1 7.0,36.8 7.0,78.8" fill="none" stroke="black" stroke-width="0.8"/>
<polygon points="78.7,108.5 36.7,108.5 7.0,138.2 7.0,180.2 36.7,209.9 78.7,209.9 108.4,180.2 108.4,138.2" fill="none" stroke="black" stroke-width="0.8"/>
<polygon points="138.1,108.5 180.1,108.5 209.8,78.8 209.8,36.8 180.1,7.1 138.1,7.1 108.4,36.8 108.4,78.8" fill="none" stroke="black" stroke-width="0.8"/>
<polygon points="180.1,108.5 138.1,108.5 108.4,138.2 108.4,180.2 138.1,209.9 180.1,209.9 209.8,180.2 209.8,138.2" fill="none" stroke="black" stroke-width="0.8"/>
<polygon points="108.4,78.8 78.7,108.5 108.4,138.2 138.1,108.5" fill="none" stroke="black" stroke-width="0.8"/>
<polygon points="209.8,78.8 180.1,108.5 209.8,138.2 239.5,108.5" fill="none" stroke="black" stroke-width="0.8"/>
<polygon points="108.4,180.2 78.7,209.9 108.4,239.6 138.1,209.9" fill="none" stroke="black" stroke-width="0.8"/>
<polygon points="209.8,180.2 180.1,209.9 209.8,239.6 239.5,209.9" fill="none" stroke="black" stroke-width="0.8"/>
<polygon points="239.5,108.5 281.5,108.5 311.2,78.8 311.2,36.8 281.5,7.1 239.5,7.1 209.8,36.8 209.8,78.8" fill="none" stroke="black" stroke-width="0.8"/>
<polygon points="281.5,108.5 239.5,108.5 209.8,138.2 209.8,180.2 239.5,209.9 281.5,209.9 311.2,180.2 311.2,138.2" fill="none" stroke="black" stroke-width="0.8"/>
<polygon points="340.9,108.5 382.9,108.5 412.6,78.8 412.6,36.8 382.9,7.1 340.9,7.1 311.2,36.8 311.2,78.8" fill="none" stroke="black" stroke-width="0.8"/>
<polygon points="382.9,108.5 340.9,108.5 311.2,138.2 311.2,180.2 340.9,209.9 382.9,209.9 412.6,180.2 412.6,138.2" fill="none" stroke="black" stroke-width="0.8"/>
<polygon points="311.2,78.8 281.5,108.5 311.2,138.2 340.9,108.5" fill="green" fill-opacity="0.5" stroke="green" stroke-width="2"/>
<polygon points="412.6,78.8 382.9,108.5 412.6,138.2 442.3,108.5" fill="none" stroke="black" stroke-width="0.8"/>
<polygon points="311.2,180.2 281.5,209.9 311.2,239.6 340.9,209.9" fill="none" stroke="black" stroke-width="0.8"/>
<polygon points="412.6,180.2 382.9,209.9 412.6,239.6 442.3,209.9" fill="none" stroke="black" stroke-width="0.8"/>
<polygon points="36.7,311.3 78.7,311.3 108.4,281.6 108.4,239.6 78.7,209.9 36.7,209.9 7.0,239.6 7.0,281.6" fill="none" stroke="black" stroke-width="0.8"/>
<polygon points="78.7,311.3 36.7,311.3 7.0,341.0 7.0,383.0 36.7,412.7 78.7,412.7 108.4,383.0 108.4,341.0" fill="none" stroke="black" stroke-width="0.8"/>
<polygon points="138.1,311.3 180.1,311.3 209.8,281.6 209.8,239.6 180.1,209.9 138.1,209.9 108.4,239.6 108.4,281.6" fill="none" stroke="black" stroke-width="0.8"/>
<polygon points="180.1,311.3 138.1,311.3 108.4,341.0 108.4,383.0 138.1,412.7 180.1,412.7 209.8,383.0 209.8,341.0" fill="none" stroke="black" stroke-width="0.8"/>
<polygon points="108.4,281.6 78.7,311.3 108.4,341.0 138.1,311.3" fill="green" fill-opacity="0.5" stroke="green" stroke-width="2"/>
<polygon points="209.8,281.6 180.1,311.3 209.8,341.0 239.5,311.3" fill="none" stroke="black" stroke-width="0.8"/>
<polygon points="108.4,383.0 78.7,412.7 108.4,442.4 138.1,412.7" fill="none" stroke="black" stroke-width="0.8"/>
<polygon points="209.8,383.0 180.1,412.7 209.8,442.4 239.5,412.7" fill="none" stroke="black" stroke-width="0.8"/>
<polygon points="239.5,311.3 281.5,311.3 311.2,281.6 311.2,239.6 281.5,209.9 239.5,209.9 209.8,239.6 209.8,281.6" fill="none" stroke="black" stroke-width="0.8"/>
<polygon points="281.5,311.3 239.5,311.3 209.8,341.0 209.8,383.0 239.5,412.7 281.5,412.7 311.2,383.0 311.2,341.0" fill="none" stroke="black" stroke-width="0.8"/>
<polygon points="340.9,311.3 382.9,311.3 412.6,281.6 412.6,239.6 382.9,209.9 340.9,209.9 311.2,239.6 311.2,281.6" fill="none" stroke="black" stroke-width="0.8"/>
<polygon points="382.9,311.3 340.9,311.3 311.2,341.0 311.2,383.0 340.9,412.7 382.9,412.7 412.6,383.0 412.6,341.0" fill="none" stroke="black" stroke-width="0.8"/>
<polygon points="311.2,281.6 281.5,311.3 311.2,341.0 340.9,311.3" fill="none" stroke="black" stroke-width="0.8"/>
<polygon points="412.6,281.6 382.9,311.3 412.6,341.0 442.3,311.3" fill="none" stroke="black" stroke-width="0.8"/>
<polygon points="311.2,383.0 281.5,412.7 311.2,442.4 340.9,412.7" fill="none" stroke="black" stroke-width="0.8"/>
<polygon points="412.6,383.0 382.9,412.7 412.6,442.4 442.3,412.7" fill="none" stroke="black" stroke-width="0.8"/>
<line x1="311.2" y1="108.5" x2="108.4" y2="311.4" stroke="green" stroke-width="1.2"/>
<line x1="307.22" y1="104.5" x2="315.22" y2="112.5" stroke="black" stroke-width="0.8"/>
<line x1="307.22" y1="112.5" x2="315.22" y2="104.5" stroke="black" stroke-width="0.8"/>
<line x1="104.36" y1="307.36" x2="112.36" y2="315.36" stroke="black" stroke-width="0.8"/>
<line x1="104.36" y1="315.36" x2="112.36" y2="307.36" stroke="black" stroke-width="0.8"/>
<polygon points="209.77488000000002,205.8964 205.77488000000002,209.8964 209.77488000000002,213.8964 213.77488000000002,209.8964" fill="none" stroke="green" stroke-width="0.7"/>
<text x="260.5" y="159.2" text-anchor="middle" dominant-baseline="central" font-family="sans-serif" font-size="14" fill="green" transform="rotate(45, 260.5, 159.2)">/</text>
<text x="159.1" y="260.6" text-anchor="middle" dominant-baseline="central" font-family="sans-serif" font-size="14" fill="green" transform="rotate(45, 159.1, 260.6)">/</text>
<text x="57.7" y="50.8" text-anchor="middle" dominant-baseline="central" font-family="sans-serif" font-size="11" fill="gray">1</text>
<text x="57.7" y="152.2" text-anchor="middle" dominant-baseline="central" font-family="sans-serif" font-size="11" fill="gray">2</text>
<text x="159.1" y="50.8" text-anchor="middle" dominant-baseline="central" font-family="sans-serif" font-size="11" fill="gray">3</text>
<text x="159.1" y="152.2" text-anchor="middle" dominant-baseline="central" font-family="sans-serif" font-size="11" fill="gray">4</text>
<text x="108.4" y="101.5" text-anchor="middle" dominant-baseline="central" font-family="sans-serif" font-size="11" fill="gray">5</text>
<text x="209.8" y="101.5" text-anchor="middle" dominant-baseline="central" font-family="sans-serif" font-size="11" fill="gray">6</text>
<text x="108.4" y="202.9" text-anchor="middle" dominant-baseline="central" font-family="sans-serif" font-size="11" fill="gray">7</text>
<text x="209.8" y="202.9" text-anchor="middle" dominant-baseline="central" font-family="sans-serif" font-size="11" fill="gray">8</text>
<text x="260.5" y="50.8" text-anchor="middle" dominant-baseline="central" font-family="sans-serif" font-size="11" fill="gray">9</text>
<text x="260.5" y="152.2" text-anchor="middle" dominant-baseline="central" font-family="sans-serif" font-size="11" fill="gray">10</text>
<text x="361.9" y="50.8" text-anchor="middle" dominant-baseline="central" font-family="sans-serif" font-size="11" fill="gray">11</text>
<text x="361.9" y="152.2" text-anchor="middle" dominant-baseline="central" font-family="sans-serif" font-size="11" fill="gray">12</text>
<text x="311.2" y="101.5" text-anchor="middle" dominant-baseline="central" font-family="sans-serif" font-size="11" fill="gray">13</text>
<text x="412.6" y="101.5" text-anchor="middle" dominant-baseline="central" font-family="sans-serif" font-size="11" fill="gray">14</text>
<text x="311.2" y="202.9" text-anchor="middle" dominant-baseline="central" font-family="sans-serif" font-size="11" fill="gray">15</text>
<text x="412.6" y="202.9" text-anchor="middle" dominant-baseline="central" font-family="sans-serif" font-size="11" fill="gray">16</text>
<text x="57.7" y="253.6" text-anchor="middle" dominant-baseline="central" font-family="sans-serif" font-size="11" fill="gray">17</text>
<text x="57.7" y="355.0" text-anchor="middle" dominant-baseline="central" font-family="sans-serif" font-size="11" fill="gray">18</text>
<text x="159.1" y="253.6" text-anchor="middle" dominant-baseline="central" font-family="sans-serif" font-size="11" fill="gray">19</text>
<text x="159.1" y="355.0" text-anchor="middle" dominant-baseline="central" font-family="sans-serif" font-size="11" fill="gray">20</text>
<text x="108.4" y="304.3" text-anchor="middle" dominant-baseline="central" font-family="sans-serif" font-size="11" fill="gray">21</text>
<text x="209.8" y="304.3" text-anchor="middle" dominant-baseline="central" font-family="sans-serif" font-size="11" fill="gray">22</text>
<text x="108.4" y="405.7" text-anchor="middle" dominant-baseline="central" font-family="sans-serif" font-size="11" fill="gray">23</text>
<text x="209.8" y="405.7" text-anchor="middle" dominant-baseline="central" font-family="sans-serif" font-size="11" fill="gray">24</text>
<text x="260.5" y="253.6" text-anchor="middle" dominant-baseline="central" font-family="sans-serif" font-size="11" fill="gray">25</text>
<text x="260.5" y="355.0" text-anchor="middle" dominant-baseline="central" font-family="sans-serif" font-size="11" fill="gray">26</text>
<text x="361.9" y="253.6" text-anchor="middle" dominant-baseline="central" font-family="sans-serif" font-size="11" fill="gray">27</text>
<text x="361.9" y="355.0" text-anchor="middle" dominant-baseline="central" font-family="sans-serif" font-size="11" fill="gray">28</text>
<text x="311.2" y="304.3" text-anchor="middle" dominant-baseline="central" font-family="sans-serif" font-size="11" fill="gray">29</text>
<text x="412.6" y="304.3" text-anchor="middle" dominant-baseline="central" font-family="sans-serif" font-size="11" fill="gray">30</text>
<text x="311.2" y="405.7" text-anchor="middle" dominant-baseline="central" font-family="sans-serif" font-size="11" fill="gray">31</text>
<text x="412.6" y="405.7" text-anchor="middle" dominant-baseline="central" font-family="sans-serif" font-size="11" fill="gray">32</text>
<line x1="0.0" y1="0.1" x2="456.7" y2="456.8" stroke="red" stroke-width="2"/>
<text x="14.0" y="28.1" font-family="sans-serif" font-size="13" fill="red" font-style="italic">(d)</text>
</svg>