<svg width="100%" viewBox="0 0 680 440" xmlns="http://www.w3.org/2000/svg">
<defs>
<marker id="arr-orange" viewBox="0 0 10 10" refX="8" refY="5" markerWidth="6" markerHeight="6" orient="auto-start-reverse">
<path d="M2 1L8 5L2 9" fill="none" stroke="#D36740" stroke-width="1.5" stroke-linecap="round" stroke-linejoin="round"/>
</marker>
<marker id="arr-orange-light" viewBox="0 0 10 10" refX="8" refY="5" markerWidth="6" markerHeight="6" orient="auto-start-reverse">
<path d="M2 1L8 5L2 9" fill="none" stroke="#D36740" stroke-width="1.5" stroke-linecap="round" stroke-linejoin="round" opacity="0.6"/>
</marker>
</defs>

<!-- Grille gris clair -->
<g stroke="#CCCCCC" stroke-width="0.3">
<line x1="40" y1="40" x2="40" y2="360"/>
<line x1="80" y1="40" x2="80" y2="360"/>
<line x1="120" y1="40" x2="120" y2="360"/>
<line x1="160" y1="40" x2="160" y2="360"/>
<line x1="200" y1="40" x2="200" y2="360"/>
<line x1="240" y1="40" x2="240" y2="360"/>
<line x1="280" y1="40" x2="280" y2="360"/>
<line x1="320" y1="40" x2="320" y2="360"/>
<line x1="360" y1="40" x2="360" y2="360"/>
<line x1="400" y1="40" x2="400" y2="360"/>
<line x1="440" y1="40" x2="440" y2="360"/>
<line x1="480" y1="40" x2="480" y2="360"/>
<line x1="520" y1="40" x2="520" y2="360"/>
<line x1="560" y1="40" x2="560" y2="360"/>
<line x1="600" y1="40" x2="600" y2="360"/>
<line x1="40" y1="40" x2="600" y2="40"/>
<line x1="40" y1="80" x2="600" y2="80"/>
<line x1="40" y1="120" x2="600" y2="120"/>
<line x1="40" y1="160" x2="600" y2="160"/>
<line x1="40" y1="200" x2="600" y2="200"/>
<line x1="40" y1="240" x2="600" y2="240"/>
<line x1="40" y1="280" x2="600" y2="280"/>
<line x1="40" y1="320" x2="600" y2="320"/>
<line x1="40" y1="360" x2="600" y2="360"/>
</g>

<!-- Vecteur AA' : A(-5,3) vers A'(-1,4) -->
<line x1="80" y1="80" x2="240" y2="40" stroke="#D36740" stroke-width="2" marker-end="url(#arr-orange)"/>
<text x="72" y="100" text-anchor="middle" font-family="sans-serif" font-size="14" font-weight="500" fill="black">A</text>
<text x="248" y="60" text-anchor="middle" font-family="sans-serif" font-size="14" font-weight="500" fill="black">A'</text>

<!-- Trapèze MNOP - noir -->
<polygon points="160,120 400,200 400,320 280,280" fill="none" stroke="black" stroke-width="2"/>
<text x="142" y="116" text-anchor="end" font-family="sans-serif" font-size="14" font-weight="500" fill="black">M</text>
<text x="414" y="196" text-anchor="start" font-family="sans-serif" font-size="14" font-weight="500" fill="black">N</text>
<text x="414" y="336" text-anchor="start" font-family="sans-serif" font-size="14" font-weight="500" fill="black">O</text>
<text x="266" y="296" text-anchor="end" font-family="sans-serif" font-size="14" font-weight="500" fill="black">P</text>

<!-- Image M'N'O'P' - orange EA8556 -->
<polygon points="320,80 560,160 560,280 440,240" fill="none" stroke="#EA8556" stroke-width="2"/>
<text x="306" y="76" text-anchor="end" font-family="sans-serif" font-size="14" font-weight="500" fill="#EA8556">M'</text>
<text x="574" y="156" text-anchor="start" font-family="sans-serif" font-size="14" font-weight="500" fill="#EA8556">N'</text>
<text x="574" y="296" text-anchor="start" font-family="sans-serif" font-size="14" font-weight="500" fill="#EA8556">O'</text>
<text x="426" y="256" text-anchor="end" font-family="sans-serif" font-size="14" font-weight="500" fill="#EA8556">P'</text>

<!-- Vecteurs de construction pointillés -->
<line x1="160" y1="120" x2="320" y2="80" stroke="#D36740" stroke-width="1" stroke-dasharray="5 4" marker-end="url(#arr-orange-light)" opacity="0.6"/>
<line x1="400" y1="200" x2="560" y2="160" stroke="#D36740" stroke-width="1" stroke-dasharray="5 4" marker-end="url(#arr-orange-light)" opacity="0.6"/>
<line x1="400" y1="320" x2="560" y2="280" stroke="#D36740" stroke-width="1" stroke-dasharray="5 4" marker-end="url(#arr-orange-light)" opacity="0.6"/>
<line x1="280" y1="280" x2="440" y2="240" stroke="#D36740" stroke-width="1" stroke-dasharray="5 4" marker-end="url(#arr-orange-light)" opacity="0.6"/>

</svg>
