<?xml version="1.0" encoding="UTF-8"?>
<svg xmlns="http://www.w3.org/2000/svg" xmlns:xlink="http://www.w3.org/1999/xlink" width="54.805pt" height="53.605pt" viewBox="0 0 54.805 53.605">
<defs>
<clipPath id="clip-0">
<path clip-rule="nonzero" d="M 8 1.992188 L 52.8125 1.992188 L 52.8125 49 L 8 49 Z M 8 1.992188 "/>
</clipPath>
<clipPath id="clip-1">
<path clip-rule="nonzero" d="M 16 1.992188 L 52.8125 1.992188 L 52.8125 51.613281 L 16 51.613281 Z M 16 1.992188 "/>
</clipPath>
<clipPath id="clip-2">
<path clip-rule="nonzero" d="M 1.992188 9 L 52.8125 9 L 52.8125 51.613281 L 1.992188 51.613281 Z M 1.992188 9 "/>
</clipPath>
<clipPath id="clip-3">
<path clip-rule="nonzero" d="M 1.992188 11 L 52.8125 11 L 52.8125 51.613281 L 1.992188 51.613281 Z M 1.992188 11 "/>
</clipPath>
<clipPath id="clip-4">
<path clip-rule="nonzero" d="M 1.992188 1.992188 L 42 1.992188 L 42 51.613281 L 1.992188 51.613281 Z M 1.992188 1.992188 "/>
</clipPath>
</defs>
<path fill="none" stroke-width="1.99255" stroke-linecap="butt" stroke-linejoin="miter" stroke="rgb(12.940979%, 42.74292%, 60.392761%)" stroke-opacity="1" stroke-miterlimit="10" d="M 0.000125 0.00184375 L 17.007938 0.00184375 " transform="matrix(1, 0, 0, -1, 19.203, 7.662)"/>
<g clip-path="url(#clip-0)">
<path fill="none" stroke-width="1.99255" stroke-linecap="butt" stroke-linejoin="miter" stroke="rgb(12.940979%, 42.74292%, 60.392761%)" stroke-opacity="1" stroke-miterlimit="10" d="M 17.007938 0.00184375 L 27.941531 -13.029406 " transform="matrix(1, 0, 0, -1, 19.203, 7.662)"/>
</g>
<g clip-path="url(#clip-1)">
<path fill="none" stroke-width="1.99255" stroke-linecap="butt" stroke-linejoin="miter" stroke="rgb(12.940979%, 42.74292%, 60.392761%)" stroke-opacity="1" stroke-miterlimit="10" d="M 27.941531 -13.029406 L 24.988406 -29.779406 " transform="matrix(1, 0, 0, -1, 19.203, 7.662)"/>
</g>
<g clip-path="url(#clip-2)">
<path fill="none" stroke-width="1.99255" stroke-linecap="butt" stroke-linejoin="miter" stroke="rgb(12.940979%, 42.74292%, 60.392761%)" stroke-opacity="1" stroke-miterlimit="10" d="M 24.988406 -29.779406 L 10.257938 -38.283312 " transform="matrix(1, 0, 0, -1, 19.203, 7.662)"/>
</g>
<g clip-path="url(#clip-3)">
<path fill="none" stroke-width="1.99255" stroke-linecap="butt" stroke-linejoin="miter" stroke="rgb(12.940979%, 42.74292%, 60.392761%)" stroke-opacity="1" stroke-miterlimit="10" d="M 10.257938 -38.283312 L -5.722531 -32.466906 " transform="matrix(1, 0, 0, -1, 19.203, 7.662)"/>
</g>
<g clip-path="url(#clip-4)">
<path fill="none" stroke-width="1.99255" stroke-linecap="butt" stroke-linejoin="miter" stroke="rgb(12.940979%, 42.74292%, 60.392761%)" stroke-opacity="1" stroke-miterlimit="10" d="M -5.722531 -32.466906 L -11.542844 -16.482531 " transform="matrix(1, 0, 0, -1, 19.203, 7.662)"/>
</g>
</svg>
