<?xml version="1.0" encoding="UTF-8"?>
<svg xmlns="http://www.w3.org/2000/svg" width="390" height="240" viewBox="0 0 390 240">
<path d="M82.00,175.00 L119.60,175.00 A37.60,37.60 0 0,0 104.63,144.97 Z" fill="#F2D1C6" stroke="none"/>
<line x1="82.00" y1="175.00" x2="223.00" y2="175.00" stroke="#D36740" stroke-width="2.5"/>
<line x1="82.00" y1="175.00" x2="152.50" y2="81.00" stroke="#D36740" stroke-width="2.5"/>
<text x="251.20" y="179.00" text-anchor="start" fill="#D36740" font-size="13" font-family="sans-serif" style="font-style:italic;">(f)</text>
<text x="166.60" y="58.20" text-anchor="start" fill="#D36740" font-size="13" font-family="sans-serif" style="font-style:italic;">(d)</text>
<defs><marker id="arr1" markerWidth="8" markerHeight="6" refX="7" refY="3" orient="auto"><polygon points="0 0, 8 3, 0 6" fill="#888888"/></marker></defs>
<line x1="190.10" y1="128.00" x2="133.70" y2="128.00" stroke="#888888" stroke-width="1.5" marker-end="url(#arr1)"/>
<defs><marker id="arr2" markerWidth="8" markerHeight="6" refX="7" refY="3" orient="auto"><polygon points="0 0, 8 3, 0 6" fill="#888888"/></marker></defs>
<line x1="223.00" y1="146.80" x2="176.00" y2="167.95" stroke="#888888" stroke-width="1.5" marker-end="url(#arr2)"/>
<defs><marker id="arr3" markerWidth="8" markerHeight="6" refX="7" refY="3" orient="auto"><polygon points="0 0, 8 3, 0 6" fill="#888888"/></marker></defs>
<line x1="35.00" y1="128.00" x2="77.30" y2="170.30" stroke="#888888" stroke-width="1.5" marker-end="url(#arr3)"/>
<line x1="77.0" y1="175.0" x2="87.0" y2="175.0" stroke="#000000" stroke-width="1.5"/>
<line x1="82.0" y1="170.0" x2="82.0" y2="180.0" stroke="#000000" stroke-width="1.5"/>
<line x1="147.5" y1="175.0" x2="157.5" y2="175.0" stroke="#000000" stroke-width="1.5"/>
<line x1="152.5" y1="170.0" x2="152.5" y2="180.0" stroke="#000000" stroke-width="1.5"/>
<line x1="199.2" y1="175.0" x2="209.2" y2="175.0" stroke="#000000" stroke-width="1.5"/>
<line x1="204.2" y1="170.0" x2="204.2" y2="180.0" stroke="#000000" stroke-width="1.5"/>
<line x1="133.4" y1="99.8" x2="143.4" y2="99.8" stroke="#000000" stroke-width="1.5"/>
<line x1="138.4" y1="94.8" x2="138.4" y2="104.8" stroke="#000000" stroke-width="1.5"/>
<text x="82.00" y="187.00" text-anchor="end" fill="#000000" font-size="12" font-family="sans-serif">I</text>
<text x="129.00" y="187.00" text-anchor="middle" fill="#000000" font-size="12" font-family="sans-serif">M</text>
<text x="213.60" y="187.00" text-anchor="middle" fill="#000000" font-size="12" font-family="sans-serif">P</text>
<text x="138.40" y="86.40" text-anchor="middle" fill="#000000" font-size="12" font-family="sans-serif">C</text>
<text x="208.90" y="116.90" text-anchor="start" fill="#444444" font-size="11" font-family="sans-serif">Côtés</text>
<text x="185.40" y="135.70" text-anchor="start" fill="#444444" font-size="10" font-family="sans-serif">(demi-droites)</text>
<text x="82.00" y="124.00" text-anchor="end" fill="#444444" font-size="11" font-family="sans-serif">Sommet</text>
</svg>
