<?xml version="1.0" encoding="UTF-8"?>
<svg xmlns="http://www.w3.org/2000/svg" width="240" height="200" viewBox="0 0 240 200">
<line x1="28.20" y1="55.80" x2="211.80" y2="144.20" stroke="#000000" stroke-width="2.0"/>
<line x1="211.80" y1="55.80" x2="28.20" y2="144.20" stroke="#000000" stroke-width="2.0"/>
<path d="M140.40,100.00 A20.40,20.40 0 0,0 138.49,91.38" fill="none" stroke="#78985B" stroke-width="3.0"/>
<path d="M138.49,91.38 A20.40,20.40 0 0,0 101.51,91.38" fill="none" stroke="#A5C03F" stroke-width="3.0"/>
<path d="M101.51,91.38 A20.40,20.40 0 0,0 101.51,108.62" fill="none" stroke="#D36740" stroke-width="3.0"/>
<path d="M101.51,108.62 A20.40,20.40 0 0,0 138.49,108.62" fill="none" stroke="#E6B459" stroke-width="3.0"/>
<path d="M138.49,108.62 A20.40,20.40 0 0,0 140.40,100.00" fill="none" stroke="#78985B" stroke-width="3.0"/>
<text x="28.20" y="58.80" text-anchor="end" fill="#000000" font-size="12" font-family="sans-serif">A</text>
<text x="211.80" y="58.80" text-anchor="start" fill="#000000" font-size="12" font-family="sans-serif">B</text>
<text x="211.80" y="141.20" text-anchor="start" fill="#000000" font-size="12" font-family="sans-serif">C</text>
<text x="28.20" y="141.20" text-anchor="end" fill="#000000" font-size="12" font-family="sans-serif">D</text>
<text x="120.00" y="82.40" text-anchor="middle" fill="#000000" font-size="12" font-family="sans-serif">O</text>
</svg>
