<svg width="680" viewBox="0 0 680 95" xmlns="http://www.w3.org/2000/svg">
  <defs>
    <marker id="arrow" viewBox="0 0 10 10" refX="8" refY="5" markerWidth="6" markerHeight="6" orient="auto-start-reverse">
      <path d="M2 1L8 5L2 9" fill="none" stroke="black" stroke-width="1.5" stroke-linecap="round" stroke-linejoin="round"/>
    </marker>
  </defs>

  <line x1="40" y1="44" x2="635" y2="44" stroke="black" stroke-width="1.5" marker-end="url(#arrow)"/>

  <g stroke="black" stroke-width="1">
    <line x1="60"  y1="41" x2="60"  y2="47"/>
    <line x1="68"  y1="41" x2="68"  y2="47"/>
    <line x1="76"  y1="41" x2="76"  y2="47"/>
    <line x1="84"  y1="41" x2="84"  y2="47"/>
    <line x1="92"  y1="41" x2="92"  y2="47"/>
    <line x1="100" y1="41" x2="100" y2="47"/>
    <line x1="108" y1="41" x2="108" y2="47"/>
    <line x1="116" y1="41" x2="116" y2="47"/>
    <line x1="124" y1="41" x2="124" y2="47"/>
    <line x1="132" y1="41" x2="132" y2="47"/>
    <line x1="140" y1="41" x2="140" y2="47"/>
    <line x1="148" y1="41" x2="148" y2="47"/>
    <line x1="156" y1="41" x2="156" y2="47"/>
    <line x1="164" y1="41" x2="164" y2="47"/>
    <line x1="172" y1="41" x2="172" y2="47"/>
    <line x1="180" y1="41" x2="180" y2="47"/>
    <line x1="188" y1="41" x2="188" y2="47"/>
    <line x1="196" y1="41" x2="196" y2="47"/>
    <line x1="204" y1="41" x2="204" y2="47"/>
    <line x1="212" y1="41" x2="212" y2="47"/>
    <line x1="220" y1="41" x2="220" y2="47"/>
    <line x1="228" y1="41" x2="228" y2="47"/>
    <line x1="236" y1="41" x2="236" y2="47"/>
    <line x1="244" y1="41" x2="244" y2="47"/>
    <line x1="252" y1="41" x2="252" y2="47"/>
    <line x1="260" y1="41" x2="260" y2="47"/>
    <line x1="268" y1="41" x2="268" y2="47"/>
    <line x1="276" y1="41" x2="276" y2="47"/>
    <line x1="284" y1="41" x2="284" y2="47"/>
    <line x1="292" y1="41" x2="292" y2="47"/>
    <line x1="300" y1="41" x2="300" y2="47"/>
    <line x1="308" y1="41" x2="308" y2="47"/>
    <line x1="316" y1="41" x2="316" y2="47"/>
    <line x1="324" y1="41" x2="324" y2="47"/>
    <line x1="332" y1="41" x2="332" y2="47"/>
    <line x1="340" y1="41" x2="340" y2="47"/>
    <line x1="348" y1="41" x2="348" y2="47"/>
    <line x1="356" y1="41" x2="356" y2="47"/>
    <line x1="364" y1="41" x2="364" y2="47"/>
    <line x1="372" y1="41" x2="372" y2="47"/>
    <line x1="380" y1="41" x2="380" y2="47"/>
    <line x1="388" y1="41" x2="388" y2="47"/>
    <line x1="396" y1="41" x2="396" y2="47"/>
    <line x1="404" y1="41" x2="404" y2="47"/>
    <line x1="412" y1="41" x2="412" y2="47"/>
    <line x1="420" y1="41" x2="420" y2="47"/>
    <line x1="428" y1="41" x2="428" y2="47"/>
    <line x1="436" y1="41" x2="436" y2="47"/>
    <line x1="444" y1="41" x2="444" y2="47"/>
    <line x1="452" y1="41" x2="452" y2="47"/>
    <line x1="460" y1="41" x2="460" y2="47"/>
    <line x1="468" y1="41" x2="468" y2="47"/>
    <line x1="476" y1="41" x2="476" y2="47"/>
    <line x1="484" y1="41" x2="484" y2="47"/>
    <line x1="492" y1="41" x2="492" y2="47"/>
    <line x1="500" y1="41" x2="500" y2="47"/>
    <line x1="508" y1="41" x2="508" y2="47"/>
    <line x1="516" y1="41" x2="516" y2="47"/>
    <line x1="524" y1="41" x2="524" y2="47"/>
    <line x1="532" y1="41" x2="532" y2="47"/>
    <line x1="540" y1="41" x2="540" y2="47"/>
    <line x1="548" y1="41" x2="548" y2="47"/>
    <line x1="556" y1="41" x2="556" y2="47"/>
    <line x1="564" y1="41" x2="564" y2="47"/>
    <line x1="572" y1="41" x2="572" y2="47"/>
    <line x1="580" y1="41" x2="580" y2="47"/>
    <line x1="588" y1="41" x2="588" y2="47"/>
    <line x1="596" y1="41" x2="596" y2="47"/>
    <line x1="604" y1="41" x2="604" y2="47"/>
    <line x1="612" y1="41" x2="612" y2="47"/>
    <line x1="620" y1="41" x2="620" y2="47"/>
  </g>

  <g stroke="black" stroke-width="2">
    <line x1="60"  y1="38" x2="60"  y2="50"/>
    <line x1="140" y1="38" x2="140" y2="50"/>
    <line x1="220" y1="38" x2="220" y2="50"/>
    <line x1="300" y1="38" x2="300" y2="50"/>
    <line x1="380" y1="38" x2="380" y2="50"/>
    <line x1="460" y1="38" x2="460" y2="50"/>
    <line x1="540" y1="38" x2="540" y2="50"/>
    <line x1="620" y1="38" x2="620" y2="50"/>
  </g>

  <g text-anchor="middle" font-family="sans-serif" font-size="12" fill="black">
    <text x="60"  y="68">−0,4</text>
    <text x="140" y="68">−0,3</text>
    <text x="220" y="68">−0,2</text>
    <text x="300" y="68">−0,1</text>
    <text x="380" y="68">0</text>
    <text x="460" y="68">0,1</text>
    <text x="540" y="68">0,2</text>
    <text x="620" y="68">0,3</text>
  </g>

  <!-- Croix A (x=236) -->
  <g stroke="black" stroke-width="1.8" stroke-linecap="round">
    <line x1="231" y1="39" x2="241" y2="49"/>
    <line x1="241" y1="39" x2="231" y2="49"/>
  </g>
  <!-- Croix B (x=308) -->
  <g stroke="black" stroke-width="1.8" stroke-linecap="round">
    <line x1="303" y1="39" x2="313" y2="49"/>
    <line x1="313" y1="39" x2="303" y2="49"/>
  </g>
  <!-- Croix C (x=484) -->
  <g stroke="black" stroke-width="1.8" stroke-linecap="round">
    <line x1="479" y1="39" x2="489" y2="49"/>
    <line x1="489" y1="39" x2="479" y2="49"/>
  </g>

  <!-- Labels A, B, C -->
  <g text-anchor="middle" font-family="sans-serif" font-size="12" font-style="italic" fill="black">
    <text x="236" y="28">A</text>
    <text x="308" y="28">B</text>
    <text x="484" y="28">C</text>
  </g>
</svg>
