<?xml version="1.0" encoding="UTF-8"?>
<svg xmlns="http://www.w3.org/2000/svg" xmlns:xlink="http://www.w3.org/1999/xlink" width="49.339pt" height="44.782pt" viewBox="0 0 49.339 44.782">
<defs>
<clipPath id="clip-0">
<path clip-rule="nonzero" d="M 4 1.992188 L 47.347656 1.992188 L 47.347656 42.789062 L 4 42.789062 Z M 4 1.992188 "/>
</clipPath>
<clipPath id="clip-1">
<path clip-rule="nonzero" d="M 1.992188 1.992188 L 45 1.992188 L 45 42.789062 L 1.992188 42.789062 Z M 1.992188 1.992188 "/>
</clipPath>
</defs>
<path fill="none" stroke-width="1.99255" stroke-linecap="butt" stroke-linejoin="miter" stroke="rgb(12.940979%, 42.74292%, 60.392761%)" stroke-opacity="1" stroke-miterlimit="10" d="M -0.0009375 0.00184375 L 17.006875 0.00184375 " transform="matrix(1, 0, 0, -1, 16.165, 7.662)"/>
<g clip-path="url(#clip-0)">
<path fill="none" stroke-width="1.99255" stroke-linecap="butt" stroke-linejoin="miter" stroke="rgb(12.940979%, 42.74292%, 60.392761%)" stroke-opacity="1" stroke-miterlimit="10" d="M 17.006875 0.00184375 L 25.510781 -14.728625 " transform="matrix(1, 0, 0, -1, 16.165, 7.662)"/>
<path fill="none" stroke-width="1.99255" stroke-linecap="butt" stroke-linejoin="miter" stroke="rgb(12.940979%, 42.74292%, 60.392761%)" stroke-opacity="1" stroke-miterlimit="10" d="M 25.510781 -14.728625 L 17.006875 -29.459094 " transform="matrix(1, 0, 0, -1, 16.165, 7.662)"/>
</g>
<path fill="none" stroke-width="1.99255" stroke-linecap="butt" stroke-linejoin="miter" stroke="rgb(12.940979%, 42.74292%, 60.392761%)" stroke-opacity="1" stroke-miterlimit="10" d="M 17.006875 -29.459094 L -0.0009375 -29.459094 " transform="matrix(1, 0, 0, -1, 16.165, 7.662)"/>
<g clip-path="url(#clip-1)">
<path fill="none" stroke-width="1.99255" stroke-linecap="butt" stroke-linejoin="miter" stroke="rgb(12.940979%, 42.74292%, 60.392761%)" stroke-opacity="1" stroke-miterlimit="10" d="M -0.0009375 -29.459094 L -8.504844 -14.728625 " transform="matrix(1, 0, 0, -1, 16.165, 7.662)"/>
<path fill="none" stroke-width="1.99255" stroke-linecap="butt" stroke-linejoin="miter" stroke="rgb(12.940979%, 42.74292%, 60.392761%)" stroke-opacity="1" stroke-miterlimit="10" d="M -8.504844 -14.728625 L -0.0009375 0.00184375 " transform="matrix(1, 0, 0, -1, 16.165, 7.662)"/>
</g>
</svg>
