<?xml version="1.0" encoding="UTF-8"?>
<svg xmlns="http://www.w3.org/2000/svg" xmlns:xlink="http://www.w3.org/1999/xlink" width="45.896pt" height="45.129pt" viewBox="0 0 45.896 45.129">
<defs>
<clipPath id="clip-0">
<path clip-rule="nonzero" d="M 1.992188 1.992188 L 43.902344 1.992188 L 43.902344 43.136719 L 1.992188 43.136719 Z M 1.992188 1.992188 "/>
</clipPath>
<clipPath id="clip-1">
<path clip-rule="nonzero" d="M 7 1.992188 L 43.902344 1.992188 L 43.902344 43.136719 L 7 43.136719 Z M 7 1.992188 "/>
</clipPath>
<clipPath id="clip-2">
<path clip-rule="nonzero" d="M 1.992188 3 L 43.902344 3 L 43.902344 43.136719 L 1.992188 43.136719 Z M 1.992188 3 "/>
</clipPath>
<clipPath id="clip-3">
<path clip-rule="nonzero" d="M 1.992188 1.992188 L 39 1.992188 L 39 43.136719 L 1.992188 43.136719 Z M 1.992188 1.992188 "/>
</clipPath>
<clipPath id="clip-4">
<path clip-rule="nonzero" d="M 1.992188 1.992188 L 43.902344 1.992188 L 43.902344 43.136719 L 1.992188 43.136719 Z M 1.992188 1.992188 "/>
</clipPath>
</defs>
<path fill="none" stroke-width="1.99255" stroke-linecap="butt" stroke-linejoin="miter" stroke="rgb(12.940979%, 42.74292%, 60.392761%)" stroke-opacity="1" stroke-miterlimit="10" d="M -0.00046875 0.00084375 L 13.605 0.00084375 " transform="matrix(1, 0, 0, -1, 16.145, 7.661)"/>
<g clip-path="url(#clip-0)">
<path fill="none" stroke-width="1.99255" stroke-linecap="butt" stroke-linejoin="miter" stroke="rgb(12.940979%, 42.74292%, 60.392761%)" stroke-opacity="1" stroke-miterlimit="10" d="M 13.605 0.00084375 L 22.089375 -10.639781 " transform="matrix(1, 0, 0, -1, 16.145, 7.661)"/>
</g>
<g clip-path="url(#clip-1)">
<path fill="none" stroke-width="1.99255" stroke-linecap="butt" stroke-linejoin="miter" stroke="rgb(12.940979%, 42.74292%, 60.392761%)" stroke-opacity="1" stroke-miterlimit="10" d="M 22.089375 -10.639781 L 19.062031 -23.9015 " transform="matrix(1, 0, 0, -1, 16.145, 7.661)"/>
</g>
<g clip-path="url(#clip-2)">
<path fill="none" stroke-width="1.99255" stroke-linecap="butt" stroke-linejoin="miter" stroke="rgb(12.940979%, 42.74292%, 60.392761%)" stroke-opacity="1" stroke-miterlimit="10" d="M 19.062031 -23.9015 L 6.804219 -29.80775 " transform="matrix(1, 0, 0, -1, 16.145, 7.661)"/>
<path fill="none" stroke-width="1.99255" stroke-linecap="butt" stroke-linejoin="miter" stroke="rgb(12.940979%, 42.74292%, 60.392761%)" stroke-opacity="1" stroke-miterlimit="10" d="M 6.804219 -29.80775 L -5.4575 -23.9015 " transform="matrix(1, 0, 0, -1, 16.145, 7.661)"/>
</g>
<g clip-path="url(#clip-3)">
<path fill="none" stroke-width="1.99255" stroke-linecap="butt" stroke-linejoin="miter" stroke="rgb(12.940979%, 42.74292%, 60.392761%)" stroke-opacity="1" stroke-miterlimit="10" d="M -5.4575 -23.9015 L -8.484844 -10.639781 " transform="matrix(1, 0, 0, -1, 16.145, 7.661)"/>
</g>
<g clip-path="url(#clip-4)">
<path fill="none" stroke-width="1.99255" stroke-linecap="butt" stroke-linejoin="miter" stroke="rgb(12.940979%, 42.74292%, 60.392761%)" stroke-opacity="1" stroke-miterlimit="10" d="M -8.484844 -10.639781 L -0.00046875 0.00084375 " transform="matrix(1, 0, 0, -1, 16.145, 7.661)"/>
</g>
</svg>
