<?xml version="1.0" encoding="UTF-8"?>
<svg xmlns="http://www.w3.org/2000/svg" width="280" height="220" viewBox="0 0 280 220">
<path d="M140.00,178.00 L205.00,178.00 A65.00,65.00 0 0,0 185.96,132.04 Z" fill="#ECC3C8" stroke="none"/>
<path d="M140.00,178.00 L190.00,178.00 A50.00,50.00 0 0,0 90.00,178.00 Z" fill="#8CA774" stroke="none"/>
<circle cx="140.00" cy="178.00" r="30.00" fill="#EBC37A" stroke="none"/>
<polygon points="140.00,178.00 125.00,178.00 125.00,163.00 140.00,163.00" fill="#D36740" stroke="none"/>
<path d="M240.00,178.00 A100.00,100.00 0 0,0 40.00,178.00" fill="none" stroke="#000000" stroke-width="2.5"/>
<line x1="30.00" y1="178.00" x2="250.00" y2="178.00" stroke="#000000" stroke-width="2.5"/>
<line x1="140.00" y1="213.00" x2="140.00" y2="68.00" stroke="#000000" stroke-width="2.5"/>
<line x1="140.00" y1="178.00" x2="220.00" y2="98.00" stroke="#000000" stroke-width="2.5"/>
<text x="217.50" y="150.50" text-anchor="middle" fill="#E2A4AD" font-size="12" font-family="sans-serif">45°</text>
<text x="170.00" y="108.00" text-anchor="middle" fill="#8CA774" font-size="12" font-family="sans-serif">180°</text>
<text x="85.00" y="203.00" text-anchor="middle" fill="#EBC37A" font-size="12" font-family="sans-serif">360°</text>
<text x="75.00" y="150.50" text-anchor="middle" fill="#D36740" font-size="12" font-family="sans-serif">90°</text>
</svg>
