<svg xmlns="http://www.w3.org/2000/svg" width="370" height="370" style="display:block;margin:0.8rem auto;">
<line x1="31" y1="5" x2="31" y2="365" stroke="#ddd" stroke-width="0.6"/>
<line x1="5" y1="31" x2="365" y2="31" stroke="#ddd" stroke-width="0.6"/>
<line x1="53" y1="5" x2="53" y2="365" stroke="#ddd" stroke-width="0.6"/>
<line x1="5" y1="53" x2="365" y2="53" stroke="#ddd" stroke-width="0.6"/>
<line x1="75" y1="5" x2="75" y2="365" stroke="#ddd" stroke-width="0.6"/>
<line x1="5" y1="75" x2="365" y2="75" stroke="#ddd" stroke-width="0.6"/>
<line x1="97" y1="5" x2="97" y2="365" stroke="#ddd" stroke-width="0.6"/>
<line x1="5" y1="97" x2="365" y2="97" stroke="#ddd" stroke-width="0.6"/>
<line x1="119" y1="5" x2="119" y2="365" stroke="#ddd" stroke-width="0.6"/>
<line x1="5" y1="119" x2="365" y2="119" stroke="#ddd" stroke-width="0.6"/>
<line x1="141" y1="5" x2="141" y2="365" stroke="#ddd" stroke-width="0.6"/>
<line x1="5" y1="141" x2="365" y2="141" stroke="#ddd" stroke-width="0.6"/>
<line x1="163" y1="5" x2="163" y2="365" stroke="#ddd" stroke-width="0.6"/>
<line x1="5" y1="163" x2="365" y2="163" stroke="#ddd" stroke-width="0.6"/>
<line x1="185" y1="5" x2="185" y2="365" stroke="#ddd" stroke-width="0.6"/>
<line x1="5" y1="185" x2="365" y2="185" stroke="#ddd" stroke-width="0.6"/>
<line x1="207" y1="5" x2="207" y2="365" stroke="#ddd" stroke-width="0.6"/>
<line x1="5" y1="207" x2="365" y2="207" stroke="#ddd" stroke-width="0.6"/>
<line x1="229" y1="5" x2="229" y2="365" stroke="#ddd" stroke-width="0.6"/>
<line x1="5" y1="229" x2="365" y2="229" stroke="#ddd" stroke-width="0.6"/>
<line x1="251" y1="5" x2="251" y2="365" stroke="#ddd" stroke-width="0.6"/>
<line x1="5" y1="251" x2="365" y2="251" stroke="#ddd" stroke-width="0.6"/>
<line x1="273" y1="5" x2="273" y2="365" stroke="#ddd" stroke-width="0.6"/>
<line x1="5" y1="273" x2="365" y2="273" stroke="#ddd" stroke-width="0.6"/>
<line x1="295" y1="5" x2="295" y2="365" stroke="#ddd" stroke-width="0.6"/>
<line x1="5" y1="295" x2="365" y2="295" stroke="#ddd" stroke-width="0.6"/>
<line x1="317" y1="5" x2="317" y2="365" stroke="#ddd" stroke-width="0.6"/>
<line x1="5" y1="317" x2="365" y2="317" stroke="#ddd" stroke-width="0.6"/>
<line x1="339" y1="5" x2="339" y2="365" stroke="#ddd" stroke-width="0.6"/>
<line x1="5" y1="339" x2="365" y2="339" stroke="#ddd" stroke-width="0.6"/>
<line x1="5" y1="185" x2="365" y2="185" stroke="#555" stroke-width="1.5"/>
<line x1="185" y1="5" x2="185" y2="365" stroke="#555" stroke-width="1.5"/>
<polygon points="365,185 359,181 359,189" fill="#555"/>
<polygon points="185,5 181,11 189,11" fill="#555"/>
<line x1="31" y1="181" x2="31" y2="189" stroke="#555" stroke-width="1.2"/>
<line x1="181" y1="339" x2="189" y2="339" stroke="#555" stroke-width="1.2"/>
<line x1="53" y1="181" x2="53" y2="189" stroke="#555" stroke-width="1.2"/>
<line x1="181" y1="317" x2="189" y2="317" stroke="#555" stroke-width="1.2"/>
<line x1="75" y1="181" x2="75" y2="189" stroke="#555" stroke-width="1.2"/>
<line x1="181" y1="295" x2="189" y2="295" stroke="#555" stroke-width="1.2"/>
<text x="75" y="201" text-anchor="middle" font-size="9" fill="#777">-5</text>
<text x="172" y="299" text-anchor="end" font-size="9" fill="#777">-5</text>
<line x1="97" y1="181" x2="97" y2="189" stroke="#555" stroke-width="1.2"/>
<line x1="181" y1="273" x2="189" y2="273" stroke="#555" stroke-width="1.2"/>
<text x="97" y="201" text-anchor="middle" font-size="9" fill="#777">-4</text>
<text x="172" y="277" text-anchor="end" font-size="9" fill="#777">-4</text>
<line x1="119" y1="181" x2="119" y2="189" stroke="#555" stroke-width="1.2"/>
<line x1="181" y1="251" x2="189" y2="251" stroke="#555" stroke-width="1.2"/>
<text x="119" y="201" text-anchor="middle" font-size="9" fill="#777">-3</text>
<text x="172" y="255" text-anchor="end" font-size="9" fill="#777">-3</text>
<line x1="141" y1="181" x2="141" y2="189" stroke="#555" stroke-width="1.2"/>
<line x1="181" y1="229" x2="189" y2="229" stroke="#555" stroke-width="1.2"/>
<text x="141" y="201" text-anchor="middle" font-size="9" fill="#777">-2</text>
<text x="172" y="233" text-anchor="end" font-size="9" fill="#777">-2</text>
<line x1="163" y1="181" x2="163" y2="189" stroke="#555" stroke-width="1.2"/>
<line x1="181" y1="207" x2="189" y2="207" stroke="#555" stroke-width="1.2"/>
<text x="163" y="201" text-anchor="middle" font-size="9" fill="#777">-1</text>
<text x="172" y="211" text-anchor="end" font-size="9" fill="#777">-1</text>
<line x1="207" y1="181" x2="207" y2="189" stroke="#555" stroke-width="1.2"/>
<line x1="181" y1="163" x2="189" y2="163" stroke="#555" stroke-width="1.2"/>
<text x="207" y="201" text-anchor="middle" font-size="9" fill="#777">1</text>
<text x="172" y="167" text-anchor="end" font-size="9" fill="#777">1</text>
<line x1="229" y1="181" x2="229" y2="189" stroke="#555" stroke-width="1.2"/>
<line x1="181" y1="141" x2="189" y2="141" stroke="#555" stroke-width="1.2"/>
<text x="229" y="201" text-anchor="middle" font-size="9" fill="#777">2</text>
<text x="172" y="145" text-anchor="end" font-size="9" fill="#777">2</text>
<line x1="251" y1="181" x2="251" y2="189" stroke="#555" stroke-width="1.2"/>
<line x1="181" y1="119" x2="189" y2="119" stroke="#555" stroke-width="1.2"/>
<text x="251" y="201" text-anchor="middle" font-size="9" fill="#777">3</text>
<text x="172" y="123" text-anchor="end" font-size="9" fill="#777">3</text>
<line x1="273" y1="181" x2="273" y2="189" stroke="#555" stroke-width="1.2"/>
<line x1="181" y1="97" x2="189" y2="97" stroke="#555" stroke-width="1.2"/>
<text x="273" y="201" text-anchor="middle" font-size="9" fill="#777">4</text>
<text x="172" y="101" text-anchor="end" font-size="9" fill="#777">4</text>
<line x1="295" y1="181" x2="295" y2="189" stroke="#555" stroke-width="1.2"/>
<line x1="181" y1="75" x2="189" y2="75" stroke="#555" stroke-width="1.2"/>
<text x="295" y="201" text-anchor="middle" font-size="9" fill="#777">5</text>
<text x="172" y="79" text-anchor="end" font-size="9" fill="#777">5</text>
<line x1="317" y1="181" x2="317" y2="189" stroke="#555" stroke-width="1.2"/>
<line x1="181" y1="53" x2="189" y2="53" stroke="#555" stroke-width="1.2"/>
<line x1="339" y1="181" x2="339" y2="189" stroke="#555" stroke-width="1.2"/>
<line x1="181" y1="31" x2="189" y2="31" stroke="#555" stroke-width="1.2"/>
<text x="175" y="200" text-anchor="end" font-size="9" fill="#777">O</text>
<line x1="268.0" y1="180.0" x2="278.0" y2="190.0" stroke="#C5607A" stroke-width="2.2"/>
<line x1="268.0" y1="190.0" x2="278.0" y2="180.0" stroke="#C5607A" stroke-width="2.2"/>
<text x="282.0" y="179.0" font-size="11" font-weight="bold" fill="#C5607A" text-anchor="start">A</text>
<line x1="180.0" y1="48.0" x2="190.0" y2="58.0" stroke="#EB7F73" stroke-width="2.2"/>
<line x1="180.0" y1="58.0" x2="190.0" y2="48.0" stroke="#EB7F73" stroke-width="2.2"/>
<text x="194.0" y="47.0" font-size="11" font-weight="bold" fill="#EB7F73" text-anchor="start">B</text>
<line x1="158.0" y1="224.0" x2="168.0" y2="234.0" stroke="#758467" stroke-width="2.2"/>
<line x1="158.0" y1="234.0" x2="168.0" y2="224.0" stroke="#758467" stroke-width="2.2"/>
<text x="154.0" y="223.0" font-size="11" font-weight="bold" fill="#758467" text-anchor="end">C</text>
<line x1="202.0" y1="136.0" x2="212.0" y2="146.0" stroke="#4A5D7A" stroke-width="2.2"/>
<line x1="202.0" y1="146.0" x2="212.0" y2="136.0" stroke="#4A5D7A" stroke-width="2.2"/>
<text x="216.0" y="135.0" font-size="11" font-weight="bold" fill="#4A5D7A" text-anchor="start">D</text>
</svg>