<?xml version="1.0" encoding="UTF-8"?>
<svg xmlns="http://www.w3.org/2000/svg" xmlns:xlink="http://www.w3.org/1999/xlink" width="48.346pt" height="46.73pt" viewBox="0 0 48.346 46.73">
<defs>
<clipPath id="clip-0">
<path clip-rule="nonzero" d="M 6 1.992188 L 46.351562 1.992188 L 46.351562 44.738281 L 6 44.738281 Z M 6 1.992188 "/>
</clipPath>
<clipPath id="clip-1">
<path clip-rule="nonzero" d="M 1.992188 1.992188 L 46.351562 1.992188 L 46.351562 44.738281 L 1.992188 44.738281 Z M 1.992188 1.992188 "/>
</clipPath>
<clipPath id="clip-2">
<path clip-rule="nonzero" d="M 1.992188 1.992188 L 43 1.992188 L 43 44.738281 L 1.992188 44.738281 Z M 1.992188 1.992188 "/>
</clipPath>
</defs>
<path fill="none" stroke-width="1.99255" stroke-linecap="butt" stroke-linejoin="miter" stroke="rgb(12.940979%, 42.74292%, 60.392761%)" stroke-opacity="1" stroke-miterlimit="10" d="M 0.00075 0.00184375 L 20.410906 0.00184375 " transform="matrix(1, 0, 0, -1, 13.968, 7.662)"/>
<g clip-path="url(#clip-0)">
<path fill="none" stroke-width="1.99255" stroke-linecap="butt" stroke-linejoin="miter" stroke="rgb(12.940979%, 42.74292%, 60.392761%)" stroke-opacity="1" stroke-miterlimit="10" d="M 20.410906 0.00184375 L 26.715594 -19.412219 " transform="matrix(1, 0, 0, -1, 13.968, 7.662)"/>
</g>
<g clip-path="url(#clip-1)">
<path fill="none" stroke-width="1.99255" stroke-linecap="butt" stroke-linejoin="miter" stroke="rgb(12.940979%, 42.74292%, 60.392761%)" stroke-opacity="1" stroke-miterlimit="10" d="M 26.715594 -19.412219 L 10.203875 -31.408313 " transform="matrix(1, 0, 0, -1, 13.968, 7.662)"/>
<path fill="none" stroke-width="1.99255" stroke-linecap="butt" stroke-linejoin="miter" stroke="rgb(12.940979%, 42.74292%, 60.392761%)" stroke-opacity="1" stroke-miterlimit="10" d="M 10.203875 -31.408313 L -6.307844 -19.412219 " transform="matrix(1, 0, 0, -1, 13.968, 7.662)"/>
</g>
<g clip-path="url(#clip-2)">
<path fill="none" stroke-width="1.99255" stroke-linecap="butt" stroke-linejoin="miter" stroke="rgb(12.940979%, 42.74292%, 60.392761%)" stroke-opacity="1" stroke-miterlimit="10" d="M -6.307844 -19.412219 L 0.00075 0.00184375 " transform="matrix(1, 0, 0, -1, 13.968, 7.662)"/>
</g>
</svg>
