<svg xmlns="http://www.w3.org/2000/svg" width="480" height="82" style="display:block;margin:0.3rem auto;">
<line x1="43" y1="38" x2="451" y2="38" stroke="#444" stroke-width="1.5"/>
<polygon points="455,38 447,34 447,42" fill="#444"/>
<line x1="55.0" y1="30" x2="55.0" y2="46" stroke="#444" stroke-width="1.5"/>
<text x="55.0" y="60" text-anchor="middle" font-size="10" fill="#444">-0,3</text>
<line x1="60.6" y1="34" x2="60.6" y2="42" stroke="#888" stroke-width="0.8"/>
<line x1="66.1" y1="34" x2="66.1" y2="42" stroke="#888" stroke-width="0.8"/>
<line x1="71.7" y1="34" x2="71.7" y2="42" stroke="#888" stroke-width="0.8"/>
<line x1="77.3" y1="34" x2="77.3" y2="42" stroke="#888" stroke-width="0.8"/>
<line x1="82.9" y1="34" x2="82.9" y2="42" stroke="#888" stroke-width="0.8"/>
<line x1="88.4" y1="34" x2="88.4" y2="42" stroke="#888" stroke-width="0.8"/>
<line x1="94.0" y1="34" x2="94.0" y2="42" stroke="#888" stroke-width="0.8"/>
<line x1="99.6" y1="34" x2="99.6" y2="42" stroke="#888" stroke-width="0.8"/>
<line x1="105.1" y1="34" x2="105.1" y2="42" stroke="#888" stroke-width="0.8"/>
<line x1="110.7" y1="30" x2="110.7" y2="46" stroke="#444" stroke-width="1.5"/>
<text x="110.7" y="60" text-anchor="middle" font-size="10" fill="#444">-0,2</text>
<line x1="116.3" y1="34" x2="116.3" y2="42" stroke="#888" stroke-width="0.8"/>
<line x1="121.9" y1="34" x2="121.9" y2="42" stroke="#888" stroke-width="0.8"/>
<line x1="127.4" y1="34" x2="127.4" y2="42" stroke="#888" stroke-width="0.8"/>
<line x1="133.0" y1="34" x2="133.0" y2="42" stroke="#888" stroke-width="0.8"/>
<line x1="138.6" y1="34" x2="138.6" y2="42" stroke="#888" stroke-width="0.8"/>
<line x1="144.1" y1="34" x2="144.1" y2="42" stroke="#888" stroke-width="0.8"/>
<line x1="149.7" y1="34" x2="149.7" y2="42" stroke="#888" stroke-width="0.8"/>
<line x1="155.3" y1="34" x2="155.3" y2="42" stroke="#888" stroke-width="0.8"/>
<line x1="160.9" y1="34" x2="160.9" y2="42" stroke="#888" stroke-width="0.8"/>
<line x1="166.4" y1="30" x2="166.4" y2="46" stroke="#444" stroke-width="1.5"/>
<text x="166.4" y="60" text-anchor="middle" font-size="10" fill="#444">-0,1</text>
<line x1="172.0" y1="34" x2="172.0" y2="42" stroke="#888" stroke-width="0.8"/>
<line x1="177.6" y1="34" x2="177.6" y2="42" stroke="#888" stroke-width="0.8"/>
<line x1="183.1" y1="34" x2="183.1" y2="42" stroke="#888" stroke-width="0.8"/>
<line x1="188.7" y1="34" x2="188.7" y2="42" stroke="#888" stroke-width="0.8"/>
<line x1="194.3" y1="34" x2="194.3" y2="42" stroke="#888" stroke-width="0.8"/>
<line x1="199.9" y1="34" x2="199.9" y2="42" stroke="#888" stroke-width="0.8"/>
<line x1="205.4" y1="34" x2="205.4" y2="42" stroke="#888" stroke-width="0.8"/>
<line x1="211.0" y1="34" x2="211.0" y2="42" stroke="#888" stroke-width="0.8"/>
<line x1="216.6" y1="34" x2="216.6" y2="42" stroke="#888" stroke-width="0.8"/>
<line x1="222.1" y1="30" x2="222.1" y2="46" stroke="#444" stroke-width="1.5"/>
<text x="222.1" y="60" text-anchor="middle" font-size="10" fill="#444">0,0</text>
<line x1="227.7" y1="34" x2="227.7" y2="42" stroke="#888" stroke-width="0.8"/>
<line x1="233.3" y1="34" x2="233.3" y2="42" stroke="#888" stroke-width="0.8"/>
<line x1="238.9" y1="34" x2="238.9" y2="42" stroke="#888" stroke-width="0.8"/>
<line x1="244.4" y1="34" x2="244.4" y2="42" stroke="#888" stroke-width="0.8"/>
<line x1="250.0" y1="34" x2="250.0" y2="42" stroke="#888" stroke-width="0.8"/>
<line x1="255.6" y1="34" x2="255.6" y2="42" stroke="#888" stroke-width="0.8"/>
<line x1="261.1" y1="34" x2="261.1" y2="42" stroke="#888" stroke-width="0.8"/>
<line x1="266.7" y1="34" x2="266.7" y2="42" stroke="#888" stroke-width="0.8"/>
<line x1="272.3" y1="34" x2="272.3" y2="42" stroke="#888" stroke-width="0.8"/>
<line x1="277.9" y1="30" x2="277.9" y2="46" stroke="#444" stroke-width="1.5"/>
<text x="277.9" y="60" text-anchor="middle" font-size="10" fill="#444">0,1</text>
<line x1="283.4" y1="34" x2="283.4" y2="42" stroke="#888" stroke-width="0.8"/>
<line x1="289.0" y1="34" x2="289.0" y2="42" stroke="#888" stroke-width="0.8"/>
<line x1="294.6" y1="34" x2="294.6" y2="42" stroke="#888" stroke-width="0.8"/>
<line x1="300.1" y1="34" x2="300.1" y2="42" stroke="#888" stroke-width="0.8"/>
<line x1="305.7" y1="34" x2="305.7" y2="42" stroke="#888" stroke-width="0.8"/>
<line x1="311.3" y1="34" x2="311.3" y2="42" stroke="#888" stroke-width="0.8"/>
<line x1="316.9" y1="34" x2="316.9" y2="42" stroke="#888" stroke-width="0.8"/>
<line x1="322.4" y1="34" x2="322.4" y2="42" stroke="#888" stroke-width="0.8"/>
<line x1="328.0" y1="34" x2="328.0" y2="42" stroke="#888" stroke-width="0.8"/>
<line x1="333.6" y1="30" x2="333.6" y2="46" stroke="#444" stroke-width="1.5"/>
<text x="333.6" y="60" text-anchor="middle" font-size="10" fill="#444">0,2</text>
<line x1="339.1" y1="34" x2="339.1" y2="42" stroke="#888" stroke-width="0.8"/>
<line x1="344.7" y1="34" x2="344.7" y2="42" stroke="#888" stroke-width="0.8"/>
<line x1="350.3" y1="34" x2="350.3" y2="42" stroke="#888" stroke-width="0.8"/>
<line x1="355.9" y1="34" x2="355.9" y2="42" stroke="#888" stroke-width="0.8"/>
<line x1="361.4" y1="34" x2="361.4" y2="42" stroke="#888" stroke-width="0.8"/>
<line x1="367.0" y1="34" x2="367.0" y2="42" stroke="#888" stroke-width="0.8"/>
<line x1="372.6" y1="34" x2="372.6" y2="42" stroke="#888" stroke-width="0.8"/>
<line x1="378.1" y1="34" x2="378.1" y2="42" stroke="#888" stroke-width="0.8"/>
<line x1="383.7" y1="34" x2="383.7" y2="42" stroke="#888" stroke-width="0.8"/>
<line x1="389.3" y1="30" x2="389.3" y2="46" stroke="#444" stroke-width="1.5"/>
<text x="389.3" y="60" text-anchor="middle" font-size="10" fill="#444">0,3</text>
<line x1="394.9" y1="34" x2="394.9" y2="42" stroke="#888" stroke-width="0.8"/>
<line x1="400.4" y1="34" x2="400.4" y2="42" stroke="#888" stroke-width="0.8"/>
<line x1="406.0" y1="34" x2="406.0" y2="42" stroke="#888" stroke-width="0.8"/>
<line x1="411.6" y1="34" x2="411.6" y2="42" stroke="#888" stroke-width="0.8"/>
<line x1="417.1" y1="34" x2="417.1" y2="42" stroke="#888" stroke-width="0.8"/>
<line x1="422.7" y1="34" x2="422.7" y2="42" stroke="#888" stroke-width="0.8"/>
<line x1="428.3" y1="34" x2="428.3" y2="42" stroke="#888" stroke-width="0.8"/>
<line x1="433.9" y1="34" x2="433.9" y2="42" stroke="#888" stroke-width="0.8"/>
<line x1="439.4" y1="34" x2="439.4" y2="42" stroke="#888" stroke-width="0.8"/>
<line x1="445.0" y1="30" x2="445.0" y2="46" stroke="#444" stroke-width="1.5"/>
<text x="445.0" y="60" text-anchor="middle" font-size="10" fill="#444">0,4</text>
<line x1="167.0557142857143" y1="33" x2="177.0557142857143" y2="43" stroke="#C5607A" stroke-width="2.2"/>
<line x1="167.0557142857143" y1="43" x2="177.0557142857143" y2="33" stroke="#C5607A" stroke-width="2.2"/>
<text x="172.1" y="26" text-anchor="middle" font-size="11" font-weight="bold" fill="#C5607A">M</text>
<text x="172.1" y="74" text-anchor="middle" font-size="10" font-weight="bold" fill="#C5607A">-0,09</text>
<line x1="311.91285714285715" y1="33" x2="321.91285714285715" y2="43" stroke="#C5607A" stroke-width="2.2"/>
<line x1="311.91285714285715" y1="43" x2="321.91285714285715" y2="33" stroke="#C5607A" stroke-width="2.2"/>
<text x="316.9" y="26" text-anchor="middle" font-size="11" font-weight="bold" fill="#C5607A">N</text>
<text x="316.9" y="74" text-anchor="middle" font-size="10" font-weight="bold" fill="#C5607A">0,17</text>
<line x1="345.3414285714286" y1="33" x2="355.3414285714286" y2="43" stroke="#C5607A" stroke-width="2.2"/>
<line x1="345.3414285714286" y1="43" x2="355.3414285714286" y2="33" stroke="#C5607A" stroke-width="2.2"/>
<text x="350.3" y="26" text-anchor="middle" font-size="11" font-weight="bold" fill="#C5607A">O</text>
<text x="350.3" y="74" text-anchor="middle" font-size="10" font-weight="bold" fill="#C5607A">0,23</text>
</svg>