<svg xmlns="http://www.w3.org/2000/svg" viewBox="0 0 380 280" width="380" height="280">
<defs>
<pattern id="p_white" patternUnits="userSpaceOnUse" width="1" height="1"><rect width="1" height="1" fill="white"/></pattern>
<pattern id="p_p1dot" patternUnits="userSpaceOnUse" width="8" height="8"><rect width="8" height="8" fill="white"/><circle cx="4" cy="4" r="2" fill="#D36740"/></pattern>
<pattern id="p_p4hatch" patternUnits="userSpaceOnUse" width="8" height="8"><rect width="8" height="8" fill="white"/><line x1="0" y1="2" x2="8" y2="2" stroke="#758467" stroke-width="2"/><line x1="0" y1="6" x2="8" y2="6" stroke="#758467" stroke-width="2"/></pattern>
<pattern id="p_p2dot" patternUnits="userSpaceOnUse" width="8" height="8"><rect width="8" height="8" fill="white"/><circle cx="4" cy="4" r="2" fill="#C5607A"/></pattern>
</defs>
<path d="M 140 145 L 140.00 35.00 A 110 110 0 0 1 249.18 158.41 Z" fill="url(#p_white)" stroke="#1a1a1a" stroke-width="2"/>
<path d="M 140 145 L 249.18 158.41 A 110 110 0 0 1 59.55 220.02 Z" fill="url(#p_p1dot)" stroke="#1a1a1a" stroke-width="2"/>
<path d="M 140 145 L 59.55 220.02 A 110 110 0 0 1 32.02 124.01 Z" fill="url(#p_p4hatch)" stroke="#1a1a1a" stroke-width="2"/>
<path d="M 140 145 L 32.02 124.01 A 110 110 0 0 1 140.00 35.00 Z" fill="url(#p_p2dot)" stroke="#1a1a1a" stroke-width="2"/>
<rect x="265" y="80" width="20" height="20" fill="url(#p_white)" stroke="#1a1a1a" stroke-width="1.5"/>
<text x="293" y="95" text-anchor="start" font-family="Arial,sans-serif" font-size="14" fill="#1a1a1a">Lycaons</text>
<rect x="265" y="118" width="20" height="20" fill="url(#p_p1dot)" stroke="#1a1a1a" stroke-width="1.5"/>
<text x="293" y="133" text-anchor="start" font-family="Arial,sans-serif" font-size="14" fill="#1a1a1a">Zèbres</text>
<rect x="265" y="156" width="20" height="20" fill="url(#p_p4hatch)" stroke="#1a1a1a" stroke-width="1.5"/>
<text x="293" y="171" text-anchor="start" font-family="Arial,sans-serif" font-size="14" fill="#1a1a1a">Guépards</text>
<rect x="265" y="194" width="20" height="20" fill="url(#p_p2dot)" stroke="#1a1a1a" stroke-width="1.5"/>
<text x="293" y="209" text-anchor="start" font-family="Arial,sans-serif" font-size="14" fill="#1a1a1a">Servals</text>
</svg>