<svg xmlns="http://www.w3.org/2000/svg" viewBox="0 0 340 160" width="340" height="160">
<defs>
<pattern id="h1" patternUnits="userSpaceOnUse" width="8" height="8"><rect width="8" height="8" fill="white"/><line x1="0" y1="8" x2="8" y2="0" stroke="#D36740" stroke-width="1.8"/></pattern>
<pattern id="h2" patternUnits="userSpaceOnUse" width="8" height="8"><rect width="8" height="8" fill="white"/><line x1="0" y1="8" x2="8" y2="0" stroke="#C5607A" stroke-width="1.8"/></pattern>
<pattern id="h3" patternUnits="userSpaceOnUse" width="8" height="8"><rect width="8" height="8" fill="white"/><line x1="0" y1="8" x2="8" y2="0" stroke="#8b1f30" stroke-width="1.8"/></pattern>
</defs>
<line x1="44.2" y1="12" x2="44.2" y2="130" stroke="#888888" stroke-width="0.8" stroke-dasharray="4,3"/>
<line x1="70.4" y1="12" x2="70.4" y2="130" stroke="#888888" stroke-width="0.8" stroke-dasharray="4,3"/>
<line x1="96.6" y1="12" x2="96.6" y2="130" stroke="#888888" stroke-width="0.8" stroke-dasharray="4,3"/>
<line x1="122.8" y1="12" x2="122.8" y2="130" stroke="#888888" stroke-width="0.8" stroke-dasharray="4,3"/>
<line x1="149.0" y1="12" x2="149.0" y2="130" stroke="#888888" stroke-width="0.8" stroke-dasharray="4,3"/>
<line x1="175.2" y1="12" x2="175.2" y2="130" stroke="#888888" stroke-width="0.8" stroke-dasharray="4,3"/>
<line x1="201.4" y1="12" x2="201.4" y2="130" stroke="#888888" stroke-width="0.8" stroke-dasharray="4,3"/>
<line x1="227.6" y1="12" x2="227.6" y2="130" stroke="#888888" stroke-width="0.8" stroke-dasharray="4,3"/>
<line x1="253.8" y1="12" x2="253.8" y2="130" stroke="#888888" stroke-width="0.8" stroke-dasharray="4,3"/>
<line x1="280.0" y1="12" x2="280.0" y2="130" stroke="#888888" stroke-width="0.8" stroke-dasharray="4,3"/>
<rect x="18.0" y="21.0" width="262.0" height="28" fill="url(#h1)" stroke="#D36740" stroke-width="1.2"/>
<rect x="18.0" y="57.0" width="52.4" height="28" fill="url(#h2)" stroke="#C5607A" stroke-width="1.2"/>
<rect x="18.0" y="93.0" width="157.2" height="28" fill="url(#h3)" stroke="#8b1f30" stroke-width="1.2"/>
<line x1="18" y1="12" x2="18" y2="130" stroke="#333333" stroke-width="1.8"/>
<line x1="18" y1="130" x2="280" y2="130" stroke="#333333" stroke-width="1.8"/>
<line x1="44.2" y1="130" x2="44.2" y2="134" stroke="#333333" stroke-width="1"/>
<text x="44.2" y="144" text-anchor="middle" font-family="Arial,sans-serif" font-size="11" fill="#1a1a1a">1</text>
<line x1="70.4" y1="130" x2="70.4" y2="134" stroke="#333333" stroke-width="1"/>
<text x="70.4" y="144" text-anchor="middle" font-family="Arial,sans-serif" font-size="11" fill="#1a1a1a">2</text>
<line x1="96.6" y1="130" x2="96.6" y2="134" stroke="#333333" stroke-width="1"/>
<text x="96.6" y="144" text-anchor="middle" font-family="Arial,sans-serif" font-size="11" fill="#1a1a1a">3</text>
<line x1="122.8" y1="130" x2="122.8" y2="134" stroke="#333333" stroke-width="1"/>
<text x="122.8" y="144" text-anchor="middle" font-family="Arial,sans-serif" font-size="11" fill="#1a1a1a">4</text>
<line x1="149.0" y1="130" x2="149.0" y2="134" stroke="#333333" stroke-width="1"/>
<text x="149.0" y="144" text-anchor="middle" font-family="Arial,sans-serif" font-size="11" fill="#1a1a1a">5</text>
<line x1="175.2" y1="130" x2="175.2" y2="134" stroke="#333333" stroke-width="1"/>
<text x="175.2" y="144" text-anchor="middle" font-family="Arial,sans-serif" font-size="11" fill="#1a1a1a">6</text>
<line x1="201.4" y1="130" x2="201.4" y2="134" stroke="#333333" stroke-width="1"/>
<text x="201.4" y="144" text-anchor="middle" font-family="Arial,sans-serif" font-size="11" fill="#1a1a1a">7</text>
<line x1="227.6" y1="130" x2="227.6" y2="134" stroke="#333333" stroke-width="1"/>
<text x="227.6" y="144" text-anchor="middle" font-family="Arial,sans-serif" font-size="11" fill="#1a1a1a">8</text>
<line x1="253.8" y1="130" x2="253.8" y2="134" stroke="#333333" stroke-width="1"/>
<text x="253.8" y="144" text-anchor="middle" font-family="Arial,sans-serif" font-size="11" fill="#1a1a1a">9</text>
<line x1="280.0" y1="130" x2="280.0" y2="134" stroke="#333333" stroke-width="1"/>
<text x="280.0" y="144" text-anchor="middle" font-family="Arial,sans-serif" font-size="11" fill="#1a1a1a">10</text>
<text x="286" y="144" text-anchor="start" font-family="Arial,sans-serif" font-size="11" fill="#1a1a1a" font-style="italic">vêtements</text>
</svg>