<svg xmlns="http://www.w3.org/2000/svg" viewBox="0 0 280 240" width="280" height="240">
<rect width="280" height="240" fill="#FDF5F0" rx="8"/>
<text x="140.0" y="20" text-anchor="middle" font-family="Arial,sans-serif" font-size="12" fill="#8b1f30" font-weight="bold">Parc de Cigel — espèces animales</text>
<path d="M 120 125 L 120.00 40.00 A 85 85 0 0 1 169.96 193.77 Z" fill="#D36740" stroke="white" stroke-width="2"/>
<text x="172.54587252530723" y="107.92681106078416" text-anchor="middle" font-family="Arial,sans-serif" font-size="10" fill="white" font-weight="bold">40%</text>
<path d="M 120 125 L 169.96 193.77 A 85 85 0 0 1 51.23 174.96 Z" fill="#758467" stroke="white" stroke-width="2"/>
<text x="111.35699580652725" y="179.56978081788137" text-anchor="middle" font-family="Arial,sans-serif" font-size="10" fill="white" font-weight="bold">25%</text>
<path d="M 120 125 L 51.23 174.96 A 85 85 0 0 1 51.23 75.04 Z" fill="#C5607A" stroke="white" stroke-width="2"/>
<text x="64.75" y="125.0" text-anchor="middle" font-family="Arial,sans-serif" font-size="10" fill="white" font-weight="bold">20%</text>
<path d="M 120 125 L 51.23 75.04 A 85 85 0 0 1 120.00 40.00 Z" fill="#4A5D7A" stroke="white" stroke-width="2"/>
<text x="94.91702488939004" y="75.77188953859269" text-anchor="middle" font-family="Arial,sans-serif" font-size="10" fill="white" font-weight="bold">15%</text>
<rect x="210" y="60" width="12" height="12" fill="#D36740" rx="2"/>
<text x="226" y="70" text-anchor="start" font-family="Arial,sans-serif" font-size="9" fill="#2D2226" font-weight="normal">Zèbres</text>
<rect x="210" y="88" width="12" height="12" fill="#758467" rx="2"/>
<text x="226" y="98" text-anchor="start" font-family="Arial,sans-serif" font-size="9" fill="#2D2226" font-weight="normal">Lions</text>
<rect x="210" y="116" width="12" height="12" fill="#C5607A" rx="2"/>
<text x="226" y="126" text-anchor="start" font-family="Arial,sans-serif" font-size="9" fill="#2D2226" font-weight="normal">Éléphants</text>
<rect x="210" y="144" width="12" height="12" fill="#4A5D7A" rx="2"/>
<text x="226" y="154" text-anchor="start" font-family="Arial,sans-serif" font-size="9" fill="#2D2226" font-weight="normal">Antilopes</text>
</svg>