<svg xmlns="http://www.w3.org/2000/svg" viewBox="0 0 310 310" width="310" height="310">
<text x="12" y="135" text-anchor="middle" font-family="Arial,sans-serif" font-size="12" fill="#1a1a1a" transform="rotate(-90,12,135)">Nombre d'individus</text>
<line x1="50" y1="211.0" x2="290" y2="211.0" stroke="#888888" stroke-width="0.8" stroke-dasharray="5,4"/>
<line x1="46" y1="211.0" x2="50" y2="211.0" stroke="#333333" stroke-width="1"/>
<text x="43" y="215.0" text-anchor="end" font-family="Arial,sans-serif" font-size="11" fill="#1a1a1a">10</text>
<line x1="50" y1="192.0" x2="290" y2="192.0" stroke="#888888" stroke-width="0.8" stroke-dasharray="5,4"/>
<line x1="46" y1="192.0" x2="50" y2="192.0" stroke="#333333" stroke-width="1"/>
<text x="43" y="196.0" text-anchor="end" font-family="Arial,sans-serif" font-size="11" fill="#1a1a1a">20</text>
<line x1="50" y1="173.0" x2="290" y2="173.0" stroke="#888888" stroke-width="0.8" stroke-dasharray="5,4"/>
<line x1="46" y1="173.0" x2="50" y2="173.0" stroke="#333333" stroke-width="1"/>
<text x="43" y="177.0" text-anchor="end" font-family="Arial,sans-serif" font-size="11" fill="#1a1a1a">30</text>
<line x1="50" y1="154.0" x2="290" y2="154.0" stroke="#888888" stroke-width="0.8" stroke-dasharray="5,4"/>
<line x1="46" y1="154.0" x2="50" y2="154.0" stroke="#333333" stroke-width="1"/>
<text x="43" y="158.0" text-anchor="end" font-family="Arial,sans-serif" font-size="11" fill="#1a1a1a">40</text>
<line x1="50" y1="135.0" x2="290" y2="135.0" stroke="#888888" stroke-width="0.8" stroke-dasharray="5,4"/>
<line x1="46" y1="135.0" x2="50" y2="135.0" stroke="#333333" stroke-width="1"/>
<text x="43" y="139.0" text-anchor="end" font-family="Arial,sans-serif" font-size="11" fill="#1a1a1a">50</text>
<line x1="50" y1="116.0" x2="290" y2="116.0" stroke="#888888" stroke-width="0.8" stroke-dasharray="5,4"/>
<line x1="46" y1="116.0" x2="50" y2="116.0" stroke="#333333" stroke-width="1"/>
<text x="43" y="120.0" text-anchor="end" font-family="Arial,sans-serif" font-size="11" fill="#1a1a1a">60</text>
<line x1="50" y1="97.0" x2="290" y2="97.0" stroke="#888888" stroke-width="0.8" stroke-dasharray="5,4"/>
<line x1="46" y1="97.0" x2="50" y2="97.0" stroke="#333333" stroke-width="1"/>
<text x="43" y="101.0" text-anchor="end" font-family="Arial,sans-serif" font-size="11" fill="#1a1a1a">70</text>
<line x1="50" y1="78.0" x2="290" y2="78.0" stroke="#888888" stroke-width="0.8" stroke-dasharray="5,4"/>
<line x1="46" y1="78.0" x2="50" y2="78.0" stroke="#333333" stroke-width="1"/>
<text x="43" y="82.0" text-anchor="end" font-family="Arial,sans-serif" font-size="11" fill="#1a1a1a">80</text>
<line x1="50" y1="59.0" x2="290" y2="59.0" stroke="#888888" stroke-width="0.8" stroke-dasharray="5,4"/>
<line x1="46" y1="59.0" x2="50" y2="59.0" stroke="#333333" stroke-width="1"/>
<text x="43" y="63.0" text-anchor="end" font-family="Arial,sans-serif" font-size="11" fill="#1a1a1a">90</text>
<line x1="50" y1="40" x2="50" y2="230" stroke="#333333" stroke-width="2"/>
<line x1="50" y1="230" x2="290" y2="230" stroke="#333333" stroke-width="2"/>
<line x1="50.0" y1="169.2" x2="130.0" y2="205.3" stroke="#aaaaaa" stroke-width="1.5"/>
<line x1="130.0" y1="205.3" x2="210.0" y2="178.7" stroke="#aaaaaa" stroke-width="1.5"/>
<line x1="210.0" y1="178.7" x2="290.0" y2="55.2" stroke="#aaaaaa" stroke-width="1.5"/>
<circle cx="50.0" cy="169.2" r="6" fill="#D36740" stroke="#8b1f30" stroke-width="1.2"/>
<circle cx="130.0" cy="205.3" r="6" fill="#D36740" stroke="#8b1f30" stroke-width="1.2"/>
<circle cx="210.0" cy="178.7" r="6" fill="#D36740" stroke="#8b1f30" stroke-width="1.2"/>
<circle cx="290.0" cy="55.2" r="6" fill="#D36740" stroke="#8b1f30" stroke-width="1.2"/>
<text x="50.0" y="236" text-anchor="end" font-family="Arial,sans-serif" font-size="11" fill="#1a1a1a" transform="rotate(-45,50.0,236)">Gazelles</text>
<text x="130.0" y="236" text-anchor="end" font-family="Arial,sans-serif" font-size="11" fill="#1a1a1a" transform="rotate(-45,130.0,236)">Crocodiles</text>
<text x="210.0" y="236" text-anchor="end" font-family="Arial,sans-serif" font-size="11" fill="#1a1a1a" transform="rotate(-45,210.0,236)">Hyènes</text>
<text x="290.0" y="236" text-anchor="end" font-family="Arial,sans-serif" font-size="11" fill="#1a1a1a" transform="rotate(-45,290.0,236)">Girafes</text>
</svg>