<svg xmlns="http://www.w3.org/2000/svg" viewBox="0 0 340 240" width="340" height="240">
<rect width="340" height="240" fill="#FDF5F0" rx="8"/>
<text x="170.0" y="22" text-anchor="middle" font-family="Arial,sans-serif" font-size="12" fill="#8b1f30" font-weight="bold">Vêtements dans l'armoire de Rémi</text>
<line x1="45" y1="36" x2="45" y2="180" stroke="#6B5D62" stroke-width="1.5"/>
<line x1="45" y1="180" x2="320" y2="180" stroke="#6B5D62" stroke-width="1.5"/>
<line x1="41" y1="180.0" x2="45" y2="180.0" stroke="#6B5D62" stroke-width="1"/>
<line x1="45" y1="180.0" x2="320" y2="180.0" stroke="#E8E0D8" stroke-width="0.5" stroke-dasharray="3,3"/>
<text x="39" y="184.0" text-anchor="end" font-family="Arial,sans-serif" font-size="10" fill="#6B5D62" font-weight="normal">0</text>
<line x1="41" y1="156.0" x2="45" y2="156.0" stroke="#6B5D62" stroke-width="1"/>
<line x1="45" y1="156.0" x2="320" y2="156.0" stroke="#E8E0D8" stroke-width="0.5" stroke-dasharray="3,3"/>
<text x="39" y="160.0" text-anchor="end" font-family="Arial,sans-serif" font-size="10" fill="#6B5D62" font-weight="normal">2</text>
<line x1="41" y1="132.0" x2="45" y2="132.0" stroke="#6B5D62" stroke-width="1"/>
<line x1="45" y1="132.0" x2="320" y2="132.0" stroke="#E8E0D8" stroke-width="0.5" stroke-dasharray="3,3"/>
<text x="39" y="136.0" text-anchor="end" font-family="Arial,sans-serif" font-size="10" fill="#6B5D62" font-weight="normal">4</text>
<line x1="41" y1="108.0" x2="45" y2="108.0" stroke="#6B5D62" stroke-width="1"/>
<line x1="45" y1="108.0" x2="320" y2="108.0" stroke="#E8E0D8" stroke-width="0.5" stroke-dasharray="3,3"/>
<text x="39" y="112.0" text-anchor="end" font-family="Arial,sans-serif" font-size="10" fill="#6B5D62" font-weight="normal">6</text>
<line x1="41" y1="84.0" x2="45" y2="84.0" stroke="#6B5D62" stroke-width="1"/>
<line x1="45" y1="84.0" x2="320" y2="84.0" stroke="#E8E0D8" stroke-width="0.5" stroke-dasharray="3,3"/>
<text x="39" y="88.0" text-anchor="end" font-family="Arial,sans-serif" font-size="10" fill="#6B5D62" font-weight="normal">8</text>
<line x1="41" y1="60.0" x2="45" y2="60.0" stroke="#6B5D62" stroke-width="1"/>
<line x1="45" y1="60.0" x2="320" y2="60.0" stroke="#E8E0D8" stroke-width="0.5" stroke-dasharray="3,3"/>
<text x="39" y="64.0" text-anchor="end" font-family="Arial,sans-serif" font-size="10" fill="#6B5D62" font-weight="normal">10</text>
<line x1="41" y1="36.0" x2="45" y2="36.0" stroke="#6B5D62" stroke-width="1"/>
<line x1="45" y1="36.0" x2="320" y2="36.0" stroke="#E8E0D8" stroke-width="0.5" stroke-dasharray="3,3"/>
<text x="39" y="40.0" text-anchor="end" font-family="Arial,sans-serif" font-size="10" fill="#6B5D62" font-weight="normal">12</text>
<text x="12" y="108" text-anchor="middle" font-family="Arial,sans-serif" font-size="10" fill="#6B5D62" transform="rotate(-90, 12, 108)">Effectif</text>
<rect x="67.9" y="108.0" width="45.8" height="72.0" fill="#D36740" rx="2" opacity="0.85"/>
<text x="90.83333333333334" y="105.0" text-anchor="middle" font-family="Arial,sans-serif" font-size="10" fill="#8b1f30" font-weight="bold">6</text>
<text x="90.83333333333334" y="194" text-anchor="middle" font-family="Arial,sans-serif" font-size="10" fill="#2D2226" font-weight="normal">Chemises</text>
<rect x="159.6" y="156.0" width="45.8" height="24.0" fill="#D36740" rx="2" opacity="0.85"/>
<text x="182.5" y="153.0" text-anchor="middle" font-family="Arial,sans-serif" font-size="10" fill="#8b1f30" font-weight="bold">2</text>
<text x="182.5" y="194" text-anchor="middle" font-family="Arial,sans-serif" font-size="10" fill="#2D2226" font-weight="normal">T-shirts</text>
<rect x="251.2" y="60.0" width="45.8" height="120.0" fill="#D36740" rx="2" opacity="0.85"/>
<text x="274.1666666666667" y="57.0" text-anchor="middle" font-family="Arial,sans-serif" font-size="10" fill="#8b1f30" font-weight="bold">10</text>
<text x="274.1666666666667" y="194" text-anchor="middle" font-family="Arial,sans-serif" font-size="10" fill="#2D2226" font-weight="normal">Pulls</text>
</svg>