<svg xmlns="http://www.w3.org/2000/svg" viewBox="0 0 310 310" width="310" height="310">
<defs>
<pattern id="b_p1" patternUnits="userSpaceOnUse" width="8" height="8"><rect width="8" height="8" fill="white"/><line x1="0" y1="8" x2="8" y2="0" stroke="#D36740" stroke-width="2"/></pattern>
<pattern id="b_p4" patternUnits="userSpaceOnUse" width="8" height="8"><rect width="8" height="8" fill="white"/><line x1="0" y1="8" x2="8" y2="0" stroke="#758467" stroke-width="2"/></pattern>
<pattern id="b_p2" patternUnits="userSpaceOnUse" width="8" height="8"><rect width="8" height="8" fill="white"/><line x1="0" y1="8" x2="8" y2="0" stroke="#C5607A" stroke-width="2"/></pattern>
<pattern id="b_p3" patternUnits="userSpaceOnUse" width="8" height="8"><rect width="8" height="8" fill="white"/><line x1="0" y1="8" x2="8" y2="0" stroke="#8b1f30" stroke-width="2"/></pattern>
</defs>
<text x="12" y="130" text-anchor="middle" font-family="Arial,sans-serif" font-size="12" fill="#1a1a1a" transform="rotate(-90,12,130)">Nombre d'individus</text>
<line x1="50" y1="180.0" x2="290" y2="180.0" stroke="#888888" stroke-width="0.8" stroke-dasharray="5,4"/>
<line x1="46" y1="180.0" x2="50" y2="180.0" stroke="#333333" stroke-width="1"/>
<text x="43" y="184.0" text-anchor="end" font-family="Arial,sans-serif" font-size="11" fill="#1a1a1a">10</text>
<line x1="50" y1="130.0" x2="290" y2="130.0" stroke="#888888" stroke-width="0.8" stroke-dasharray="5,4"/>
<line x1="46" y1="130.0" x2="50" y2="130.0" stroke="#333333" stroke-width="1"/>
<text x="43" y="134.0" text-anchor="end" font-family="Arial,sans-serif" font-size="11" fill="#1a1a1a">20</text>
<line x1="50" y1="80.0" x2="290" y2="80.0" stroke="#888888" stroke-width="0.8" stroke-dasharray="5,4"/>
<line x1="46" y1="80.0" x2="50" y2="80.0" stroke="#333333" stroke-width="1"/>
<text x="43" y="84.0" text-anchor="end" font-family="Arial,sans-serif" font-size="11" fill="#1a1a1a">30</text>
<line x1="50" y1="30.0" x2="290" y2="30.0" stroke="#888888" stroke-width="0.8" stroke-dasharray="5,4"/>
<line x1="46" y1="30.0" x2="50" y2="30.0" stroke="#333333" stroke-width="1"/>
<text x="43" y="34.0" text-anchor="end" font-family="Arial,sans-serif" font-size="11" fill="#1a1a1a">40</text>
<line x1="50" y1="30" x2="50" y2="230" stroke="#333333" stroke-width="2"/>
<line x1="50" y1="230" x2="290" y2="230" stroke="#333333" stroke-width="2"/>
<rect x="63.5" y="40.0" width="33.0" height="190.0" fill="url(#b_p1)" stroke="#D36740" stroke-width="1.2"/>
<text x="80.0" y="236" text-anchor="end" font-family="Arial,sans-serif" font-size="11" fill="#1a1a1a" transform="rotate(-45,80.0,236)">Lycaons</text>
<rect x="123.5" y="115.0" width="33.0" height="115.0" fill="url(#b_p4)" stroke="#758467" stroke-width="1.2"/>
<text x="140.0" y="236" text-anchor="end" font-family="Arial,sans-serif" font-size="11" fill="#1a1a1a" transform="rotate(-45,140.0,236)">Girafes</text>
<rect x="183.5" y="185.0" width="33.0" height="45.0" fill="url(#b_p2)" stroke="#C5607A" stroke-width="1.2"/>
<text x="200.0" y="236" text-anchor="end" font-family="Arial,sans-serif" font-size="11" fill="#1a1a1a" transform="rotate(-45,200.0,236)">Servals</text>
<rect x="243.5" y="155.0" width="33.0" height="75.0" fill="url(#b_p3)" stroke="#8b1f30" stroke-width="1.2"/>
<text x="260.0" y="236" text-anchor="end" font-family="Arial,sans-serif" font-size="11" fill="#1a1a1a" transform="rotate(-45,260.0,236)">Hyènes</text>
</svg>