<svg xmlns="http://www.w3.org/2000/svg" viewBox="0 0 340 240" width="340" height="240">
<rect width="340" height="240" fill="#FDF5F0" rx="8"/>
<text x="170.0" y="22" text-anchor="middle" font-family="Arial,sans-serif" font-size="12" fill="#8b1f30" font-weight="bold">Parc de Barmwich — espèces animales</text>
<line x1="45" y1="36" x2="45" y2="180" stroke="#6B5D62" stroke-width="1.5"/>
<line x1="45" y1="180" x2="320" y2="180" stroke="#6B5D62" stroke-width="1.5"/>
<line x1="41" y1="180.0" x2="45" y2="180.0" stroke="#6B5D62" stroke-width="1"/>
<line x1="45" y1="180.0" x2="320" y2="180.0" stroke="#E8E0D8" stroke-width="0.5" stroke-dasharray="3,3"/>
<text x="39" y="184.0" text-anchor="end" font-family="Arial,sans-serif" font-size="10" fill="#6B5D62" font-weight="normal">0</text>
<line x1="41" y1="152.57142857142858" x2="45" y2="152.57142857142858" stroke="#6B5D62" stroke-width="1"/>
<line x1="45" y1="152.57142857142858" x2="320" y2="152.57142857142858" stroke="#E8E0D8" stroke-width="0.5" stroke-dasharray="3,3"/>
<text x="39" y="156.57142857142858" text-anchor="end" font-family="Arial,sans-serif" font-size="10" fill="#6B5D62" font-weight="normal">8</text>
<line x1="41" y1="125.14285714285714" x2="45" y2="125.14285714285714" stroke="#6B5D62" stroke-width="1"/>
<line x1="45" y1="125.14285714285714" x2="320" y2="125.14285714285714" stroke="#E8E0D8" stroke-width="0.5" stroke-dasharray="3,3"/>
<text x="39" y="129.14285714285714" text-anchor="end" font-family="Arial,sans-serif" font-size="10" fill="#6B5D62" font-weight="normal">16</text>
<line x1="41" y1="97.71428571428572" x2="45" y2="97.71428571428572" stroke="#6B5D62" stroke-width="1"/>
<line x1="45" y1="97.71428571428572" x2="320" y2="97.71428571428572" stroke="#E8E0D8" stroke-width="0.5" stroke-dasharray="3,3"/>
<text x="39" y="101.71428571428572" text-anchor="end" font-family="Arial,sans-serif" font-size="10" fill="#6B5D62" font-weight="normal">24</text>
<line x1="41" y1="70.28571428571429" x2="45" y2="70.28571428571429" stroke="#6B5D62" stroke-width="1"/>
<line x1="45" y1="70.28571428571429" x2="320" y2="70.28571428571429" stroke="#E8E0D8" stroke-width="0.5" stroke-dasharray="3,3"/>
<text x="39" y="74.28571428571429" text-anchor="end" font-family="Arial,sans-serif" font-size="10" fill="#6B5D62" font-weight="normal">32</text>
<line x1="41" y1="42.85714285714286" x2="45" y2="42.85714285714286" stroke="#6B5D62" stroke-width="1"/>
<line x1="45" y1="42.85714285714286" x2="320" y2="42.85714285714286" stroke="#E8E0D8" stroke-width="0.5" stroke-dasharray="3,3"/>
<text x="39" y="46.85714285714286" text-anchor="end" font-family="Arial,sans-serif" font-size="10" fill="#6B5D62" font-weight="normal">40</text>
<text x="12" y="108" text-anchor="middle" font-family="Arial,sans-serif" font-size="10" fill="#6B5D62" transform="rotate(-90, 12, 108)">Effectif</text>
<rect x="62.2" y="49.7" width="34.4" height="130.3" fill="#D36740" rx="2" opacity="0.85"/>
<text x="79.375" y="46.71428571428572" text-anchor="middle" font-family="Arial,sans-serif" font-size="10" fill="#8b1f30" font-weight="bold">38</text>
<text x="79.375" y="194" text-anchor="middle" font-family="Arial,sans-serif" font-size="10" fill="#2D2226" font-weight="normal">Lycaons</text>
<rect x="130.9" y="101.1" width="34.4" height="78.9" fill="#D36740" rx="2" opacity="0.85"/>
<text x="148.125" y="98.14285714285714" text-anchor="middle" font-family="Arial,sans-serif" font-size="10" fill="#8b1f30" font-weight="bold">23</text>
<text x="148.125" y="194" text-anchor="middle" font-family="Arial,sans-serif" font-size="10" fill="#2D2226" font-weight="normal">Girafes</text>
<rect x="199.7" y="128.6" width="34.4" height="51.4" fill="#D36740" rx="2" opacity="0.85"/>
<text x="216.875" y="125.57142857142856" text-anchor="middle" font-family="Arial,sans-serif" font-size="10" fill="#8b1f30" font-weight="bold">15</text>
<text x="216.875" y="194" text-anchor="middle" font-family="Arial,sans-serif" font-size="10" fill="#2D2226" font-weight="normal">Hyènes</text>
<rect x="268.4" y="149.1" width="34.4" height="30.9" fill="#D36740" rx="2" opacity="0.85"/>
<text x="285.625" y="146.14285714285714" text-anchor="middle" font-family="Arial,sans-serif" font-size="10" fill="#8b1f30" font-weight="bold">9</text>
<text x="285.625" y="194" text-anchor="middle" font-family="Arial,sans-serif" font-size="10" fill="#2D2226" font-weight="normal">Servals</text>
</svg>