<?xml version="1.0" encoding="UTF-8"?>
<svg xmlns="http://www.w3.org/2000/svg" xmlns:xlink="http://www.w3.org/1999/xlink" width="103.596pt" height="86.588pt" viewBox="0 0 103.596 86.588">
<defs>
<clipPath id="clip-0">
<path clip-rule="nonzero" d="M 0 0 L 103.597656 0 L 103.597656 86 L 0 86 Z M 0 0 "/>
</clipPath>
<clipPath id="clip-1">
<path clip-rule="nonzero" d="M 90 48 L 103.597656 48 L 103.597656 64 L 90 64 Z M 90 48 "/>
</clipPath>
</defs>
<g clip-path="url(#clip-0)">
<path fill="none" stroke-width="0.3985" stroke-linecap="butt" stroke-linejoin="miter" stroke="rgb(0%, 0%, 0%)" stroke-opacity="1" stroke-miterlimit="10" d="M 5.668406 5.669469 L 102.047313 5.669469 L 102.047313 53.856969 L 61.512156 83.622594 Z M 5.668406 5.669469 " transform="matrix(1, 0, 0, -1, -3.477, 85.814)"/>
</g>
<path fill="none" stroke-width="0.3985" stroke-linecap="butt" stroke-linejoin="miter" stroke="rgb(0%, 0%, 0%)" stroke-opacity="1" stroke-miterlimit="10" d="M 63.586375 75.880406 L 68.496531 73.044469 L 65.6645 68.134312 L 60.754344 70.97025 Z M 63.586375 75.880406 " transform="matrix(1, 0, 0, -1, -3.477, 85.814)"/>
<path fill="none" stroke-width="0.3985" stroke-linecap="butt" stroke-linejoin="miter" stroke="rgb(0%, 0%, 0%)" stroke-opacity="1" stroke-miterlimit="10" d="M 96.379344 11.337437 L 90.711375 11.337437 L 90.711375 17.009312 L 96.379344 17.009312 Z M 96.379344 11.337437 " transform="matrix(1, 0, 0, -1, -3.477, 85.814)"/>
<path fill="none" stroke-width="0.3985" stroke-linecap="butt" stroke-linejoin="miter" stroke="rgb(0%, 0%, 0%)" stroke-opacity="1" stroke-miterlimit="10" d="M 77.953563 68.03275 L 83.621531 73.700719 " transform="matrix(1, 0, 0, -1, -3.477, 85.814)"/>
<g clip-path="url(#clip-1)">
<path fill="none" stroke-width="0.3985" stroke-linecap="butt" stroke-linejoin="miter" stroke="rgb(0%, 0%, 0%)" stroke-opacity="1" stroke-miterlimit="10" d="M 99.215281 28.34525 L 104.88325 31.181187 " transform="matrix(1, 0, 0, -1, -3.477, 85.814)"/>
</g>
<path fill="none" stroke-width="0.3985" stroke-linecap="butt" stroke-linejoin="miter" stroke="rgb(0%, 0%, 0%)" stroke-opacity="1" stroke-miterlimit="10" d="M 56.691844 1.415562 L 56.691844 9.923375 " transform="matrix(1, 0, 0, -1, -3.477, 85.814)"/>
<path fill="none" stroke-width="0.3985" stroke-linecap="butt" stroke-linejoin="miter" stroke="rgb(0%, 0%, 0%)" stroke-opacity="1" stroke-miterlimit="10" d="M 59.527781 1.415562 L 59.527781 9.923375 " transform="matrix(1, 0, 0, -1, -3.477, 85.814)"/>
<path fill="none" stroke-width="0.3985" stroke-linecap="butt" stroke-linejoin="miter" stroke="rgb(0%, 0%, 0%)" stroke-opacity="1" stroke-miterlimit="10" d="M 32.598094 51.024937 L 38.269969 45.356969 " transform="matrix(1, 0, 0, -1, -3.477, 85.814)"/>
<path fill="none" stroke-width="0.3985" stroke-linecap="butt" stroke-linejoin="miter" stroke="rgb(0%, 0%, 0%)" stroke-opacity="1" stroke-miterlimit="10" d="M 34.016062 53.856969 L 39.684031 48.189 " transform="matrix(1, 0, 0, -1, -3.477, 85.814)"/>
</svg>
