<?xml version="1.0" encoding="UTF-8"?>
<svg xmlns="http://www.w3.org/2000/svg" xmlns:xlink="http://www.w3.org/1999/xlink" width="131.995pt" height="64.926pt" viewBox="0 0 131.995 64.926" version="1.2">
<defs>
<clipPath id="clip1">
  <path d="M 87 31 L 131.917969 31 L 131.917969 64.851562 L 87 64.851562 Z M 87 31 "/>
</clipPath>
<clipPath id="clip2">
  <path d="M 0.0742188 0 L 45 0 L 45 34 L 0.0742188 34 Z M 0.0742188 0 "/>
</clipPath>
<clipPath id="clip3">
  <path d="M 87 0 L 131.917969 0 L 131.917969 34 L 87 34 Z M 87 0 "/>
</clipPath>
<clipPath id="clip4">
  <path d="M 0.0742188 0 L 131.917969 0 L 131.917969 34 L 0.0742188 34 Z M 0.0742188 0 "/>
</clipPath>
<clipPath id="clip5">
  <path d="M 87 0 L 131.917969 0 L 131.917969 64.851562 L 87 64.851562 Z M 87 0 "/>
</clipPath>
<clipPath id="clip6">
  <path d="M 0.0742188 31 L 45 31 L 45 64.851562 L 0.0742188 64.851562 Z M 0.0742188 31 "/>
</clipPath>
</defs>
<g id="surface1">
<path style="fill:none;stroke-width:0.79701;stroke-linecap:butt;stroke-linejoin:miter;stroke:rgb(0%,0%,0%);stroke-opacity:1;stroke-miterlimit:10;" d="M 24.548962 14.17281 L 24.548962 48.188097 L 115.2577 48.188097 L 115.2577 14.17281 Z M 24.548962 14.17281 " transform="matrix(0.998862,0,0,-0.998862,8.432111,56.492612)"/>
<path style="fill-rule:nonzero;fill:rgb(78.823853%,85.174561%,54.824829%);fill-opacity:1;stroke-width:0.79701;stroke-linecap:butt;stroke-linejoin:miter;stroke:rgb(0%,0%,0%);stroke-opacity:1;stroke-miterlimit:10;" d="M 0.00148476 0.000425015 L 0.00148476 34.015713 L 90.710222 34.015713 L 90.710222 0.000425015 Z M 0.00148476 0.000425015 " transform="matrix(0.998862,0,0,-0.998862,8.432111,56.492612)"/>
<g clip-path="url(#clip1)" clip-rule="nonzero">
<path style="fill:none;stroke-width:0.79701;stroke-linecap:butt;stroke-linejoin:miter;stroke:rgb(0%,0%,0%);stroke-opacity:1;stroke-miterlimit:10;" d="M 90.710222 0.000425015 L 115.2577 14.17281 " transform="matrix(0.998862,0,0,-0.998862,8.432111,56.492612)"/>
</g>
<g clip-path="url(#clip2)" clip-rule="nonzero">
<path style="fill:none;stroke-width:0.79701;stroke-linecap:butt;stroke-linejoin:miter;stroke:rgb(0%,0%,0%);stroke-opacity:1;stroke-miterlimit:10;" d="M 0.00148476 34.015713 L 24.548962 48.188097 " transform="matrix(0.998862,0,0,-0.998862,8.432111,56.492612)"/>
</g>
<g clip-path="url(#clip3)" clip-rule="nonzero">
<path style="fill:none;stroke-width:0.79701;stroke-linecap:butt;stroke-linejoin:miter;stroke:rgb(0%,0%,0%);stroke-opacity:1;stroke-miterlimit:10;" d="M 90.710222 34.015713 L 115.2577 48.188097 " transform="matrix(0.998862,0,0,-0.998862,8.432111,56.492612)"/>
</g>
<path style=" stroke:none;fill-rule:nonzero;fill:rgb(89.646912%,64.234924%,55.056763%);fill-opacity:1;" d="M 8.433594 22.515625 L 32.953125 8.359375 L 123.558594 8.359375 L 99.039062 22.515625 Z M 8.433594 22.515625 "/>
<g clip-path="url(#clip4)" clip-rule="nonzero">
<path style="fill:none;stroke-width:0.79701;stroke-linecap:butt;stroke-linejoin:miter;stroke:rgb(0%,0%,0%);stroke-opacity:1;stroke-miterlimit:10;" d="M 0.00148476 34.015713 L 24.548962 48.188097 L 115.2577 48.188097 L 90.710222 34.015713 Z M 0.00148476 34.015713 " transform="matrix(0.998862,0,0,-0.998862,8.432111,56.492612)"/>
</g>
<path style=" stroke:none;fill-rule:nonzero;fill:rgb(76.235962%,87.057495%,95.292664%);fill-opacity:1;" d="M 99.039062 56.492188 L 123.558594 42.335938 L 123.558594 8.359375 L 99.039062 22.515625 Z M 99.039062 56.492188 "/>
<g clip-path="url(#clip5)" clip-rule="nonzero">
<path style="fill:none;stroke-width:0.79701;stroke-linecap:butt;stroke-linejoin:miter;stroke:rgb(0%,0%,0%);stroke-opacity:1;stroke-miterlimit:10;" d="M 90.710222 0.000425015 L 115.2577 14.17281 L 115.2577 48.188097 L 90.710222 34.015713 Z M 90.710222 0.000425015 " transform="matrix(0.998862,0,0,-0.998862,8.432111,56.492612)"/>
</g>
<g clip-path="url(#clip6)" clip-rule="nonzero">
<path style="fill:none;stroke-width:0.79701;stroke-linecap:butt;stroke-linejoin:miter;stroke:rgb(0%,0%,0%);stroke-opacity:1;stroke-dasharray:2.98883,2.98883;stroke-miterlimit:10;" d="M 0.00148476 0.000425015 L 24.548962 14.17281 " transform="matrix(0.998862,0,0,-0.998862,8.432111,56.492612)"/>
</g>
<path style="fill:none;stroke-width:0.79701;stroke-linecap:butt;stroke-linejoin:miter;stroke:rgb(0%,0%,0%);stroke-opacity:1;stroke-dasharray:2.98883,2.98883;stroke-miterlimit:10;" d="M 24.548962 14.17281 L 24.548962 48.188097 " transform="matrix(0.998862,0,0,-0.998862,8.432111,56.492612)"/>
<path style="fill:none;stroke-width:0.79701;stroke-linecap:butt;stroke-linejoin:miter;stroke:rgb(0%,0%,0%);stroke-opacity:1;stroke-dasharray:2.98883,2.98883;stroke-miterlimit:10;" d="M 24.548962 14.17281 L 115.2577 14.17281 " transform="matrix(0.998862,0,0,-0.998862,8.432111,56.492612)"/>
</g>
</svg>
