<svg xmlns="http://www.w3.org/2000/svg" viewBox="0 0 300 240" width="300" height="240">
<rect width="300" height="240" fill="#FDF5F0" rx="8"/>
<polygon points="140.0,171.0 160.0,159.0 140.0,147.0 120.0,159.0" fill="#F4C49A" stroke="#8b1f30" stroke-width="1"/>
<polygon points="140.0,195.0 120.0,183.0 120.0,159.0 140.0,171.0" fill="#C5875A" stroke="#8b1f30" stroke-width="1"/>
<polygon points="160.0,183.0 140.0,171.0 140.0,147.0 160.0,159.0" fill="#D9A882" stroke="#8b1f30" stroke-width="1"/>
<polygon points="140.0,147.0 160.0,135.0 140.0,123.0 120.0,135.0" fill="#F4C49A" stroke="#8b1f30" stroke-width="1"/>
<polygon points="140.0,171.0 120.0,159.0 120.0,135.0 140.0,147.0" fill="#C5875A" stroke="#8b1f30" stroke-width="1"/>
<polygon points="160.0,159.0 140.0,147.0 140.0,123.0 160.0,135.0" fill="#D9A882" stroke="#8b1f30" stroke-width="1"/>
<polygon points="140.0,123.0 160.0,111.0 140.0,99.0 120.0,111.0" fill="#F4C49A" stroke="#8b1f30" stroke-width="1"/>
<polygon points="140.0,147.0 120.0,135.0 120.0,111.0 140.0,123.0" fill="#C5875A" stroke="#8b1f30" stroke-width="1"/>
<polygon points="160.0,135.0 140.0,123.0 140.0,99.0 160.0,111.0" fill="#D9A882" stroke="#8b1f30" stroke-width="1"/>
<polygon points="120.0,159.0 140.0,147.0 120.0,135.0 100.0,147.0" fill="#F4C49A" stroke="#8b1f30" stroke-width="1"/>
<polygon points="120.0,183.0 100.0,171.0 100.0,147.0 120.0,159.0" fill="#C5875A" stroke="#8b1f30" stroke-width="1"/>
<polygon points="140.0,171.0 120.0,159.0 120.0,135.0 140.0,147.0" fill="#D9A882" stroke="#8b1f30" stroke-width="1"/>
<polygon points="120.0,135.0 140.0,123.0 120.0,111.0 100.0,123.0" fill="#F4C49A" stroke="#8b1f30" stroke-width="1"/>
<polygon points="120.0,159.0 100.0,147.0 100.0,123.0 120.0,135.0" fill="#C5875A" stroke="#8b1f30" stroke-width="1"/>
<polygon points="140.0,147.0 120.0,135.0 120.0,111.0 140.0,123.0" fill="#D9A882" stroke="#8b1f30" stroke-width="1"/>
<polygon points="120.0,111.0 140.0,99.0 120.0,87.0 100.0,99.0" fill="#F4C49A" stroke="#8b1f30" stroke-width="1"/>
<polygon points="120.0,135.0 100.0,123.0 100.0,99.0 120.0,111.0" fill="#C5875A" stroke="#8b1f30" stroke-width="1"/>
<polygon points="140.0,123.0 120.0,111.0 120.0,87.0 140.0,99.0" fill="#D9A882" stroke="#8b1f30" stroke-width="1"/>
<polygon points="100.0,147.0 120.0,135.0 100.0,123.0 80.0,135.0" fill="#F4C49A" stroke="#8b1f30" stroke-width="1"/>
<polygon points="100.0,171.0 80.0,159.0 80.0,135.0 100.0,147.0" fill="#C5875A" stroke="#8b1f30" stroke-width="1"/>
<polygon points="120.0,159.0 100.0,147.0 100.0,123.0 120.0,135.0" fill="#D9A882" stroke="#8b1f30" stroke-width="1"/>
<polygon points="100.0,123.0 120.0,111.0 100.0,99.0 80.0,111.0" fill="#F4C49A" stroke="#8b1f30" stroke-width="1"/>
<polygon points="100.0,147.0 80.0,135.0 80.0,111.0 100.0,123.0" fill="#C5875A" stroke="#8b1f30" stroke-width="1"/>
<polygon points="120.0,135.0 100.0,123.0 100.0,99.0 120.0,111.0" fill="#D9A882" stroke="#8b1f30" stroke-width="1"/>
<polygon points="100.0,99.0 120.0,87.0 100.0,75.0 80.0,87.0" fill="#F4C49A" stroke="#8b1f30" stroke-width="1"/>
<polygon points="100.0,123.0 80.0,111.0 80.0,87.0 100.0,99.0" fill="#C5875A" stroke="#8b1f30" stroke-width="1"/>
<polygon points="120.0,111.0 100.0,99.0 100.0,75.0 120.0,87.0" fill="#D9A882" stroke="#8b1f30" stroke-width="1"/>
<polygon points="80.0,135.0 100.0,123.0 80.0,111.0 60.0,123.0" fill="#F4C49A" stroke="#8b1f30" stroke-width="1"/>
<polygon points="80.0,159.0 60.0,147.0 60.0,123.0 80.0,135.0" fill="#C5875A" stroke="#8b1f30" stroke-width="1"/>
<polygon points="100.0,147.0 80.0,135.0 80.0,111.0 100.0,123.0" fill="#D9A882" stroke="#8b1f30" stroke-width="1"/>
<polygon points="80.0,111.0 100.0,99.0 80.0,87.0 60.0,99.0" fill="#F4C49A" stroke="#8b1f30" stroke-width="1"/>
<polygon points="80.0,135.0 60.0,123.0 60.0,99.0 80.0,111.0" fill="#C5875A" stroke="#8b1f30" stroke-width="1"/>
<polygon points="100.0,123.0 80.0,111.0 80.0,87.0 100.0,99.0" fill="#D9A882" stroke="#8b1f30" stroke-width="1"/>
<polygon points="80.0,87.0 100.0,75.0 80.0,63.0 60.0,75.0" fill="#F4C49A" stroke="#8b1f30" stroke-width="1"/>
<polygon points="80.0,111.0 60.0,99.0 60.0,75.0 80.0,87.0" fill="#C5875A" stroke="#8b1f30" stroke-width="1"/>
<polygon points="100.0,99.0 80.0,87.0 80.0,63.0 100.0,75.0" fill="#D9A882" stroke="#8b1f30" stroke-width="1"/>
<polygon points="160.0,159.0 180.0,147.0 160.0,135.0 140.0,147.0" fill="#F4C49A" stroke="#8b1f30" stroke-width="1"/>
<polygon points="160.0,183.0 140.0,171.0 140.0,147.0 160.0,159.0" fill="#C5875A" stroke="#8b1f30" stroke-width="1"/>
<polygon points="180.0,171.0 160.0,159.0 160.0,135.0 180.0,147.0" fill="#D9A882" stroke="#8b1f30" stroke-width="1"/>
<polygon points="160.0,135.0 180.0,123.0 160.0,111.0 140.0,123.0" fill="#F4C49A" stroke="#8b1f30" stroke-width="1"/>
<polygon points="160.0,159.0 140.0,147.0 140.0,123.0 160.0,135.0" fill="#C5875A" stroke="#8b1f30" stroke-width="1"/>
<polygon points="180.0,147.0 160.0,135.0 160.0,111.0 180.0,123.0" fill="#D9A882" stroke="#8b1f30" stroke-width="1"/>
<polygon points="160.0,111.0 180.0,99.0 160.0,87.0 140.0,99.0" fill="#F4C49A" stroke="#8b1f30" stroke-width="1"/>
<polygon points="160.0,135.0 140.0,123.0 140.0,99.0 160.0,111.0" fill="#C5875A" stroke="#8b1f30" stroke-width="1"/>
<polygon points="180.0,123.0 160.0,111.0 160.0,87.0 180.0,99.0" fill="#D9A882" stroke="#8b1f30" stroke-width="1"/>
<polygon points="140.0,147.0 160.0,135.0 140.0,123.0 120.0,135.0" fill="#F4C49A" stroke="#8b1f30" stroke-width="1"/>
<polygon points="140.0,171.0 120.0,159.0 120.0,135.0 140.0,147.0" fill="#C5875A" stroke="#8b1f30" stroke-width="1"/>
<polygon points="160.0,159.0 140.0,147.0 140.0,123.0 160.0,135.0" fill="#D9A882" stroke="#8b1f30" stroke-width="1"/>
<polygon points="140.0,123.0 160.0,111.0 140.0,99.0 120.0,111.0" fill="#F4C49A" stroke="#8b1f30" stroke-width="1"/>
<polygon points="140.0,147.0 120.0,135.0 120.0,111.0 140.0,123.0" fill="#C5875A" stroke="#8b1f30" stroke-width="1"/>
<polygon points="160.0,135.0 140.0,123.0 140.0,99.0 160.0,111.0" fill="#D9A882" stroke="#8b1f30" stroke-width="1"/>
<polygon points="140.0,99.0 160.0,87.0 140.0,75.0 120.0,87.0" fill="#F4C49A" stroke="#8b1f30" stroke-width="1"/>
<polygon points="140.0,123.0 120.0,111.0 120.0,87.0 140.0,99.0" fill="#C5875A" stroke="#8b1f30" stroke-width="1"/>
<polygon points="160.0,111.0 140.0,99.0 140.0,75.0 160.0,87.0" fill="#D9A882" stroke="#8b1f30" stroke-width="1"/>
<polygon points="120.0,135.0 140.0,123.0 120.0,111.0 100.0,123.0" fill="#F4C49A" stroke="#8b1f30" stroke-width="1"/>
<polygon points="120.0,159.0 100.0,147.0 100.0,123.0 120.0,135.0" fill="#C5875A" stroke="#8b1f30" stroke-width="1"/>
<polygon points="140.0,147.0 120.0,135.0 120.0,111.0 140.0,123.0" fill="#D9A882" stroke="#8b1f30" stroke-width="1"/>
<polygon points="120.0,111.0 140.0,99.0 120.0,87.0 100.0,99.0" fill="#F4C49A" stroke="#8b1f30" stroke-width="1"/>
<polygon points="120.0,135.0 100.0,123.0 100.0,99.0 120.0,111.0" fill="#C5875A" stroke="#8b1f30" stroke-width="1"/>
<polygon points="140.0,123.0 120.0,111.0 120.0,87.0 140.0,99.0" fill="#D9A882" stroke="#8b1f30" stroke-width="1"/>
<polygon points="120.0,87.0 140.0,75.0 120.0,63.0 100.0,75.0" fill="#F4C49A" stroke="#8b1f30" stroke-width="1"/>
<polygon points="120.0,111.0 100.0,99.0 100.0,75.0 120.0,87.0" fill="#C5875A" stroke="#8b1f30" stroke-width="1"/>
<polygon points="140.0,99.0 120.0,87.0 120.0,63.0 140.0,75.0" fill="#D9A882" stroke="#8b1f30" stroke-width="1"/>
<polygon points="100.0,123.0 120.0,111.0 100.0,99.0 80.0,111.0" fill="#F4C49A" stroke="#8b1f30" stroke-width="1"/>
<polygon points="100.0,147.0 80.0,135.0 80.0,111.0 100.0,123.0" fill="#C5875A" stroke="#8b1f30" stroke-width="1"/>
<polygon points="120.0,135.0 100.0,123.0 100.0,99.0 120.0,111.0" fill="#D9A882" stroke="#8b1f30" stroke-width="1"/>
<polygon points="100.0,99.0 120.0,87.0 100.0,75.0 80.0,87.0" fill="#F4C49A" stroke="#8b1f30" stroke-width="1"/>
<polygon points="100.0,123.0 80.0,111.0 80.0,87.0 100.0,99.0" fill="#C5875A" stroke="#8b1f30" stroke-width="1"/>
<polygon points="120.0,111.0 100.0,99.0 100.0,75.0 120.0,87.0" fill="#D9A882" stroke="#8b1f30" stroke-width="1"/>
<polygon points="100.0,75.0 120.0,63.0 100.0,51.0 80.0,63.0" fill="#F4C49A" stroke="#8b1f30" stroke-width="1"/>
<polygon points="100.0,99.0 80.0,87.0 80.0,63.0 100.0,75.0" fill="#C5875A" stroke="#8b1f30" stroke-width="1"/>
<polygon points="120.0,87.0 100.0,75.0 100.0,51.0 120.0,63.0" fill="#D9A882" stroke="#8b1f30" stroke-width="1"/>
<polygon points="180.0,147.0 200.0,135.0 180.0,123.0 160.0,135.0" fill="#F4C49A" stroke="#8b1f30" stroke-width="1"/>
<polygon points="180.0,171.0 160.0,159.0 160.0,135.0 180.0,147.0" fill="#C5875A" stroke="#8b1f30" stroke-width="1"/>
<polygon points="200.0,159.0 180.0,147.0 180.0,123.0 200.0,135.0" fill="#D9A882" stroke="#8b1f30" stroke-width="1"/>
<polygon points="180.0,123.0 200.0,111.0 180.0,99.0 160.0,111.0" fill="#F4C49A" stroke="#8b1f30" stroke-width="1"/>
<polygon points="180.0,147.0 160.0,135.0 160.0,111.0 180.0,123.0" fill="#C5875A" stroke="#8b1f30" stroke-width="1"/>
<polygon points="200.0,135.0 180.0,123.0 180.0,99.0 200.0,111.0" fill="#D9A882" stroke="#8b1f30" stroke-width="1"/>
<polygon points="180.0,99.0 200.0,87.0 180.0,75.0 160.0,87.0" fill="#F4C49A" stroke="#8b1f30" stroke-width="1"/>
<polygon points="180.0,123.0 160.0,111.0 160.0,87.0 180.0,99.0" fill="#C5875A" stroke="#8b1f30" stroke-width="1"/>
<polygon points="200.0,111.0 180.0,99.0 180.0,75.0 200.0,87.0" fill="#D9A882" stroke="#8b1f30" stroke-width="1"/>
<polygon points="160.0,135.0 180.0,123.0 160.0,111.0 140.0,123.0" fill="#F4C49A" stroke="#8b1f30" stroke-width="1"/>
<polygon points="160.0,159.0 140.0,147.0 140.0,123.0 160.0,135.0" fill="#C5875A" stroke="#8b1f30" stroke-width="1"/>
<polygon points="180.0,147.0 160.0,135.0 160.0,111.0 180.0,123.0" fill="#D9A882" stroke="#8b1f30" stroke-width="1"/>
<polygon points="160.0,111.0 180.0,99.0 160.0,87.0 140.0,99.0" fill="#F4C49A" stroke="#8b1f30" stroke-width="1"/>
<polygon points="160.0,135.0 140.0,123.0 140.0,99.0 160.0,111.0" fill="#C5875A" stroke="#8b1f30" stroke-width="1"/>
<polygon points="180.0,123.0 160.0,111.0 160.0,87.0 180.0,99.0" fill="#D9A882" stroke="#8b1f30" stroke-width="1"/>
<polygon points="160.0,87.0 180.0,75.0 160.0,63.0 140.0,75.0" fill="#F4C49A" stroke="#8b1f30" stroke-width="1"/>
<polygon points="160.0,111.0 140.0,99.0 140.0,75.0 160.0,87.0" fill="#C5875A" stroke="#8b1f30" stroke-width="1"/>
<polygon points="180.0,99.0 160.0,87.0 160.0,63.0 180.0,75.0" fill="#D9A882" stroke="#8b1f30" stroke-width="1"/>
<polygon points="140.0,123.0 160.0,111.0 140.0,99.0 120.0,111.0" fill="#F4C49A" stroke="#8b1f30" stroke-width="1"/>
<polygon points="140.0,147.0 120.0,135.0 120.0,111.0 140.0,123.0" fill="#C5875A" stroke="#8b1f30" stroke-width="1"/>
<polygon points="160.0,135.0 140.0,123.0 140.0,99.0 160.0,111.0" fill="#D9A882" stroke="#8b1f30" stroke-width="1"/>
<polygon points="140.0,99.0 160.0,87.0 140.0,75.0 120.0,87.0" fill="#F4C49A" stroke="#8b1f30" stroke-width="1"/>
<polygon points="140.0,123.0 120.0,111.0 120.0,87.0 140.0,99.0" fill="#C5875A" stroke="#8b1f30" stroke-width="1"/>
<polygon points="160.0,111.0 140.0,99.0 140.0,75.0 160.0,87.0" fill="#D9A882" stroke="#8b1f30" stroke-width="1"/>
<polygon points="140.0,75.0 160.0,63.0 140.0,51.0 120.0,63.0" fill="#F4C49A" stroke="#8b1f30" stroke-width="1"/>
<polygon points="140.0,99.0 120.0,87.0 120.0,63.0 140.0,75.0" fill="#C5875A" stroke="#8b1f30" stroke-width="1"/>
<polygon points="160.0,87.0 140.0,75.0 140.0,51.0 160.0,63.0" fill="#D9A882" stroke="#8b1f30" stroke-width="1"/>
<polygon points="120.0,111.0 140.0,99.0 120.0,87.0 100.0,99.0" fill="#F4C49A" stroke="#8b1f30" stroke-width="1"/>
<polygon points="120.0,135.0 100.0,123.0 100.0,99.0 120.0,111.0" fill="#C5875A" stroke="#8b1f30" stroke-width="1"/>
<polygon points="140.0,123.0 120.0,111.0 120.0,87.0 140.0,99.0" fill="#D9A882" stroke="#8b1f30" stroke-width="1"/>
<polygon points="120.0,87.0 140.0,75.0 120.0,63.0 100.0,75.0" fill="#F4C49A" stroke="#8b1f30" stroke-width="1"/>
<polygon points="120.0,111.0 100.0,99.0 100.0,75.0 120.0,87.0" fill="#C5875A" stroke="#8b1f30" stroke-width="1"/>
<polygon points="140.0,99.0 120.0,87.0 120.0,63.0 140.0,75.0" fill="#D9A882" stroke="#8b1f30" stroke-width="1"/>
<polygon points="120.0,63.0 140.0,51.0 120.0,39.0 100.0,51.0" fill="#F4C49A" stroke="#8b1f30" stroke-width="1"/>
<polygon points="120.0,87.0 100.0,75.0 100.0,51.0 120.0,63.0" fill="#C5875A" stroke="#8b1f30" stroke-width="1"/>
<polygon points="140.0,75.0 120.0,63.0 120.0,39.0 140.0,51.0" fill="#D9A882" stroke="#8b1f30" stroke-width="1"/>
<polygon points="200.0,135.0 220.0,123.0 200.0,111.0 180.0,123.0" fill="#F4C49A" stroke="#8b1f30" stroke-width="1"/>
<polygon points="200.0,159.0 180.0,147.0 180.0,123.0 200.0,135.0" fill="#C5875A" stroke="#8b1f30" stroke-width="1"/>
<polygon points="220.0,147.0 200.0,135.0 200.0,111.0 220.0,123.0" fill="#D9A882" stroke="#8b1f30" stroke-width="1"/>
<polygon points="200.0,111.0 220.0,99.0 200.0,87.0 180.0,99.0" fill="#F4C49A" stroke="#8b1f30" stroke-width="1"/>
<polygon points="200.0,135.0 180.0,123.0 180.0,99.0 200.0,111.0" fill="#C5875A" stroke="#8b1f30" stroke-width="1"/>
<polygon points="220.0,123.0 200.0,111.0 200.0,87.0 220.0,99.0" fill="#D9A882" stroke="#8b1f30" stroke-width="1"/>
<polygon points="200.0,87.0 220.0,75.0 200.0,63.0 180.0,75.0" fill="#F4C49A" stroke="#8b1f30" stroke-width="1"/>
<polygon points="200.0,111.0 180.0,99.0 180.0,75.0 200.0,87.0" fill="#C5875A" stroke="#8b1f30" stroke-width="1"/>
<polygon points="220.0,99.0 200.0,87.0 200.0,63.0 220.0,75.0" fill="#D9A882" stroke="#8b1f30" stroke-width="1"/>
<polygon points="180.0,123.0 200.0,111.0 180.0,99.0 160.0,111.0" fill="#F4C49A" stroke="#8b1f30" stroke-width="1"/>
<polygon points="180.0,147.0 160.0,135.0 160.0,111.0 180.0,123.0" fill="#C5875A" stroke="#8b1f30" stroke-width="1"/>
<polygon points="200.0,135.0 180.0,123.0 180.0,99.0 200.0,111.0" fill="#D9A882" stroke="#8b1f30" stroke-width="1"/>
<polygon points="180.0,99.0 200.0,87.0 180.0,75.0 160.0,87.0" fill="#F4C49A" stroke="#8b1f30" stroke-width="1"/>
<polygon points="180.0,123.0 160.0,111.0 160.0,87.0 180.0,99.0" fill="#C5875A" stroke="#8b1f30" stroke-width="1"/>
<polygon points="200.0,111.0 180.0,99.0 180.0,75.0 200.0,87.0" fill="#D9A882" stroke="#8b1f30" stroke-width="1"/>
<polygon points="180.0,75.0 200.0,63.0 180.0,51.0 160.0,63.0" fill="#F4C49A" stroke="#8b1f30" stroke-width="1"/>
<polygon points="180.0,99.0 160.0,87.0 160.0,63.0 180.0,75.0" fill="#C5875A" stroke="#8b1f30" stroke-width="1"/>
<polygon points="200.0,87.0 180.0,75.0 180.0,51.0 200.0,63.0" fill="#D9A882" stroke="#8b1f30" stroke-width="1"/>
<polygon points="160.0,111.0 180.0,99.0 160.0,87.0 140.0,99.0" fill="#F4C49A" stroke="#8b1f30" stroke-width="1"/>
<polygon points="160.0,135.0 140.0,123.0 140.0,99.0 160.0,111.0" fill="#C5875A" stroke="#8b1f30" stroke-width="1"/>
<polygon points="180.0,123.0 160.0,111.0 160.0,87.0 180.0,99.0" fill="#D9A882" stroke="#8b1f30" stroke-width="1"/>
<polygon points="160.0,87.0 180.0,75.0 160.0,63.0 140.0,75.0" fill="#F4C49A" stroke="#8b1f30" stroke-width="1"/>
<polygon points="160.0,111.0 140.0,99.0 140.0,75.0 160.0,87.0" fill="#C5875A" stroke="#8b1f30" stroke-width="1"/>
<polygon points="180.0,99.0 160.0,87.0 160.0,63.0 180.0,75.0" fill="#D9A882" stroke="#8b1f30" stroke-width="1"/>
<polygon points="160.0,63.0 180.0,51.0 160.0,39.0 140.0,51.0" fill="#F4C49A" stroke="#8b1f30" stroke-width="1"/>
<polygon points="160.0,87.0 140.0,75.0 140.0,51.0 160.0,63.0" fill="#C5875A" stroke="#8b1f30" stroke-width="1"/>
<polygon points="180.0,75.0 160.0,63.0 160.0,39.0 180.0,51.0" fill="#D9A882" stroke="#8b1f30" stroke-width="1"/>
<polygon points="140.0,99.0 160.0,87.0 140.0,75.0 120.0,87.0" fill="#F4C49A" stroke="#8b1f30" stroke-width="1"/>
<polygon points="140.0,123.0 120.0,111.0 120.0,87.0 140.0,99.0" fill="#C5875A" stroke="#8b1f30" stroke-width="1"/>
<polygon points="160.0,111.0 140.0,99.0 140.0,75.0 160.0,87.0" fill="#D9A882" stroke="#8b1f30" stroke-width="1"/>
<polygon points="140.0,75.0 160.0,63.0 140.0,51.0 120.0,63.0" fill="#F4C49A" stroke="#8b1f30" stroke-width="1"/>
<polygon points="140.0,99.0 120.0,87.0 120.0,63.0 140.0,75.0" fill="#C5875A" stroke="#8b1f30" stroke-width="1"/>
<polygon points="160.0,87.0 140.0,75.0 140.0,51.0 160.0,63.0" fill="#D9A882" stroke="#8b1f30" stroke-width="1"/>
<polygon points="140.0,51.0 160.0,39.0 140.0,27.0 120.0,39.0" fill="#F4C49A" stroke="#8b1f30" stroke-width="1"/>
<polygon points="140.0,75.0 120.0,63.0 120.0,39.0 140.0,51.0" fill="#C5875A" stroke="#8b1f30" stroke-width="1"/>
<polygon points="160.0,63.0 140.0,51.0 140.0,27.0 160.0,39.0" fill="#D9A882" stroke="#8b1f30" stroke-width="1"/>
<text x="180" y="213" text-anchor="middle" font-family="Arial,sans-serif" font-size="12" fill="#8b1f30" font-weight="bold" font-style="normal">4</text>
<text x="92" y="185" text-anchor="middle" font-family="Arial,sans-serif" font-size="12" fill="#8b1f30" font-weight="bold" font-style="normal">4</text>
<text x="124" y="159" text-anchor="middle" font-family="Arial,sans-serif" font-size="12" fill="#8b1f30" font-weight="bold" font-style="normal">3</text>
<text x="150" y="234" text-anchor="middle" font-family="Arial,sans-serif" font-size="10" fill="#6B5D62" font-weight="normal" font-style="italic">Volume = 4 × 4 × 3 = 48 cubes</text>
</svg>