<?xml version="1.0" encoding="UTF-8"?>
<svg xmlns="http://www.w3.org/2000/svg" xmlns:xlink="http://www.w3.org/1999/xlink" width="229.091pt" height="208.187pt" viewBox="0 0 229.091 208.187" version="1.2">
<defs>
<g>
<symbol overflow="visible" id="glyph0-0">
<path style="stroke:none;" d=""/>
</symbol>
<symbol overflow="visible" id="glyph0-1">
<path style="stroke:none;" d="M 3.3125 -3 C 3.375 -3.25 3.609375 -4.171875 4.296875 -4.171875 C 4.34375 -4.171875 4.578125 -4.171875 4.796875 -4.03125 C 4.515625 -3.984375 4.3125 -3.734375 4.3125 -3.5 C 4.3125 -3.34375 4.421875 -3.15625 4.6875 -3.15625 C 4.90625 -3.15625 5.234375 -3.328125 5.234375 -3.734375 C 5.234375 -4.25 4.640625 -4.390625 4.3125 -4.390625 C 3.734375 -4.390625 3.390625 -3.859375 3.265625 -3.625 C 3.015625 -4.28125 2.484375 -4.390625 2.1875 -4.390625 C 1.15625 -4.390625 0.59375 -3.109375 0.59375 -2.859375 C 0.59375 -2.765625 0.6875 -2.765625 0.71875 -2.765625 C 0.796875 -2.765625 0.828125 -2.78125 0.84375 -2.875 C 1.1875 -3.921875 1.828125 -4.171875 2.171875 -4.171875 C 2.359375 -4.171875 2.703125 -4.078125 2.703125 -3.5 C 2.703125 -3.1875 2.546875 -2.53125 2.171875 -1.140625 C 2.015625 -0.53125 1.671875 -0.109375 1.234375 -0.109375 C 1.171875 -0.109375 0.9375 -0.109375 0.734375 -0.234375 C 0.984375 -0.28125 1.203125 -0.5 1.203125 -0.78125 C 1.203125 -1.046875 0.984375 -1.125 0.828125 -1.125 C 0.53125 -1.125 0.28125 -0.859375 0.28125 -0.546875 C 0.28125 -0.09375 0.78125 0.109375 1.21875 0.109375 C 1.875 0.109375 2.234375 -0.578125 2.265625 -0.640625 C 2.375 -0.28125 2.734375 0.109375 3.328125 0.109375 C 4.359375 0.109375 4.921875 -1.171875 4.921875 -1.421875 C 4.921875 -1.515625 4.828125 -1.515625 4.796875 -1.515625 C 4.71875 -1.515625 4.6875 -1.484375 4.671875 -1.40625 C 4.34375 -0.34375 3.671875 -0.109375 3.359375 -0.109375 C 2.96875 -0.109375 2.8125 -0.421875 2.8125 -0.765625 C 2.8125 -0.984375 2.875 -1.203125 2.96875 -1.640625 Z M 3.3125 -3 "/>
</symbol>
<symbol overflow="visible" id="glyph0-2">
<path style="stroke:none;" d="M 4.828125 -3.78125 C 4.859375 -3.921875 4.859375 -3.9375 4.859375 -4.015625 C 4.859375 -4.1875 4.71875 -4.28125 4.578125 -4.28125 C 4.46875 -4.28125 4.3125 -4.21875 4.234375 -4.0625 C 4.203125 -4.015625 4.125 -3.703125 4.09375 -3.53125 C 4.015625 -3.28125 3.953125 -3 3.890625 -2.734375 L 3.4375 -0.953125 C 3.40625 -0.796875 2.96875 -0.109375 2.328125 -0.109375 C 1.8125 -0.109375 1.703125 -0.546875 1.703125 -0.90625 C 1.703125 -1.375 1.875 -1.984375 2.21875 -2.859375 C 2.375 -3.265625 2.40625 -3.375 2.40625 -3.578125 C 2.40625 -4.015625 2.09375 -4.390625 1.59375 -4.390625 C 0.65625 -4.390625 0.28125 -2.953125 0.28125 -2.859375 C 0.28125 -2.765625 0.390625 -2.765625 0.40625 -2.765625 C 0.5 -2.765625 0.515625 -2.78125 0.5625 -2.9375 C 0.828125 -3.875 1.234375 -4.171875 1.5625 -4.171875 C 1.640625 -4.171875 1.8125 -4.171875 1.8125 -3.84375 C 1.8125 -3.609375 1.71875 -3.34375 1.640625 -3.15625 C 1.25 -2.109375 1.078125 -1.53125 1.078125 -1.078125 C 1.078125 -0.1875 1.703125 0.109375 2.28125 0.109375 C 2.671875 0.109375 3 -0.0625 3.28125 -0.34375 C 3.15625 0.171875 3.03125 0.671875 2.640625 1.1875 C 2.375 1.53125 2 1.8125 1.546875 1.8125 C 1.40625 1.8125 0.96875 1.78125 0.796875 1.40625 C 0.953125 1.40625 1.078125 1.40625 1.21875 1.28125 C 1.3125 1.1875 1.421875 1.0625 1.421875 0.875 C 1.421875 0.5625 1.15625 0.53125 1.046875 0.53125 C 0.828125 0.53125 0.5 0.6875 0.5 1.171875 C 0.5 1.671875 0.9375 2.03125 1.546875 2.03125 C 2.5625 2.03125 3.59375 1.125 3.875 0.015625 Z M 4.828125 -3.78125 "/>
</symbol>
<symbol overflow="visible" id="glyph0-3">
<path style="stroke:none;" d="M 3.703125 -3.75 C 3.515625 -4.125 3.234375 -4.390625 2.78125 -4.390625 C 1.625 -4.390625 0.390625 -2.921875 0.390625 -1.484375 C 0.390625 -0.546875 0.9375 0.109375 1.71875 0.109375 C 1.921875 0.109375 2.40625 0.0625 3 -0.640625 C 3.078125 -0.21875 3.4375 0.109375 3.90625 0.109375 C 4.25 0.109375 4.484375 -0.125 4.640625 -0.4375 C 4.8125 -0.796875 4.9375 -1.40625 4.9375 -1.421875 C 4.9375 -1.515625 4.859375 -1.515625 4.828125 -1.515625 C 4.71875 -1.515625 4.71875 -1.484375 4.6875 -1.34375 C 4.515625 -0.6875 4.328125 -0.109375 3.921875 -0.109375 C 3.65625 -0.109375 3.625 -0.359375 3.625 -0.5625 C 3.625 -0.78125 3.65625 -0.859375 3.765625 -1.296875 C 3.875 -1.71875 3.890625 -1.8125 3.984375 -2.1875 L 4.328125 -3.578125 C 4.40625 -3.859375 4.40625 -3.875 4.40625 -3.921875 C 4.40625 -4.09375 4.28125 -4.1875 4.125 -4.1875 C 3.875 -4.1875 3.734375 -3.96875 3.703125 -3.75 Z M 3.0625 -1.1875 C 3 -1 3 -0.984375 2.859375 -0.8125 C 2.421875 -0.265625 2.015625 -0.109375 1.734375 -0.109375 C 1.234375 -0.109375 1.09375 -0.65625 1.09375 -1.046875 C 1.09375 -1.53125 1.421875 -2.765625 1.640625 -3.21875 C 1.953125 -3.796875 2.40625 -4.171875 2.796875 -4.171875 C 3.4375 -4.171875 3.578125 -3.359375 3.578125 -3.296875 C 3.578125 -3.234375 3.5625 -3.171875 3.546875 -3.125 Z M 3.0625 -1.1875 "/>
</symbol>
<symbol overflow="visible" id="glyph1-0">
<path style="stroke:none;" d=""/>
</symbol>
<symbol overflow="visible" id="glyph1-1">
<path style="stroke:none;" d="M 4.5625 -3.171875 C 4.5625 -3.96875 4.515625 -4.765625 4.171875 -5.5 C 3.703125 -6.453125 2.890625 -6.609375 2.484375 -6.609375 C 1.890625 -6.609375 1.15625 -6.34375 0.75 -5.421875 C 0.4375 -4.75 0.390625 -3.96875 0.390625 -3.171875 C 0.390625 -2.4375 0.421875 -1.53125 0.828125 -0.78125 C 1.265625 0.015625 1.984375 0.21875 2.46875 0.21875 C 3 0.21875 3.765625 0.015625 4.203125 -0.9375 C 4.515625 -1.625 4.5625 -2.390625 4.5625 -3.171875 Z M 2.46875 0 C 2.078125 0 1.5 -0.25 1.3125 -1.203125 C 1.203125 -1.796875 1.203125 -2.703125 1.203125 -3.296875 C 1.203125 -3.921875 1.203125 -4.578125 1.296875 -5.125 C 1.484375 -6.296875 2.21875 -6.390625 2.46875 -6.390625 C 2.796875 -6.390625 3.453125 -6.21875 3.640625 -5.234375 C 3.734375 -4.671875 3.734375 -3.921875 3.734375 -3.296875 C 3.734375 -2.546875 3.734375 -1.875 3.625 -1.234375 C 3.484375 -0.296875 2.921875 0 2.46875 0 Z M 2.46875 0 "/>
</symbol>
<symbol overflow="visible" id="glyph1-2">
<path style="stroke:none;" d="M 2.921875 -1.640625 L 2.921875 -0.78125 C 2.921875 -0.421875 2.890625 -0.3125 2.15625 -0.3125 L 1.953125 -0.3125 L 1.953125 0 C 2.359375 -0.03125 2.875 -0.03125 3.296875 -0.03125 C 3.703125 -0.03125 4.234375 -0.03125 4.640625 0 L 4.640625 -0.3125 L 4.4375 -0.3125 C 3.703125 -0.3125 3.6875 -0.421875 3.6875 -0.78125 L 3.6875 -1.640625 L 4.671875 -1.640625 L 4.671875 -1.9375 L 3.6875 -1.9375 L 3.6875 -6.453125 C 3.6875 -6.65625 3.6875 -6.71875 3.515625 -6.71875 C 3.4375 -6.71875 3.40625 -6.71875 3.328125 -6.59375 L 0.28125 -1.9375 L 0.28125 -1.640625 Z M 2.96875 -1.9375 L 0.5625 -1.9375 L 2.96875 -5.640625 Z M 2.96875 -1.9375 "/>
</symbol>
<symbol overflow="visible" id="glyph1-3">
<path style="stroke:none;" d="M 2.875 -3.5 C 3.6875 -3.765625 4.265625 -4.453125 4.265625 -5.234375 C 4.265625 -6.046875 3.390625 -6.609375 2.4375 -6.609375 C 1.4375 -6.609375 0.6875 -6.015625 0.6875 -5.265625 C 0.6875 -4.9375 0.90625 -4.75 1.1875 -4.75 C 1.5 -4.75 1.703125 -4.953125 1.703125 -5.25 C 1.703125 -5.75 1.234375 -5.75 1.078125 -5.75 C 1.390625 -6.234375 2.046875 -6.359375 2.40625 -6.359375 C 2.8125 -6.359375 3.359375 -6.140625 3.359375 -5.25 C 3.359375 -5.125 3.328125 -4.546875 3.078125 -4.125 C 2.78125 -3.640625 2.4375 -3.609375 2.1875 -3.609375 C 2.109375 -3.59375 1.875 -3.578125 1.8125 -3.578125 C 1.71875 -3.5625 1.65625 -3.546875 1.65625 -3.453125 C 1.65625 -3.34375 1.71875 -3.34375 1.890625 -3.34375 L 2.328125 -3.34375 C 3.140625 -3.34375 3.515625 -2.671875 3.515625 -1.703125 C 3.515625 -0.34375 2.828125 -0.0625 2.390625 -0.0625 C 1.96875 -0.0625 1.21875 -0.234375 0.875 -0.8125 C 1.21875 -0.765625 1.53125 -0.984375 1.53125 -1.359375 C 1.53125 -1.71875 1.265625 -1.921875 0.96875 -1.921875 C 0.734375 -1.921875 0.421875 -1.78125 0.421875 -1.34375 C 0.421875 -0.4375 1.34375 0.21875 2.421875 0.21875 C 3.625 0.21875 4.53125 -0.6875 4.53125 -1.703125 C 4.53125 -2.515625 3.90625 -3.28125 2.875 -3.5 Z M 2.875 -3.5 "/>
</symbol>
<symbol overflow="visible" id="glyph1-4">
<path style="stroke:none;" d="M 1.265625 -0.765625 L 2.3125 -1.78125 C 3.859375 -3.15625 4.453125 -3.6875 4.453125 -4.6875 C 4.453125 -5.8125 3.5625 -6.609375 2.34375 -6.609375 C 1.234375 -6.609375 0.5 -5.6875 0.5 -4.8125 C 0.5 -4.25 0.984375 -4.25 1.015625 -4.25 C 1.1875 -4.25 1.53125 -4.375 1.53125 -4.78125 C 1.53125 -5.046875 1.359375 -5.296875 1.015625 -5.296875 C 0.9375 -5.296875 0.90625 -5.296875 0.890625 -5.28125 C 1.109375 -5.9375 1.640625 -6.296875 2.21875 -6.296875 C 3.125 -6.296875 3.546875 -5.5 3.546875 -4.6875 C 3.546875 -3.890625 3.0625 -3.109375 2.515625 -2.484375 L 0.609375 -0.359375 C 0.5 -0.265625 0.5 -0.234375 0.5 0 L 4.171875 0 L 4.453125 -1.71875 L 4.203125 -1.71875 C 4.15625 -1.421875 4.09375 -0.984375 3.984375 -0.84375 C 3.921875 -0.765625 3.265625 -0.765625 3.046875 -0.765625 Z M 1.265625 -0.765625 "/>
</symbol>
<symbol overflow="visible" id="glyph1-5">
<path style="stroke:none;" d="M 2.921875 -6.34375 C 2.921875 -6.59375 2.921875 -6.609375 2.6875 -6.609375 C 2.078125 -5.96875 1.203125 -5.96875 0.890625 -5.96875 L 0.890625 -5.671875 C 1.078125 -5.671875 1.671875 -5.671875 2.1875 -5.921875 L 2.1875 -0.78125 C 2.1875 -0.421875 2.15625 -0.3125 1.265625 -0.3125 L 0.9375 -0.3125 L 0.9375 0 C 1.296875 -0.03125 2.15625 -0.03125 2.546875 -0.03125 C 2.953125 -0.03125 3.8125 -0.03125 4.15625 0 L 4.15625 -0.3125 L 3.84375 -0.3125 C 2.953125 -0.3125 2.921875 -0.421875 2.921875 -0.78125 Z M 2.921875 -6.34375 "/>
</symbol>
<symbol overflow="visible" id="glyph2-0">
<path style="stroke:none;" d=""/>
</symbol>
<symbol overflow="visible" id="glyph2-1">
<path style="stroke:none;" d="M 6.53125 -2.28125 C 6.703125 -2.28125 6.890625 -2.28125 6.890625 -2.484375 C 6.890625 -2.671875 6.703125 -2.671875 6.53125 -2.671875 L 1.171875 -2.671875 C 1 -2.671875 0.828125 -2.671875 0.828125 -2.484375 C 0.828125 -2.28125 1 -2.28125 1.171875 -2.28125 Z M 6.53125 -2.28125 "/>
</symbol>
</g>
<clipPath id="clip1">
  <path d="M 9.921875 70 L 207.566406 70 L 207.566406 71 L 9.921875 71 Z M 9.921875 70 "/>
</clipPath>
<clipPath id="clip2">
  <path d="M 9.921875 97 L 124 97 L 124 199.035156 L 9.921875 199.035156 Z M 9.921875 97 "/>
</clipPath>
<clipPath id="clip3">
  <path d="M 93 21.15625 L 207.566406 21.15625 L 207.566406 123 L 93 123 Z M 93 21.15625 "/>
</clipPath>
<clipPath id="clip4">
  <path d="M 99 21.15625 L 129 21.15625 L 129 78 L 99 78 Z M 99 21.15625 "/>
</clipPath>
<clipPath id="clip5">
  <path d="M 117 21.15625 L 119 21.15625 L 119 199.035156 L 117 199.035156 Z M 117 21.15625 "/>
</clipPath>
</defs>
<g id="surface1">
<path style="fill:none;stroke-width:3.9851;stroke-linecap:butt;stroke-linejoin:miter;stroke:rgb(64.509804%,68.235294%,73.921569%);stroke-opacity:1;stroke-miterlimit:10;" d="M 9.018684 -0.000979875 L 99.215 -0.000979875 " transform="matrix(0.996048,0,0,-0.996048,108.743521,110.09668)"/>
<path style="fill:none;stroke-width:3.9851;stroke-linecap:butt;stroke-linejoin:miter;stroke:rgb(64.509804%,68.235294%,73.921569%);stroke-opacity:1;stroke-miterlimit:10;" d="M -99.213756 -0.000979875 L -0.00133921 -0.000979875 " transform="matrix(0.996048,0,0,-0.996048,108.743521,110.09668)"/>
<path style="fill:none;stroke-width:0.3985;stroke-linecap:butt;stroke-linejoin:miter;stroke:rgb(50%,50%,50%);stroke-opacity:1;stroke-dasharray:0.3985,1.99255;stroke-miterlimit:10;" d="M -99.213756 -79.369345 L 99.215 -79.369345 M -99.213756 -59.529215 L 99.215 -59.529215 M -99.213756 -39.685162 L 99.215 -39.685162 M -99.213756 -19.84111 L 99.215 -19.84111 M -99.213756 -0.000979875 L 99.215 -0.000979875 M -99.213756 19.843072 L 99.215 19.843072 M -99.213756 39.687124 L 99.215 39.687124 M -99.213756 59.527255 L 99.215 59.527255 M -99.213756 79.371307 L 99.215 79.371307 M -99.213756 -89.291371 L -99.213756 89.293333 M -79.369704 -89.291371 L -79.369704 89.293333 M -59.529574 -89.291371 L -59.529574 89.293333 M -39.685522 -89.291371 L -39.685522 89.293333 M -19.84147 -89.291371 L -19.84147 89.293333 M -0.00133921 -89.291371 L -0.00133921 89.293333 M 19.842713 -89.291371 L 19.842713 89.293333 M 39.686765 -89.291371 L 39.686765 89.293333 M 59.526895 -89.291371 L 59.526895 89.293333 M 79.370948 -89.291371 L 79.370948 89.293333 M 99.203235 -89.291371 L 99.203235 89.293333 " transform="matrix(0.996048,0,0,-0.996048,108.743521,110.09668)"/>
<path style="fill:none;stroke-width:0.79701;stroke-linecap:butt;stroke-linejoin:miter;stroke:rgb(0%,0%,0%);stroke-opacity:1;stroke-miterlimit:10;" d="M -99.213756 -0.000979875 L 98.414963 -0.000979875 " transform="matrix(0.996048,0,0,-0.996048,108.743521,110.09668)"/>
<path style="fill:none;stroke-width:0.79701;stroke-linecap:round;stroke-linejoin:round;stroke:rgb(0%,0%,0%);stroke-opacity:1;stroke-miterlimit:10;" d="M -2.549086 3.112889 C -2.086319 1.246136 -1.047056 0.363743 0.0000513284 -0.000979875 C -1.047056 -0.361781 -2.086319 -1.244174 -2.549086 -3.110927 " transform="matrix(0.996048,0,0,-0.996048,207.167918,110.09668)"/>
<g style="fill:rgb(0%,0%,0%);fill-opacity:1;">
  <use xlink:href="#glyph0-1" x="211.26772" y="118.074027"/>
</g>
<path style="fill:none;stroke-width:0.79701;stroke-linecap:butt;stroke-linejoin:miter;stroke:rgb(0%,0%,0%);stroke-opacity:1;stroke-miterlimit:10;" d="M -0.00133921 -89.291371 L -0.00133921 88.493296 " transform="matrix(0.996048,0,0,-0.996048,108.743521,110.09668)"/>
<path style="fill:none;stroke-width:0.79701;stroke-linecap:round;stroke-linejoin:round;stroke:rgb(0%,0%,0%);stroke-opacity:1;stroke-miterlimit:10;" d="M -2.549393 3.111287 C -2.082704 1.244534 -1.047363 0.36214 -0.000255413 0.00133921 C -1.047363 -0.363383 -2.082704 -1.245777 -2.549393 -3.11253 " transform="matrix(0,-0.996048,-0.996048,0,108.743521,21.554433)"/>
<g style="fill:rgb(0%,0%,0%);fill-opacity:1;">
  <use xlink:href="#glyph0-2" x="99.817937" y="15.524927"/>
</g>
<g style="fill:rgb(0%,0%,0%);fill-opacity:1;">
  <use xlink:href="#glyph1-1" x="100.276119" y="119.998392"/>
</g>
<path style="fill:none;stroke-width:0.3985;stroke-linecap:butt;stroke-linejoin:miter;stroke:rgb(0%,0%,0%);stroke-opacity:1;stroke-miterlimit:10;" d="M -79.369704 1.991269 L -79.369704 -1.993229 " transform="matrix(0.996048,0,0,-0.996048,108.743521,110.09668)"/>
<g style="fill:rgb(0%,0%,0%);fill-opacity:1;">
  <use xlink:href="#glyph2-1" x="23.347361" y="121.982519"/>
</g>
<g style="fill:rgb(0%,0%,0%);fill-opacity:1;">
  <use xlink:href="#glyph1-2" x="31.065736" y="121.982519"/>
</g>
<path style="fill:none;stroke-width:0.3985;stroke-linecap:butt;stroke-linejoin:miter;stroke:rgb(0%,0%,0%);stroke-opacity:1;stroke-miterlimit:10;" d="M -59.529574 1.991269 L -59.529574 -1.993229 " transform="matrix(0.996048,0,0,-0.996048,108.743521,110.09668)"/>
<g style="fill:rgb(0%,0%,0%);fill-opacity:1;">
  <use xlink:href="#glyph2-1" x="43.110942" y="121.982519"/>
</g>
<g style="fill:rgb(0%,0%,0%);fill-opacity:1;">
  <use xlink:href="#glyph1-3" x="50.829317" y="121.982519"/>
</g>
<path style="fill:none;stroke-width:0.3985;stroke-linecap:butt;stroke-linejoin:miter;stroke:rgb(0%,0%,0%);stroke-opacity:1;stroke-miterlimit:10;" d="M -39.685522 1.991269 L -39.685522 -1.993229 " transform="matrix(0.996048,0,0,-0.996048,108.743521,110.09668)"/>
<g style="fill:rgb(0%,0%,0%);fill-opacity:1;">
  <use xlink:href="#glyph2-1" x="62.875519" y="121.982519"/>
</g>
<g style="fill:rgb(0%,0%,0%);fill-opacity:1;">
  <use xlink:href="#glyph1-4" x="70.593894" y="121.982519"/>
</g>
<path style="fill:none;stroke-width:0.3985;stroke-linecap:butt;stroke-linejoin:miter;stroke:rgb(0%,0%,0%);stroke-opacity:1;stroke-miterlimit:10;" d="M -19.84147 1.991269 L -19.84147 -1.993229 " transform="matrix(0.996048,0,0,-0.996048,108.743521,110.09668)"/>
<g style="fill:rgb(0%,0%,0%);fill-opacity:1;">
  <use xlink:href="#glyph2-1" x="82.6391" y="121.982519"/>
</g>
<g style="fill:rgb(0%,0%,0%);fill-opacity:1;">
  <use xlink:href="#glyph1-5" x="90.357475" y="121.982519"/>
</g>
<path style="fill:none;stroke-width:0.3985;stroke-linecap:butt;stroke-linejoin:miter;stroke:rgb(0%,0%,0%);stroke-opacity:1;stroke-miterlimit:10;" d="M 19.842713 1.991269 L 19.842713 -1.993229 " transform="matrix(0.996048,0,0,-0.996048,108.743521,110.09668)"/>
<g style="fill:rgb(0%,0%,0%);fill-opacity:1;">
  <use xlink:href="#glyph1-5" x="126.026943" y="121.982519"/>
</g>
<path style="fill:none;stroke-width:0.3985;stroke-linecap:butt;stroke-linejoin:miter;stroke:rgb(0%,0%,0%);stroke-opacity:1;stroke-miterlimit:10;" d="M 39.686765 1.991269 L 39.686765 -1.993229 " transform="matrix(0.996048,0,0,-0.996048,108.743521,110.09668)"/>
<g style="fill:rgb(0%,0%,0%);fill-opacity:1;">
  <use xlink:href="#glyph1-4" x="145.790524" y="121.982519"/>
</g>
<path style="fill:none;stroke-width:0.3985;stroke-linecap:butt;stroke-linejoin:miter;stroke:rgb(0%,0%,0%);stroke-opacity:1;stroke-miterlimit:10;" d="M 59.526895 1.991269 L 59.526895 -1.993229 " transform="matrix(0.996048,0,0,-0.996048,108.743521,110.09668)"/>
<g style="fill:rgb(0%,0%,0%);fill-opacity:1;">
  <use xlink:href="#glyph1-3" x="165.554105" y="121.982519"/>
</g>
<path style="fill:none;stroke-width:0.3985;stroke-linecap:butt;stroke-linejoin:miter;stroke:rgb(0%,0%,0%);stroke-opacity:1;stroke-miterlimit:10;" d="M 79.370948 1.991269 L 79.370948 -1.993229 " transform="matrix(0.996048,0,0,-0.996048,108.743521,110.09668)"/>
<g style="fill:rgb(0%,0%,0%);fill-opacity:1;">
  <use xlink:href="#glyph1-2" x="185.318682" y="121.982519"/>
</g>
<path style="fill:none;stroke-width:0.3985;stroke-linecap:butt;stroke-linejoin:miter;stroke:rgb(0%,0%,0%);stroke-opacity:1;stroke-miterlimit:10;" d="M 1.99091 -79.369345 L -1.993588 -79.369345 " transform="matrix(0.996048,0,0,-0.996048,108.743521,110.09668)"/>
<g style="fill:rgb(0%,0%,0%);fill-opacity:1;">
  <use xlink:href="#glyph2-1" x="90.572621" y="191.93695"/>
</g>
<g style="fill:rgb(0%,0%,0%);fill-opacity:1;">
  <use xlink:href="#glyph1-2" x="98.290996" y="191.93695"/>
</g>
<path style="fill:none;stroke-width:0.3985;stroke-linecap:butt;stroke-linejoin:miter;stroke:rgb(0%,0%,0%);stroke-opacity:1;stroke-miterlimit:10;" d="M 1.99091 -59.529215 L -1.993588 -59.529215 " transform="matrix(0.996048,0,0,-0.996048,108.743521,110.09668)"/>
<g style="fill:rgb(0%,0%,0%);fill-opacity:1;">
  <use xlink:href="#glyph2-1" x="90.572621" y="172.173369"/>
</g>
<g style="fill:rgb(0%,0%,0%);fill-opacity:1;">
  <use xlink:href="#glyph1-3" x="98.290996" y="172.173369"/>
</g>
<path style="fill:none;stroke-width:0.3985;stroke-linecap:butt;stroke-linejoin:miter;stroke:rgb(0%,0%,0%);stroke-opacity:1;stroke-miterlimit:10;" d="M 1.99091 -39.685162 L -1.993588 -39.685162 " transform="matrix(0.996048,0,0,-0.996048,108.743521,110.09668)"/>
<g style="fill:rgb(0%,0%,0%);fill-opacity:1;">
  <use xlink:href="#glyph2-1" x="90.572621" y="152.408792"/>
</g>
<g style="fill:rgb(0%,0%,0%);fill-opacity:1;">
  <use xlink:href="#glyph1-4" x="98.290996" y="152.408792"/>
</g>
<path style="fill:none;stroke-width:0.3985;stroke-linecap:butt;stroke-linejoin:miter;stroke:rgb(0%,0%,0%);stroke-opacity:1;stroke-miterlimit:10;" d="M 1.99091 -19.84111 L -1.993588 -19.84111 " transform="matrix(0.996048,0,0,-0.996048,108.743521,110.09668)"/>
<g style="fill:rgb(0%,0%,0%);fill-opacity:1;">
  <use xlink:href="#glyph2-1" x="90.572621" y="132.645211"/>
</g>
<g style="fill:rgb(0%,0%,0%);fill-opacity:1;">
  <use xlink:href="#glyph1-5" x="98.290996" y="132.645211"/>
</g>
<path style="fill:none;stroke-width:0.3985;stroke-linecap:butt;stroke-linejoin:miter;stroke:rgb(0%,0%,0%);stroke-opacity:1;stroke-miterlimit:10;" d="M 1.99091 19.843072 L -1.993588 19.843072 " transform="matrix(0.996048,0,0,-0.996048,108.743521,110.09668)"/>
<g style="fill:rgb(0%,0%,0%);fill-opacity:1;">
  <use xlink:href="#glyph1-5" x="98.290996" y="93.530413"/>
</g>
<path style="fill:none;stroke-width:0.3985;stroke-linecap:butt;stroke-linejoin:miter;stroke:rgb(0%,0%,0%);stroke-opacity:1;stroke-miterlimit:10;" d="M 1.99091 39.687124 L -1.993588 39.687124 " transform="matrix(0.996048,0,0,-0.996048,108.743521,110.09668)"/>
<g style="fill:rgb(0%,0%,0%);fill-opacity:1;">
  <use xlink:href="#glyph1-4" x="98.290996" y="73.766832"/>
</g>
<path style="fill:none;stroke-width:0.3985;stroke-linecap:butt;stroke-linejoin:miter;stroke:rgb(0%,0%,0%);stroke-opacity:1;stroke-miterlimit:10;" d="M 1.99091 59.527255 L -1.993588 59.527255 " transform="matrix(0.996048,0,0,-0.996048,108.743521,110.09668)"/>
<g style="fill:rgb(0%,0%,0%);fill-opacity:1;">
  <use xlink:href="#glyph1-3" x="98.290996" y="54.002255"/>
</g>
<path style="fill:none;stroke-width:0.3985;stroke-linecap:butt;stroke-linejoin:miter;stroke:rgb(0%,0%,0%);stroke-opacity:1;stroke-miterlimit:10;" d="M 1.99091 79.371307 L -1.993588 79.371307 " transform="matrix(0.996048,0,0,-0.996048,108.743521,110.09668)"/>
<g style="fill:rgb(0%,0%,0%);fill-opacity:1;">
  <use xlink:href="#glyph1-2" x="98.290996" y="34.238674"/>
</g>
<g clip-path="url(#clip1)" clip-rule="nonzero">
<path style="fill:none;stroke-width:0.79701;stroke-linecap:butt;stroke-linejoin:miter;stroke:rgb(91.764832%,52.157593%,33.724976%);stroke-opacity:1;stroke-miterlimit:10;" d="M -99.213756 39.687124 L 99.215 39.687124 " transform="matrix(0.996048,0,0,-0.996048,108.743521,110.09668)"/>
</g>
<g clip-path="url(#clip2)" clip-rule="nonzero">
<path style="fill:none;stroke-width:1.19553;stroke-linecap:butt;stroke-linejoin:miter;stroke:rgb(54.118%,61.176%,75.686%);stroke-opacity:1;stroke-miterlimit:10;" d="M -99.213756 -3.96979 L -98.562746 -3.993321 L -98.237241 -4.009008 L -97.911736 -4.020773 L -97.58623 -4.03646 L -96.93522 -4.059991 L -96.613637 -4.075678 L -96.288131 -4.087443 L -95.962626 -4.10313 L -95.637121 -4.114895 L -94.986111 -4.146269 L -94.660605 -4.158034 L -94.009595 -4.189408 L -93.68409 -4.201174 L -93.033079 -4.232548 L -92.711496 -4.248235 L -92.385991 -4.26 L -89.130939 -4.41687 L -88.809355 -4.432557 L -88.48385 -4.448244 L -88.158345 -4.467852 L -87.181829 -4.514913 L -86.856324 -4.534522 L -86.205314 -4.565896 L -85.879808 -4.585505 L -85.554303 -4.601192 L -85.228798 -4.620801 L -84.907214 -4.636488 L -84.581709 -4.656096 L -84.256204 -4.671783 L -83.605194 -4.711001 L -83.279688 -4.726688 L -82.628678 -4.765905 L -82.303173 -4.781592 L -81.326657 -4.840419 L -81.005074 -4.860027 L -79.703053 -4.938462 L -79.377548 -4.961993 L -78.401032 -5.020819 L -78.075527 -5.04435 L -77.424517 -5.083567 L -77.102933 -5.107098 L -76.777428 -5.126706 L -76.126418 -5.173767 L -75.800912 -5.193376 L -74.824397 -5.263968 L -74.498891 -5.283576 L -73.522376 -5.354168 L -73.200792 -5.377698 L -72.875287 -5.401229 L -72.549782 -5.428681 L -71.898772 -5.475742 L -71.573266 -5.503194 L -71.247761 -5.526725 L -70.922256 -5.554177 L -70.271246 -5.601238 L -69.620235 -5.656143 L -69.298652 -5.679673 L -67.671126 -5.816934 L -67.345621 -5.848308 L -66.369105 -5.930665 L -66.0436 -5.962039 L -65.718095 -5.989491 L -65.396511 -6.020865 L -65.071006 -6.052239 L -64.745501 -6.079692 L -63.117975 -6.236561 L -62.792469 -6.271857 L -62.141459 -6.334605 L -61.815954 -6.369901 L -61.49437 -6.401275 L -58.890329 -6.683641 L -58.564824 -6.722858 L -58.239318 -6.758154 L -57.913813 -6.797372 L -57.59223 -6.836589 L -56.290209 -6.993459 L -55.964704 -7.036598 L -55.639198 -7.075816 L -54.662683 -7.205234 L -54.337178 -7.244451 L -54.011672 -7.291512 L -53.686167 -7.334651 L -53.364584 -7.377791 L -53.039079 -7.424852 L -52.713573 -7.467991 L -51.411553 -7.656235 L -50.760542 -7.7582 L -50.435037 -7.805261 L -50.109532 -7.856244 L -49.784027 -7.911148 L -49.462443 -7.958209 L -48.811433 -8.068018 L -48.485927 -8.119001 L -47.834917 -8.22881 L -47.509412 -8.287636 L -47.183907 -8.342541 L -46.207391 -8.51902 L -45.881886 -8.581768 L -45.560302 -8.640594 L -44.583787 -8.828838 L -43.281766 -9.095517 L -42.956261 -9.166108 L -42.630756 -9.232778 L -42.30525 -9.307291 L -41.979745 -9.377883 L -41.658162 -9.452396 L -41.332657 -9.522988 L -41.007151 -9.601422 L -40.681646 -9.675936 L -40.356141 -9.754371 L -40.030636 -9.836727 L -39.70513 -9.915162 L -39.05412 -10.079876 L -38.077604 -10.338711 L -37.756021 -10.428912 L -37.105011 -10.609312 L -36.779505 -10.703434 L -36.454 -10.801478 L -36.128495 -10.8956 L -35.80299 -10.997565 L -35.477485 -11.095609 L -35.151979 -11.197575 L -34.826474 -11.303462 L -34.500969 -11.413271 L -34.175464 -11.519158 L -33.85388 -11.628967 L -33.20287 -11.856428 L -32.877365 -11.974081 L -32.226354 -12.217229 L -31.575344 -12.468221 L -31.249839 -12.601561 L -30.924334 -12.730979 L -30.598828 -12.864318 L -30.273323 -13.005501 L -29.95174 -13.146684 L -29.300729 -13.436893 L -28.975224 -13.58592 L -28.324214 -13.89966 L -27.998708 -14.060452 L -27.673203 -14.225165 L -27.347698 -14.3938 L -26.696688 -14.746758 L -26.371182 -14.93108 L -26.049599 -15.115402 L -25.724094 -15.303646 L -25.073083 -15.703665 L -24.422073 -16.11937 L -24.096568 -16.338988 L -23.771063 -16.562528 L -23.445557 -16.793911 L -23.120052 -17.029216 L -22.794547 -17.272364 L -22.469042 -17.519435 L -22.147458 -17.782192 L -21.821953 -18.041027 L -21.496448 -18.31555 L -21.170943 -18.597916 L -20.845437 -18.888125 L -20.519932 -19.186178 L -20.194427 -19.495996 L -19.868922 -19.813658 L -19.543417 -20.143085 L -19.217911 -20.484277 L -18.892406 -20.837235 L -18.566901 -21.205879 L -18.245318 -21.582367 L -17.919812 -21.97062 L -17.594307 -22.378482 L -17.268802 -22.802031 L -16.943297 -23.237345 L -16.617792 -23.692268 L -16.292286 -24.1668 L -15.966781 -24.66094 L -15.641276 -25.170768 L -15.315771 -25.704126 L -14.990266 -26.264936 L -14.66476 -26.845355 L -14.343177 -27.457148 L -14.017672 -28.092471 L -13.692166 -28.759168 L -13.366661 -29.461162 L -13.041156 -30.194529 L -12.715651 -30.967113 L -12.390146 -31.778916 L -12.06464 -32.637779 L -11.739135 -33.539781 L -11.41363 -34.496688 L -11.088125 -35.508499 L -10.76262 -36.579137 L -10.437114 -37.720366 L -10.115531 -38.932187 L -9.790026 -40.222442 L -9.464521 -41.602898 L -9.139015 -43.085319 L -8.81351 -44.673628 L -8.488005 -46.387432 L -8.1625 -48.234576 L -7.836995 -50.23859 L -7.511489 -52.415161 L -7.185984 -54.783898 L -6.860479 -57.380096 L -6.534974 -60.231208 L -6.21339 -63.384294 L -5.887885 -66.886417 L -5.56238 -70.800322 L -5.236875 -75.196604 L -4.911369 -80.173304 L -4.585864 -85.85984 L -4.260359 -92.413084 L -3.934854 -100.04873 L -3.609349 -109.056988 L -3.283843 -119.853564 L -2.958338 -133.022799 L -2.632833 -149.443164 L -2.31125 -170.471584 L -1.985744 -198.425814 " transform="matrix(0.996048,0,0,-0.996048,108.743521,110.09668)"/>
</g>
<g clip-path="url(#clip3)" clip-rule="nonzero">
<path style="fill:none;stroke-width:1.19553;stroke-linecap:butt;stroke-linejoin:miter;stroke:rgb(54.118%,61.176%,75.686%);stroke-opacity:1;stroke-miterlimit:10;" d="M 1.983066 198.427776 L 2.308571 170.469625 L 2.634076 149.441204 L 2.959582 133.020839 L 3.285087 119.851605 L 3.610592 109.05895 L 3.936097 100.050692 L 4.261602 92.415046 L 4.587108 85.857881 L 4.912613 80.171344 L 5.238118 75.194644 L 5.559701 70.798363 L 5.885207 66.888379 L 6.210712 63.382335 L 6.536217 60.229248 L 6.861722 57.378136 L 7.187228 54.78586 L 7.512733 52.413201 L 7.838238 50.23663 L 8.163743 48.236538 L 8.489248 46.389394 L 8.814754 44.67559 L 9.140259 43.083359 L 9.461842 41.60486 L 9.787347 40.220482 L 10.112853 38.934149 L 10.438358 37.718406 L 10.763863 36.581099 L 11.089368 35.50654 L 11.414873 34.494728 L 11.740379 33.541743 L 12.065884 32.635819 L 12.391389 31.776956 L 12.716894 30.965154 L 13.042399 30.196491 L 13.363983 29.459202 L 13.689488 28.76113 L 14.014993 28.094433 L 14.340498 27.455188 L 14.666004 26.847317 L 14.991509 26.262976 L 15.317014 25.706088 L 15.642519 25.17273 L 15.968024 24.658981 L 16.29353 24.168762 L 16.619035 23.69423 L 16.94454 23.239307 L 17.266124 22.800071 L 17.591629 22.380444 L 17.917134 21.972582 L 18.242639 21.580407 L 18.568144 21.203919 L 18.89365 20.839197 L 19.219155 20.486239 L 19.54466 20.145047 L 19.870165 19.81562 L 20.19567 19.494037 L 20.521176 19.184218 L 20.846681 18.886165 L 21.168264 18.599878 L 21.493769 18.317512 L 21.819275 18.042989 L 22.14478 17.780232 L 22.470285 17.521397 L 22.79579 17.270405 L 23.121295 17.027256 L 23.446801 16.791951 L 24.097811 16.337028 L 24.423316 16.121332 L 24.748821 15.909558 L 25.070405 15.701705 L 25.39591 15.501696 L 25.721415 15.305608 L 26.046921 15.113442 L 26.372426 14.92912 L 26.697931 14.74872 L 27.348941 14.395762 L 27.674447 14.227127 L 27.999952 14.062414 L 28.325457 13.901622 L 28.650962 13.744752 L 28.972546 13.587882 L 29.298051 13.434934 L 29.949061 13.144724 L 30.274566 13.003541 L 30.600072 12.86628 L 31.251082 12.599601 L 31.902092 12.340766 L 32.553103 12.097617 L 32.874686 11.976043 L 33.200192 11.854469 L 33.525697 11.74466 L 34.176707 11.517198 L 35.153223 11.199537 L 35.804233 10.995606 L 36.455244 10.799518 L 36.776827 10.701474 L 37.102332 10.611274 L 37.427837 10.517152 L 37.753343 10.430874 L 38.078848 10.336752 L 38.729858 10.164195 L 39.055363 10.081838 L 39.380869 9.995559 L 39.706374 9.917124 L 40.031879 9.834768 L 40.357384 9.756333 L 40.678968 9.677898 L 41.004473 9.603384 L 41.329978 9.52495 L 41.980989 9.375923 L 42.957504 9.164149 L 43.283009 9.097479 L 43.608515 9.026887 L 43.93402 8.960218 L 44.259525 8.89747 L 44.581108 8.8308 L 45.883129 8.579808 L 47.510655 8.285677 L 48.487171 8.120963 L 48.808754 8.066059 L 49.134259 8.015076 L 49.459765 7.960171 L 51.087291 7.705258 L 52.389312 7.517014 L 52.710895 7.469953 L 53.361905 7.375831 L 55.314937 7.116995 L 55.640442 7.077778 L 55.965947 7.034639 L 56.291452 6.995421 L 56.613036 6.952282 L 56.938541 6.913064 L 57.264046 6.877769 L 58.240562 6.760116 L 58.566067 6.72482 L 58.891572 6.685603 L 59.217077 6.650307 L 59.542582 6.61109 L 60.193593 6.540498 L 60.515176 6.505202 L 60.840682 6.469907 L 61.166187 6.438533 L 61.817197 6.367941 L 62.142702 6.336567 L 62.468208 6.301271 L 64.095734 6.144401 L 64.417317 6.113027 L 65.068327 6.05028 L 65.393833 6.022827 L 66.044843 5.960079 L 66.695853 5.905175 L 67.021359 5.873801 L 67.997874 5.791444 L 68.319458 5.763992 L 69.621479 5.654183 L 69.946984 5.630652 L 70.597994 5.575748 L 70.923499 5.552217 L 71.249005 5.524765 L 71.57451 5.501235 L 71.900015 5.473782 L 72.221598 5.450252 L 75.47665 5.214947 L 75.802156 5.195338 L 76.123739 5.171808 L 76.449244 5.148277 L 76.774749 5.128668 L 77.100255 5.105138 L 77.42576 5.085529 L 77.751265 5.061999 L 78.727781 5.003172 L 79.053286 4.979642 L 79.704296 4.940424 L 80.02588 4.920816 L 82.955427 4.744337 L 83.280932 4.72865 L 83.606437 4.709041 L 83.92802 4.689432 L 84.253526 4.673745 L 84.579031 4.654137 L 84.904536 4.63845 L 85.230041 4.618841 L 85.555546 4.603154 L 85.881052 4.583545 L 86.206557 4.567858 L 86.532062 4.548249 L 87.508578 4.501188 L 87.830161 4.48158 L 89.132182 4.418832 L 89.457687 4.399223 L 91.085213 4.320788 L 91.410718 4.309023 L 91.736224 4.293336 L 92.057807 4.277649 L 93.034323 4.230588 L 93.359828 4.218823 L 94.010838 4.187449 L 94.336343 4.175683 L 94.987354 4.144309 L 95.312859 4.132544 L 95.638364 4.116857 L 95.959948 4.10117 L 96.285453 4.089405 L 96.610958 4.073718 L 96.936463 4.061953 L 97.261969 4.046266 L 97.912979 4.022735 L 98.238484 4.007048 L 98.563989 3.995283 L 98.889495 3.979596 L 99.215 3.967831 " transform="matrix(0.996048,0,0,-0.996048,108.743521,110.09668)"/>
</g>
<g clip-path="url(#clip4)" clip-rule="nonzero">
<path style="fill:none;stroke-width:0.79701;stroke-linecap:butt;stroke-linejoin:miter;stroke:rgb(0%,0%,0%);stroke-opacity:1;stroke-miterlimit:10;" d="M 1.983066 198.427776 L 2.006597 196.113944 L 2.030127 193.855016 L 2.053657 191.662759 L 2.077188 189.521483 L 2.100718 187.40766 L 2.124249 185.340898 L 2.147779 183.336885 L 2.17131 181.37601 L 2.19484 179.442587 L 2.218371 177.552304 L 2.241901 175.709082 L 2.265432 173.908999 L 2.288962 172.128525 L 2.312493 170.383346 L 2.336023 168.68915 L 2.355632 167.026329 L 2.379163 165.383116 L 2.402693 163.786964 L 2.426224 162.206499 L 2.449754 160.669173 L 2.473285 159.147534 L 2.496815 157.672956 L 2.520346 156.206222 L 2.543876 154.782627 L 2.567407 153.370797 L 2.590937 151.994263 L 2.614468 150.633416 L 2.637998 149.307865 L 2.661529 147.994079 L 2.685059 146.711667 L 2.70859 145.44102 L 2.73212 144.205669 L 2.755651 142.978161 L 2.775259 141.785949 L 2.79879 140.597659 L 2.82232 139.440743 L 2.845851 138.299514 L 2.869381 137.181815 L 2.892912 136.068039 L 2.916442 134.985636 L 2.939973 133.911076 L 2.963503 132.860048 L 2.987034 131.820784 L 3.010564 130.805051 L 3.034095 129.793239 L 3.057625 128.80888 L 3.081156 127.828443 L 3.104686 126.871536 L 3.128217 125.922473 L 3.151747 124.993018 L 3.175278 124.071407 L 3.194887 123.169405 L 3.218417 122.271324 L 3.241948 121.396774 L 3.265478 120.530067 L 3.289009 119.679048 L 3.312539 118.835872 L 3.33607 118.008382 L 3.3596 117.188737 L 3.406661 115.580819 L 3.453722 114.019963 L 3.477253 113.259144 L 3.500783 112.502246 L 3.524314 111.761036 L 3.547844 111.023747 L 3.571375 110.298223 L 3.594905 109.580543 L 3.614514 108.87855 L 3.638044 108.176557 L 3.661575 107.49025 L 3.685105 106.807866 L 3.732166 105.474471 L 3.779227 104.17245 L 3.826288 102.901804 L 3.873349 101.662531 L 3.92041 100.454632 L 3.943941 99.862448 L 3.967471 99.278107 L 3.991002 98.697688 L 4.014532 98.129035 L 4.034141 97.560381 L 4.057671 96.999571 L 4.081202 96.442682 L 4.128263 95.352436 L 4.151793 94.823 L 4.175324 94.289642 L 4.222385 93.246456 L 4.245915 92.736629 L 4.269446 92.230723 L 4.292976 91.728739 L 4.316507 91.234599 L 4.340037 90.74438 L 4.363568 90.258083 L 4.410629 89.301177 L 4.434159 88.834488 L 4.453768 88.3678 L 4.477299 87.908955 L 4.500829 87.454033 L 4.52436 87.003031 L 4.54789 86.555952 L 4.594951 85.67748 L 4.618482 85.246088 L 4.642012 84.818617 L 4.689073 83.971519 L 4.712604 83.559735 L 4.736134 83.14403 L 4.759665 82.74009 L 4.783195 82.332228 L 4.830256 81.540034 L 4.853787 81.147859 L 4.873395 80.759606 L 4.896926 80.375275 L 4.920456 79.994865 L 4.943987 79.618377 L 4.991048 78.881088 L 5.014578 78.508522 L 5.061639 77.78692 L 5.08517 77.433963 L 5.1087 77.077084 L 5.155761 76.379012 L 5.202822 75.696628 L 5.249883 75.022087 L 5.273414 74.69266 L 5.293023 74.363233 L 5.340084 73.712223 L 5.363614 73.394561 L 5.387145 73.072977 L 5.434206 72.445497 L 5.457736 72.139601 L 5.481267 71.829783 L 5.528327 71.225833 L 5.575388 70.629727 L 5.622449 70.041465 L 5.693041 69.182602 L 5.71265 68.900236 L 5.783241 68.064903 L 5.806772 67.790381 L 5.830302 67.523702 L 5.853833 67.253101 L 5.900894 66.719743 L 5.924424 66.456986 L 5.947955 66.202072 L 5.971485 65.939315 L 6.018546 65.429488 L 6.089138 64.676512 L 6.112668 64.429442 L 6.132277 64.186293 L 6.179338 63.699996 L 6.202868 63.460769 L 6.29699 62.51955 L 6.320521 62.292088 L 6.344051 62.060705 L 6.367582 61.837165 L 6.391112 61.609704 L 6.438173 61.162624 L 6.485234 60.723388 L 6.532295 60.291996 L 6.551904 60.0763 L 6.575435 59.860604 L 6.669557 59.029193 L 6.763679 58.213469 L 6.787209 58.017381 L 6.81074 57.817372 L 6.83427 57.621285 L 6.857801 57.421275 L 6.951923 56.652612 L 6.975453 56.464369 L 6.995062 56.276125 L 7.018592 56.087881 L 7.089184 55.534914 L 7.183306 54.813312 L 7.253897 54.283876 L 7.324489 53.766205 L 7.39508 53.260299 L 7.414689 53.091664 L 7.438219 52.923029 L 7.48528 52.593602 L 7.508811 52.43281 L 7.532341 52.268097 L 7.579402 51.946513 L 7.602933 51.789643 L 7.626463 51.628851 L 7.673524 51.315111 L 7.697055 51.162163 L 7.720585 51.005293 L 7.791177 50.546449 L 7.814707 50.397422 L 7.834316 50.248396 L 7.857847 50.095447 L 7.881377 49.950343 L 7.904908 49.801316 L 7.99903 49.220897 L 8.02256 49.079714 L 8.046091 48.93461 L 8.093152 48.652244 L 8.116682 48.514982 L 8.140213 48.373799 L 8.234335 47.824754 L 8.253943 47.691415 L 8.348065 47.158057 L 8.395126 46.899222 L 8.418657 46.765882 L 8.465718 46.507047 L 8.536309 46.130559 L 8.55984 46.001141 L 8.58337 45.879567 L 8.630431 45.628575 L 8.653962 45.507001 L 8.673571 45.385426 L 8.744162 45.020704 L 8.791223 44.785399 L 8.814754 44.663824 L 8.861815 44.428519 L 8.885345 44.314789 L 8.932406 44.079484 L 9.002997 43.738292 " transform="matrix(0.996048,0,0,-0.996048,108.743521,110.09668)"/>
</g>
<g clip-path="url(#clip5)" clip-rule="nonzero">
<path style="fill:none;stroke-width:0.79701;stroke-linecap:butt;stroke-linejoin:miter;stroke:rgb(0%,0%,0%);stroke-opacity:1;stroke-dasharray:0.79701,1.99255;stroke-miterlimit:10;" d="M 9.018684 -89.291371 L 9.018684 89.293333 " transform="matrix(0.996048,0,0,-0.996048,108.743521,110.09668)"/>
</g>
<g style="fill:rgb(91.764832%,52.157593%,33.724976%);fill-opacity:1;">
  <use xlink:href="#glyph0-3" x="185.176247" y="66.775572"/>
</g>
<g style="fill:rgb(54.118%,61.176%,75.686%);fill-opacity:1;">
  <use xlink:href="#glyph1-5" x="126.026943" y="136.180185"/>
</g>
<path style="fill:none;stroke-width:0.398;stroke-linecap:butt;stroke-linejoin:miter;stroke:rgb(54.118%,61.176%,75.686%);stroke-opacity:1;stroke-miterlimit:10;" d="M -0.00170268 -0.00167725 L 5.265207 -0.00167725 " transform="matrix(0.996048,0,0,-0.996048,125.884508,140.412392)"/>
<g style="fill:rgb(54.118%,61.176%,75.686%);fill-opacity:1;">
  <use xlink:href="#glyph0-3" x="125.884508" y="149.700538"/>
</g>
</g>
</svg>
