<svg xmlns="http://www.w3.org/2000/svg" width="480" height="70" style="display:block;margin:0.3rem auto;">
<line x1="43" y1="38" x2="451" y2="38" stroke="#444" stroke-width="1.5"/>
<polygon points="455,38 447,34 447,42" fill="#444"/>
<line x1="55.0" y1="30" x2="55.0" y2="46" stroke="#444" stroke-width="1.5"/>
<text x="55.0" y="60" text-anchor="middle" font-size="10" fill="#444">-5,2</text>
<line x1="60.2" y1="34" x2="60.2" y2="42" stroke="#888" stroke-width="0.8"/>
<line x1="65.4" y1="34" x2="65.4" y2="42" stroke="#888" stroke-width="0.8"/>
<line x1="70.6" y1="34" x2="70.6" y2="42" stroke="#888" stroke-width="0.8"/>
<line x1="75.8" y1="34" x2="75.8" y2="42" stroke="#888" stroke-width="0.8"/>
<line x1="81.0" y1="34" x2="81.0" y2="42" stroke="#888" stroke-width="0.8"/>
<line x1="86.2" y1="34" x2="86.2" y2="42" stroke="#888" stroke-width="0.8"/>
<line x1="91.4" y1="34" x2="91.4" y2="42" stroke="#888" stroke-width="0.8"/>
<line x1="96.6" y1="34" x2="96.6" y2="42" stroke="#888" stroke-width="0.8"/>
<line x1="101.8" y1="34" x2="101.8" y2="42" stroke="#888" stroke-width="0.8"/>
<line x1="107.0" y1="30" x2="107.0" y2="46" stroke="#444" stroke-width="1.5"/>
<text x="107.0" y="60" text-anchor="middle" font-size="10" fill="#444">-4,2</text>
<line x1="112.2" y1="34" x2="112.2" y2="42" stroke="#888" stroke-width="0.8"/>
<line x1="117.4" y1="34" x2="117.4" y2="42" stroke="#888" stroke-width="0.8"/>
<line x1="122.6" y1="34" x2="122.6" y2="42" stroke="#888" stroke-width="0.8"/>
<line x1="127.8" y1="34" x2="127.8" y2="42" stroke="#888" stroke-width="0.8"/>
<line x1="133.0" y1="34" x2="133.0" y2="42" stroke="#888" stroke-width="0.8"/>
<line x1="138.2" y1="34" x2="138.2" y2="42" stroke="#888" stroke-width="0.8"/>
<line x1="143.4" y1="34" x2="143.4" y2="42" stroke="#888" stroke-width="0.8"/>
<line x1="148.6" y1="34" x2="148.6" y2="42" stroke="#888" stroke-width="0.8"/>
<line x1="153.8" y1="34" x2="153.8" y2="42" stroke="#888" stroke-width="0.8"/>
<line x1="159.0" y1="30" x2="159.0" y2="46" stroke="#444" stroke-width="1.5"/>
<text x="159.0" y="60" text-anchor="middle" font-size="10" fill="#444">-3,2</text>
<line x1="164.2" y1="34" x2="164.2" y2="42" stroke="#888" stroke-width="0.8"/>
<line x1="169.4" y1="34" x2="169.4" y2="42" stroke="#888" stroke-width="0.8"/>
<line x1="174.6" y1="34" x2="174.6" y2="42" stroke="#888" stroke-width="0.8"/>
<line x1="179.8" y1="34" x2="179.8" y2="42" stroke="#888" stroke-width="0.8"/>
<line x1="185.0" y1="34" x2="185.0" y2="42" stroke="#888" stroke-width="0.8"/>
<line x1="190.2" y1="34" x2="190.2" y2="42" stroke="#888" stroke-width="0.8"/>
<line x1="195.4" y1="34" x2="195.4" y2="42" stroke="#888" stroke-width="0.8"/>
<line x1="200.6" y1="34" x2="200.6" y2="42" stroke="#888" stroke-width="0.8"/>
<line x1="205.8" y1="34" x2="205.8" y2="42" stroke="#888" stroke-width="0.8"/>
<line x1="211.0" y1="30" x2="211.0" y2="46" stroke="#444" stroke-width="1.5"/>
<text x="211.0" y="60" text-anchor="middle" font-size="10" fill="#444">-2,2</text>
<line x1="216.2" y1="34" x2="216.2" y2="42" stroke="#888" stroke-width="0.8"/>
<line x1="221.4" y1="34" x2="221.4" y2="42" stroke="#888" stroke-width="0.8"/>
<line x1="226.6" y1="34" x2="226.6" y2="42" stroke="#888" stroke-width="0.8"/>
<line x1="231.8" y1="34" x2="231.8" y2="42" stroke="#888" stroke-width="0.8"/>
<line x1="237.0" y1="34" x2="237.0" y2="42" stroke="#888" stroke-width="0.8"/>
<line x1="242.2" y1="34" x2="242.2" y2="42" stroke="#888" stroke-width="0.8"/>
<line x1="247.4" y1="34" x2="247.4" y2="42" stroke="#888" stroke-width="0.8"/>
<line x1="252.6" y1="34" x2="252.6" y2="42" stroke="#888" stroke-width="0.8"/>
<line x1="257.8" y1="34" x2="257.8" y2="42" stroke="#888" stroke-width="0.8"/>
<line x1="263.0" y1="30" x2="263.0" y2="46" stroke="#444" stroke-width="1.5"/>
<text x="263.0" y="60" text-anchor="middle" font-size="10" fill="#444">-1,2</text>
<line x1="268.2" y1="34" x2="268.2" y2="42" stroke="#888" stroke-width="0.8"/>
<line x1="273.4" y1="34" x2="273.4" y2="42" stroke="#888" stroke-width="0.8"/>
<line x1="278.6" y1="34" x2="278.6" y2="42" stroke="#888" stroke-width="0.8"/>
<line x1="283.8" y1="34" x2="283.8" y2="42" stroke="#888" stroke-width="0.8"/>
<line x1="289.0" y1="34" x2="289.0" y2="42" stroke="#888" stroke-width="0.8"/>
<line x1="294.2" y1="34" x2="294.2" y2="42" stroke="#888" stroke-width="0.8"/>
<line x1="299.4" y1="34" x2="299.4" y2="42" stroke="#888" stroke-width="0.8"/>
<line x1="304.6" y1="34" x2="304.6" y2="42" stroke="#888" stroke-width="0.8"/>
<line x1="309.8" y1="34" x2="309.8" y2="42" stroke="#888" stroke-width="0.8"/>
<line x1="315.0" y1="30" x2="315.0" y2="46" stroke="#444" stroke-width="1.5"/>
<text x="315.0" y="60" text-anchor="middle" font-size="10" fill="#444">-0,2</text>
<line x1="320.2" y1="34" x2="320.2" y2="42" stroke="#888" stroke-width="0.8"/>
<line x1="325.4" y1="34" x2="325.4" y2="42" stroke="#888" stroke-width="0.8"/>
<line x1="330.6" y1="34" x2="330.6" y2="42" stroke="#888" stroke-width="0.8"/>
<line x1="335.8" y1="34" x2="335.8" y2="42" stroke="#888" stroke-width="0.8"/>
<line x1="341.0" y1="34" x2="341.0" y2="42" stroke="#888" stroke-width="0.8"/>
<line x1="346.2" y1="34" x2="346.2" y2="42" stroke="#888" stroke-width="0.8"/>
<line x1="351.4" y1="34" x2="351.4" y2="42" stroke="#888" stroke-width="0.8"/>
<line x1="356.6" y1="34" x2="356.6" y2="42" stroke="#888" stroke-width="0.8"/>
<line x1="361.8" y1="34" x2="361.8" y2="42" stroke="#888" stroke-width="0.8"/>
<line x1="367.0" y1="30" x2="367.0" y2="46" stroke="#444" stroke-width="1.5"/>
<text x="367.0" y="60" text-anchor="middle" font-size="10" fill="#444">0,8</text>
<line x1="372.2" y1="34" x2="372.2" y2="42" stroke="#888" stroke-width="0.8"/>
<line x1="377.4" y1="34" x2="377.4" y2="42" stroke="#888" stroke-width="0.8"/>
<line x1="382.6" y1="34" x2="382.6" y2="42" stroke="#888" stroke-width="0.8"/>
<line x1="387.8" y1="34" x2="387.8" y2="42" stroke="#888" stroke-width="0.8"/>
<line x1="393.0" y1="34" x2="393.0" y2="42" stroke="#888" stroke-width="0.8"/>
<line x1="398.2" y1="34" x2="398.2" y2="42" stroke="#888" stroke-width="0.8"/>
<line x1="403.4" y1="34" x2="403.4" y2="42" stroke="#888" stroke-width="0.8"/>
<line x1="408.6" y1="34" x2="408.6" y2="42" stroke="#888" stroke-width="0.8"/>
<line x1="413.8" y1="34" x2="413.8" y2="42" stroke="#888" stroke-width="0.8"/>
<line x1="419.0" y1="30" x2="419.0" y2="46" stroke="#444" stroke-width="1.5"/>
<text x="419.0" y="60" text-anchor="middle" font-size="10" fill="#444">1,8</text>
<line x1="424.2" y1="34" x2="424.2" y2="42" stroke="#888" stroke-width="0.8"/>
<line x1="429.4" y1="34" x2="429.4" y2="42" stroke="#888" stroke-width="0.8"/>
<line x1="434.6" y1="34" x2="434.6" y2="42" stroke="#888" stroke-width="0.8"/>
<line x1="439.8" y1="34" x2="439.8" y2="42" stroke="#888" stroke-width="0.8"/>
<line x1="445.0" y1="34" x2="445.0" y2="42" stroke="#888" stroke-width="0.8"/>
<line x1="152.26666666666668" y1="33" x2="162.26666666666668" y2="43" stroke="#C5607A" stroke-width="2.2"/>
<line x1="152.26666666666668" y1="43" x2="162.26666666666668" y2="33" stroke="#C5607A" stroke-width="2.2"/>
<text x="157.3" y="26" text-anchor="middle" font-size="11" font-weight="bold" fill="#C5607A">G</text>
<line x1="256.26666666666665" y1="33" x2="266.26666666666665" y2="43" stroke="#C5607A" stroke-width="2.2"/>
<line x1="256.26666666666665" y1="43" x2="266.26666666666665" y2="33" stroke="#C5607A" stroke-width="2.2"/>
<text x="261.3" y="26" text-anchor="middle" font-size="11" font-weight="bold" fill="#C5607A">H</text>
<line x1="334.26666666666665" y1="33" x2="344.26666666666665" y2="43" stroke="#C5607A" stroke-width="2.2"/>
<line x1="334.26666666666665" y1="43" x2="344.26666666666665" y2="33" stroke="#C5607A" stroke-width="2.2"/>
<text x="339.3" y="26" text-anchor="middle" font-size="11" font-weight="bold" fill="#C5607A">I</text>
</svg>