<svg xmlns="http://www.w3.org/2000/svg" viewBox="0 0 400 290" width="400" height="290">
<defs><marker id="arr_ax" markerWidth="8" markerHeight="8" refX="6" refY="3" orient="auto"><path d="M0,0 L0,6 L8,3 z" fill="#2D2226"/></marker><marker id="arr_ay" markerWidth="8" markerHeight="8" refX="6" refY="3" orient="auto"><path d="M0,0 L0,6 L8,3 z" fill="#2D2226"/></marker><marker id="arr_co" markerWidth="8" markerHeight="8" refX="6" refY="3" orient="auto"><path d="M0,0 L0,6 L8,3 z" fill="#EB7F73"/></marker></defs>
<line x1="60.0" y1="302.5" x2="60.0" y2="-12.5" stroke="#2D2226" stroke-width="0.5" opacity="0.3"/>
<line x1="95.0" y1="302.5" x2="95.0" y2="-12.5" stroke="#2D2226" stroke-width="0.5" opacity="0.3"/>
<line x1="130.0" y1="302.5" x2="130.0" y2="-12.5" stroke="#2D2226" stroke-width="0.5" opacity="0.3"/>
<line x1="165.0" y1="302.5" x2="165.0" y2="-12.5" stroke="#2D2226" stroke-width="0.5" opacity="0.3"/>
<line x1="235.0" y1="302.5" x2="235.0" y2="-12.5" stroke="#2D2226" stroke-width="0.5" opacity="0.3"/>
<line x1="270.0" y1="302.5" x2="270.0" y2="-12.5" stroke="#2D2226" stroke-width="0.5" opacity="0.3"/>
<line x1="305.0" y1="302.5" x2="305.0" y2="-12.5" stroke="#2D2226" stroke-width="0.5" opacity="0.3"/>
<line x1="340.0" y1="302.5" x2="340.0" y2="-12.5" stroke="#2D2226" stroke-width="0.5" opacity="0.3"/>
<line x1="25.0" y1="250.0" x2="375.0" y2="250.0" stroke="#2D2226" stroke-width="0.5" opacity="0.3"/>
<line x1="25.0" y1="215.0" x2="375.0" y2="215.0" stroke="#2D2226" stroke-width="0.5" opacity="0.3"/>
<line x1="25.0" y1="180.0" x2="375.0" y2="180.0" stroke="#2D2226" stroke-width="0.5" opacity="0.3"/>
<line x1="25.0" y1="110.0" x2="375.0" y2="110.0" stroke="#2D2226" stroke-width="0.5" opacity="0.3"/>
<line x1="25.0" y1="75.0" x2="375.0" y2="75.0" stroke="#2D2226" stroke-width="0.5" opacity="0.3"/>
<line x1="25.0" y1="40.0" x2="375.0" y2="40.0" stroke="#2D2226" stroke-width="0.5" opacity="0.3"/>
<line x1="25.0" y1="145.0" x2="382.0" y2="145.0" stroke="#2D2226" stroke-width="1.8" marker-end="url(#arr_ax)"/>
<line x1="200.0" y1="302.5" x2="200.0" y2="-2.0" stroke="#2D2226" stroke-width="1.8" marker-end="url(#arr_ay)"/>
<line x1="60.0" y1="140.0" x2="60.0" y2="150.0" stroke="#2D2226" stroke-width="1.5"/>
<text x="60.0" y="162.0" text-anchor="middle" font-family="serif" font-size="12" fill="#2D2226">-4</text>
<line x1="95.0" y1="140.0" x2="95.0" y2="150.0" stroke="#2D2226" stroke-width="1.5"/>
<text x="95.0" y="162.0" text-anchor="middle" font-family="serif" font-size="12" fill="#2D2226">-3</text>
<line x1="130.0" y1="140.0" x2="130.0" y2="150.0" stroke="#2D2226" stroke-width="1.5"/>
<text x="130.0" y="162.0" text-anchor="middle" font-family="serif" font-size="12" fill="#2D2226">-2</text>
<line x1="165.0" y1="140.0" x2="165.0" y2="150.0" stroke="#2D2226" stroke-width="1.5"/>
<text x="165.0" y="162.0" text-anchor="middle" font-family="serif" font-size="12" fill="#2D2226">-1</text>
<line x1="235.0" y1="140.0" x2="235.0" y2="150.0" stroke="#2D2226" stroke-width="1.5"/>
<text x="235.0" y="162.0" text-anchor="middle" font-family="serif" font-size="12" fill="#2D2226">1</text>
<line x1="270.0" y1="140.0" x2="270.0" y2="150.0" stroke="#2D2226" stroke-width="1.5"/>
<text x="270.0" y="162.0" text-anchor="middle" font-family="serif" font-size="12" fill="#2D2226">2</text>
<line x1="305.0" y1="140.0" x2="305.0" y2="150.0" stroke="#2D2226" stroke-width="1.5"/>
<text x="305.0" y="162.0" text-anchor="middle" font-family="serif" font-size="12" fill="#2D2226">3</text>
<line x1="340.0" y1="140.0" x2="340.0" y2="150.0" stroke="#2D2226" stroke-width="1.5"/>
<text x="340.0" y="162.0" text-anchor="middle" font-family="serif" font-size="12" fill="#2D2226">4</text>
<line x1="195.0" y1="250.0" x2="205.0" y2="250.0" stroke="#2D2226" stroke-width="1.5"/>
<text x="186.0" y="254.0" text-anchor="middle" font-family="serif" font-size="12" fill="#2D2226">-3</text>
<line x1="195.0" y1="215.0" x2="205.0" y2="215.0" stroke="#2D2226" stroke-width="1.5"/>
<text x="186.0" y="219.0" text-anchor="middle" font-family="serif" font-size="12" fill="#2D2226">-2</text>
<line x1="195.0" y1="180.0" x2="205.0" y2="180.0" stroke="#2D2226" stroke-width="1.5"/>
<text x="186.0" y="184.0" text-anchor="middle" font-family="serif" font-size="12" fill="#2D2226">-1</text>
<line x1="195.0" y1="110.0" x2="205.0" y2="110.0" stroke="#2D2226" stroke-width="1.5"/>
<text x="186.0" y="114.0" text-anchor="middle" font-family="serif" font-size="12" fill="#2D2226">1</text>
<line x1="195.0" y1="75.0" x2="205.0" y2="75.0" stroke="#2D2226" stroke-width="1.5"/>
<text x="186.0" y="79.0" text-anchor="middle" font-family="serif" font-size="12" fill="#2D2226">2</text>
<line x1="195.0" y1="40.0" x2="205.0" y2="40.0" stroke="#2D2226" stroke-width="1.5"/>
<text x="186.0" y="44.0" text-anchor="middle" font-family="serif" font-size="12" fill="#2D2226">3</text>
<path d="M 25.00,127.50 C 71.67,118.17 83.33,115.25 95.00,113.50 C 106.67,111.75 118.33,109.42 130.00,110.00 C 141.67,110.58 153.33,109.42 165.00,117.00 C 176.67,124.58 188.33,136.83 200.00,155.50 C 211.67,174.17 223.33,214.42 235.00,229.00 C 246.67,243.58 258.33,248.25 270.00,243.00 C 281.67,237.75 293.33,208.00 305.00,197.50 C 316.67,187.00 328.33,181.75 340.00,180.00 C 351.67,178.25 369.17,185.83 375.00,187.00" fill="none" stroke="#cf90a2" stroke-width="2.5" stroke-linecap="round"/>
<line x1="130.0" y1="145.0" x2="130.0" y2="110.0" stroke="#EB7F73" stroke-width="2" stroke-dasharray="5,4" marker-end="url(#arr_co)"/>
<line x1="130.0" y1="110.0" x2="200.0" y2="110.0" stroke="#EB7F73" stroke-width="2" stroke-dasharray="5,4" marker-end="url(#arr_co)"/>
</svg>
