<svg xmlns="http://www.w3.org/2000/svg" viewBox="0 0 1042.0 395.0" width="1042" height="395">
<defs>
  <style>
    text { font-family: "Latin Modern", "Computer Modern", Georgia, serif; font-size: 15px; fill: #111; }
    text.starred { font-weight: bold; fill: #8B3C52; }
    .edge { stroke: #444; stroke-width: 1.3; }
  </style>
</defs>
<circle cx="500.0" cy="40" r="3" fill="#444"/>
<line class="edge" x1="500.0" y1="43" x2="108.0" y2="167"/>
<text x="108.0" y="185" text-anchor="middle" class="starred">c<tspan baseline-shift="super" font-size="10">*</tspan></text>
<line class="edge" x1="108.0" y1="190" x2="45.0" y2="312"/>
<text x="45.0" y="330" text-anchor="middle" class="starred">m<tspan baseline-shift="super" font-size="10">*</tspan></text>
<line class="edge" x1="108.0" y1="190" x2="87.0" y2="312"/>
<text x="87.0" y="330" text-anchor="middle" class="">l</text>
<line class="edge" x1="108.0" y1="190" x2="129.0" y2="312"/>
<text x="129.0" y="330" text-anchor="middle" class="starred">b<tspan baseline-shift="super" font-size="10">*</tspan></text>
<line class="edge" x1="108.0" y1="190" x2="171.0" y2="312"/>
<text x="171.0" y="330" text-anchor="middle" class="">p</text>
<line class="edge" x1="500.0" y1="43" x2="304.0" y2="167"/>
<text x="304.0" y="185" text-anchor="middle" class="starred">m<tspan baseline-shift="super" font-size="10">*</tspan></text>
<line class="edge" x1="304.0" y1="190" x2="241.0" y2="312"/>
<text x="241.0" y="330" text-anchor="middle" class="starred">c<tspan baseline-shift="super" font-size="10">*</tspan></text>
<line class="edge" x1="304.0" y1="190" x2="283.0" y2="312"/>
<text x="283.0" y="330" text-anchor="middle" class="">l</text>
<line class="edge" x1="304.0" y1="190" x2="325.0" y2="312"/>
<text x="325.0" y="330" text-anchor="middle" class="starred">b<tspan baseline-shift="super" font-size="10">*</tspan></text>
<line class="edge" x1="304.0" y1="190" x2="367.0" y2="312"/>
<text x="367.0" y="330" text-anchor="middle" class="">p</text>
<line class="edge" x1="500.0" y1="43" x2="500.0" y2="167"/>
<text x="500.0" y="185" text-anchor="middle" class="">l</text>
<line class="edge" x1="500.0" y1="190" x2="437.0" y2="312"/>
<text x="437.0" y="330" text-anchor="middle" class="starred">c<tspan baseline-shift="super" font-size="10">*</tspan></text>
<line class="edge" x1="500.0" y1="190" x2="479.0" y2="312"/>
<text x="479.0" y="330" text-anchor="middle" class="starred">m<tspan baseline-shift="super" font-size="10">*</tspan></text>
<line class="edge" x1="500.0" y1="190" x2="521.0" y2="312"/>
<text x="521.0" y="330" text-anchor="middle" class="">b</text>
<line class="edge" x1="500.0" y1="190" x2="563.0" y2="312"/>
<text x="563.0" y="330" text-anchor="middle" class="">p</text>
<line class="edge" x1="500.0" y1="43" x2="696.0" y2="167"/>
<text x="696.0" y="185" text-anchor="middle" class="starred">b<tspan baseline-shift="super" font-size="10">*</tspan></text>
<line class="edge" x1="696.0" y1="190" x2="633.0" y2="312"/>
<text x="633.0" y="330" text-anchor="middle" class="starred">c<tspan baseline-shift="super" font-size="10">*</tspan></text>
<line class="edge" x1="696.0" y1="190" x2="675.0" y2="312"/>
<text x="675.0" y="330" text-anchor="middle" class="starred">m<tspan baseline-shift="super" font-size="10">*</tspan></text>
<line class="edge" x1="696.0" y1="190" x2="717.0" y2="312"/>
<text x="717.0" y="330" text-anchor="middle" class="">l</text>
<line class="edge" x1="696.0" y1="190" x2="759.0" y2="312"/>
<text x="759.0" y="330" text-anchor="middle" class="">p</text>
<line class="edge" x1="500.0" y1="43" x2="892.0" y2="167"/>
<text x="892.0" y="185" text-anchor="middle" class="">p</text>
<line class="edge" x1="892.0" y1="190" x2="829.0" y2="312"/>
<text x="829.0" y="330" text-anchor="middle" class="starred">c<tspan baseline-shift="super" font-size="10">*</tspan></text>
<line class="edge" x1="892.0" y1="190" x2="871.0" y2="312"/>
<text x="871.0" y="330" text-anchor="middle" class="starred">m<tspan baseline-shift="super" font-size="10">*</tspan></text>
<line class="edge" x1="892.0" y1="190" x2="913.0" y2="312"/>
<text x="913.0" y="330" text-anchor="middle" class="">l</text>
<line class="edge" x1="892.0" y1="190" x2="955.0" y2="312"/>
<text x="955.0" y="330" text-anchor="middle" class="starred">b<tspan baseline-shift="super" font-size="10">*</tspan></text>
</svg>